<?xml version="1.0" encoding="utf-8" ?>
<svg xmlns="http://www.w3.org/2000/svg" xmlns:xlink="http://www.w3.org/1999/xlink" width="1024" height="1024">
	<path fill="#FEFEFE" d="M0 0L1024 0L1024 1024L0 1024L0 0Z"/>
	<path fill="#00426A" d="M76.7961 556.833L77.123 555.575C80.7422 553.816 114.359 555.029 121.068 555.063L121.114 570.738C120.388 606.003 121.159 641.428 121.128 676.716Q121.161 691.484 121.029 706.252C121.015 708.866 121.5 711.605 121.303 714.19C121.209 715.417 120.884 716.206 120.126 717.193C118.714 717.838 117.311 717.484 115.826 717.298C110.137 702.871 104 688.667 98.9893 673.97Q96.6282 666.878 94.5061 659.711Q92.3841 652.545 90.5036 645.311Q88.6231 638.077 86.9863 630.784Q85.3494 623.491 83.958 616.147Q82.5667 608.803 81.4223 601.417Q80.278 594.031 79.382 586.61Q78.486 579.19 77.8393 571.743Q77.1927 564.297 76.7961 556.833Z"/>
	<path fill="#00426A" d="M425.951 108.085C440.004 83.2771 459.555 65.1049 487.502 57.4401Q488.62 57.1278 489.745 56.8432Q490.87 56.5587 492.002 56.3021Q493.134 56.0454 494.272 55.8169Q495.41 55.5883 496.553 55.388Q497.696 55.1877 498.844 55.0157Q499.992 54.8438 501.143 54.7002Q502.295 54.5567 503.45 54.4417Q504.605 54.3267 505.762 54.2404Q506.92 54.154 508.079 54.0963Q509.238 54.0385 510.398 54.0095Q511.558 53.9805 512.719 53.9802Q513.88 53.9799 515.04 54.0083Q516.2 54.0367 517.359 54.0938Q518.518 54.151 519.676 54.2367Q520.833 54.3225 521.988 54.4369Q523.143 54.5513 524.295 54.6942Q525.447 54.8371 526.595 55.0085Q527.742 55.1799 528.886 55.3796Q530.029 55.5793 531.167 55.8073Q532.305 56.0352 533.437 56.2913Q534.569 56.5473 535.694 56.8313Q536.82 57.1153 537.938 57.427Q539.056 57.7387 540.166 58.078Q541.276 58.4173 542.377 58.7839Q543.478 59.1506 544.57 59.5444Q545.661 59.9381 546.743 60.3588Q547.825 60.7795 548.896 61.2268Q549.967 61.6741 551.026 62.1477Q552.086 62.6214 553.133 63.1211Q554.181 63.6209 555.216 64.1464Q556.25 64.6719 557.272 65.2228Q558.293 65.7737 559.301 66.3498C576.803 76.4536 589.469 91.772 599.054 109.302C609.031 110.619 619.161 113.793 628.823 116.55Q638.561 119.363 648.161 122.616Q657.76 125.87 667.202 129.558Q676.643 133.246 685.907 137.36Q695.17 141.475 704.236 146.007Q713.303 150.539 722.153 155.48Q731.003 160.421 739.619 165.76Q748.235 171.1 756.599 176.826Q764.962 182.552 773.056 188.654Q781.878 195.43 790.377 202.605C794.424 206.052 804.75 217.009 808.334 218.447L886.117 218.327C886.117 229.221 885.925 240.157 886.151 251.046L911.46 251.001L911.529 320.054C911.541 331.584 911.233 343.209 911.588 354.729C911.99 361.746 917.779 371.638 920.483 378.279Q923.559 385.981 926.039 393.895Q928.568 401.791 930.816 409.771Q933.064 417.751 935.029 425.805Q936.994 433.86 938.672 441.979Q940.351 450.098 941.742 458.271Q943.133 466.444 944.234 474.662Q945.334 482.879 946.144 491.13Q946.954 499.381 947.472 507.656Q947.989 515.93 948.214 524.218C948.493 534.386 948.888 544.913 947.973 555.049C945.312 596.05 938.603 636.712 925.11 675.641C920.111 690.061 914.072 703.726 908.247 717.783C920.683 716.823 933.626 717.501 946.125 717.506L946.168 743.601C941.084 743.598 897.213 742.904 894.97 744.685C894.911 744.733 894.882 744.81 894.837 744.872C887.116 759.922 877.325 774.545 867.547 788.318Q865.055 791.817 862.493 795.265Q859.931 798.713 857.3 802.108Q854.669 805.504 851.97 808.846Q849.271 812.188 846.506 815.475Q843.741 818.762 840.91 821.993Q838.079 825.224 835.184 828.397Q832.288 831.57 829.33 834.685Q826.371 837.799 823.351 840.854Q820.33 843.908 817.249 846.901Q814.167 849.893 811.026 852.824Q807.885 855.754 804.686 858.621Q801.487 861.487 798.23 864.289Q794.974 867.09 791.662 869.826Q788.35 872.561 784.984 875.23Q781.618 877.898 778.198 880.498Q774.779 883.099 771.308 885.629Q767.837 888.16 764.316 890.621Q760.795 893.081 757.225 895.47Q753.655 897.86 750.038 900.177Q746.421 902.493 742.758 904.737Q739.095 906.981 735.387 909.15Q731.68 911.32 727.929 913.415Q724.179 915.509 720.387 917.528Q716.596 919.547 712.764 921.489Q708.932 923.431 705.063 925.295Q701.193 927.16 697.286 928.946Q693.38 930.733 689.438 932.44Q685.496 934.148 681.521 935.775Q677.546 937.403 673.539 938.951Q669.531 940.498 665.494 941.965Q661.457 943.432 657.39 944.817Q653.324 946.202 649.231 947.505Q641.107 950.106 632.892 952.405Q624.677 954.704 616.383 956.698Q608.089 958.692 599.727 960.378Q591.365 962.063 582.946 963.439Q574.527 964.814 566.064 965.878Q557.6 966.941 549.102 967.691Q540.605 968.44 532.086 968.875Q523.567 969.31 515.037 969.43C510.293 969.468 505.518 969.64 500.798 969.102Q487.929 968.861 475.096 967.858Q462.263 966.856 449.513 965.096Q436.762 963.335 424.138 960.824Q411.513 958.312 399.06 955.058Q394.989 953.996 390.94 952.856Q386.89 951.716 382.864 950.498Q378.837 949.279 374.835 947.983Q370.833 946.687 366.856 945.314Q362.88 943.941 358.931 942.491Q354.981 941.041 351.061 939.515Q347.141 937.989 343.251 936.388Q339.36 934.787 335.502 933.11Q331.644 931.434 327.818 929.683Q323.993 927.932 320.202 926.108Q316.411 924.284 312.657 922.386Q308.902 920.489 305.185 918.519Q301.467 916.55 297.789 914.509Q294.11 912.467 290.472 910.355Q286.834 908.243 283.237 906.062Q279.64 903.88 276.086 901.629Q272.532 899.378 269.022 897.058Q265.513 894.739 262.048 892.352Q258.584 889.965 255.167 887.512Q251.749 885.058 248.38 882.539Q245.011 880.02 241.691 877.437Q238.371 874.853 235.101 872.206Q231.832 869.558 228.614 866.848Q225.397 864.138 222.232 861.366Q219.068 858.594 215.957 855.761Q212.847 852.929 209.792 850.036Q206.737 847.144 203.738 844.194Q200.74 841.243 197.799 838.235Q194.858 835.226 191.976 832.162Q189.094 829.097 186.272 825.978Q183.449 822.858 180.688 819.684Q177.927 816.511 175.227 813.284Q161.909 796.977 149.95 779.648Q137.991 762.319 127.47 744.081C111.819 743.686 96.1054 743.983 80.4472 744.01L80.5096 717.117L115.826 717.298C117.311 717.484 118.714 717.838 120.126 717.193C120.884 716.206 121.209 715.417 121.303 714.19C121.5 711.605 121.015 708.866 121.029 706.252Q121.161 691.484 121.128 676.716C121.159 641.428 120.388 606.003 121.114 570.738L121.068 555.063C114.359 555.029 80.7422 553.816 77.123 555.575L76.7961 556.833C76.7206 556.625 76.606 556.428 76.5696 556.211C76.007 552.854 76.4529 548.699 76.4562 545.243Q76.3512 531.519 76.8276 517.803C80.168 439.549 105.251 368.031 146.699 302.058Q153.151 291.89 160.165 282.101Q167.18 272.312 174.733 262.934Q182.287 253.555 190.356 244.616Q198.426 235.677 206.985 227.206C268.23 166.105 341.866 127.291 425.951 108.085Z"/>
	<path fill="#8CC751" d="M510.39 771.632C511.589 771.988 512.81 772.425 514.031 772.687C514.679 780.273 514.347 788.026 514.105 795.628L513.658 795.834C512.701 793.651 510.959 791.977 510.216 789.637C511.14 784.134 510.288 777.287 510.39 771.632Z"/>
	<path fill="#8CC751" d="M513.061 931.811C513.493 934.743 513.848 937.668 514.593 940.541C515.738 950.044 514.526 959.874 515.037 969.43C510.293 969.468 505.518 969.64 500.798 969.102C503.817 968.952 506.943 969.206 509.97 969.309C510.003 959.068 509.667 948.711 510.384 938.496C505.888 938.495 501.234 938.737 496.781 938.077C502.021 937.659 507.743 938 512.982 938.388L513.061 931.811Z"/>
	<path fill="#8CC751" d="M514.021 874.057L514.593 874.12C514.892 883.44 514.761 892.748 514.657 902.069C514.605 906.75 514.847 911.638 514.399 916.29C512.191 920.08 513.746 923.825 512.586 927.647C511.532 924.837 510.42 922.058 509.685 919.144C510.751 914.192 510.026 907.837 509.994 902.707Q509.879 888.613 510.006 874.52C511.461 874.524 512.603 874.386 514.021 874.057Z"/>
	<path fill="#8CC751" d="M510.051 811.481L514.395 811.048L514.731 811.885C515.604 824.32 514.907 837.147 514.779 849.624C513.421 852.02 514.488 857.194 513.817 860.248C512.139 858.712 510.794 857.008 509.703 855.017C510.383 849.748 509.968 844.121 509.958 838.795L510.051 811.481Z"/>
	<path fill="#FEFEFE" d="M811.608 672.211C832.94 671.811 854.777 671.273 876.072 672.43L876.056 685.444L818.245 685.275C816.752 680.279 814.469 676.538 811.608 672.211Z"/>
	<path fill="#FEFEFE" d="M662.58 675.63C666.201 675.807 669.474 676.248 672.667 678.115C676.81 680.539 679.725 684.724 680.885 689.354Q680.994 689.782 681.081 690.215Q681.168 690.648 681.233 691.085Q681.297 691.521 681.34 691.961Q681.382 692.401 681.401 692.842Q681.421 693.283 681.417 693.725Q681.414 694.166 681.388 694.607Q681.362 695.048 681.314 695.487Q681.265 695.926 681.194 696.361Q681.123 696.797 681.03 697.229Q680.937 697.661 680.821 698.087Q680.706 698.513 680.569 698.933Q680.432 699.352 680.273 699.765Q680.114 700.177 679.935 700.58Q679.755 700.984 679.555 701.377Q679.355 701.771 679.135 702.154Q678.915 702.537 678.676 702.908C675.513 707.783 670.922 709.888 665.443 711.012C661.208 711.169 657.208 710.629 653.562 708.316Q652.898 707.896 652.28 707.412Q651.662 706.927 651.095 706.384Q650.528 705.84 650.018 705.243Q649.508 704.645 649.06 704Q648.613 703.355 648.232 702.668Q647.851 701.981 647.54 701.26Q647.23 700.538 646.993 699.789Q646.756 699.041 646.595 698.272C645.513 693.126 646.546 687.487 649.576 683.166C652.784 678.59 657.214 676.505 662.58 675.63Z"/>
	<path fill="#FEFEFE" d="M786.4 677.54C790.623 677.251 794.503 677.723 798.272 679.774Q799.061 680.196 799.803 680.695Q800.545 681.194 801.234 681.766Q801.922 682.337 802.55 682.974Q803.177 683.612 803.738 684.309Q804.298 685.006 804.786 685.757Q805.273 686.507 805.683 687.302Q806.092 688.097 806.42 688.93Q806.748 689.762 806.99 690.623C808.289 695.315 807.798 700.549 805.313 704.773C802.441 709.657 798.019 711.875 792.771 713.329C789.16 713.665 785.679 713.519 782.284 712.116Q781.872 711.945 781.469 711.752Q781.066 711.56 780.673 711.347Q780.281 711.134 779.899 710.901Q779.518 710.668 779.15 710.416Q778.781 710.164 778.426 709.893Q778.071 709.622 777.73 709.333Q777.39 709.045 777.064 708.739Q776.739 708.433 776.429 708.11Q776.12 707.788 775.828 707.451Q775.536 707.113 775.261 706.76Q774.987 706.408 774.731 706.042Q774.475 705.676 774.238 705.297Q774.001 704.919 773.784 704.529Q773.567 704.138 773.37 703.737Q773.174 703.336 772.998 702.926Q772.822 702.515 772.668 702.096Q772.506 701.657 772.367 701.21Q772.227 700.763 772.111 700.309Q771.995 699.855 771.903 699.396Q771.81 698.937 771.742 698.474Q771.673 698.01 771.629 697.544Q771.584 697.078 771.564 696.61Q771.543 696.142 771.547 695.674Q771.551 695.206 771.579 694.738Q771.607 694.271 771.659 693.805Q771.712 693.34 771.788 692.878Q771.864 692.416 771.964 691.958Q772.064 691.5 772.187 691.049Q772.311 690.597 772.457 690.152Q772.604 689.707 772.773 689.271Q772.943 688.834 773.135 688.407Q773.326 687.98 773.54 687.563C776.26 682.149 780.803 679.291 786.4 677.54Z"/>
	<path fill="#ADD568" d="M430.093 733.982C442.24 737.532 454.431 741.958 466.047 746.979C486.079 755.637 501.981 768.926 510.216 789.637C510.959 791.977 512.701 793.651 513.658 795.834C514.049 800.865 514.625 806.002 514.395 811.048L510.051 811.481C488.61 811.654 468.456 806.451 452.344 791.649C435.487 776.162 431.104 755.982 430.093 733.982Z"/>
	<path fill="#69BB47" d="M514.779 849.624C514.811 850.821 514.601 852.887 515.187 853.873L515.503 852.65L515.688 852.731C522.877 835.125 533.848 822.143 551.681 814.728C566.91 808.396 583.988 805.883 599.794 800.982C596.322 823.547 592.335 844.687 572.833 859.165C556.894 870.998 534.188 875.803 514.593 874.12L514.021 874.057C513.571 869.581 513.164 864.707 513.817 860.248C514.488 857.194 513.421 852.02 514.779 849.624Z"/>
	<path fill="#69BB47" d="M514.399 916.29C514.695 916.164 515.03 916.106 515.286 915.911C515.423 915.807 521.104 904.31 522.135 902.694C526.62 895.665 532.54 889.171 539.441 884.45C555.983 873.131 580.735 868.922 600.051 864.074C596.92 886.966 590.965 908.04 571.726 922.715C558.715 932.64 539.697 938.182 523.415 938.005C520.323 937.972 515.342 936.697 514.593 940.541C513.848 937.668 513.493 934.743 513.061 931.811L512.586 927.647C513.746 923.825 512.191 920.08 514.399 916.29Z"/>
	<path fill="#ADD568" d="M510.39 771.632C496.672 759.348 489.946 745.202 488.854 726.771C487.405 702.306 499.1 677.496 513.282 658.089C527.08 678.497 543.093 706.322 538.15 731.707C535.009 747.839 524.695 760.721 514.031 772.687C512.81 772.425 511.589 771.988 510.39 771.632Z"/>
	<path fill="#ADD568" d="M421.127 864.149C437.283 867.408 453.839 870.867 469.083 877.291C488.46 885.455 501.778 899.751 509.685 919.144C510.42 922.058 511.532 924.837 512.586 927.647L513.061 931.811L512.982 938.388C507.743 938 502.021 937.659 496.781 938.077C482.235 938.166 465.497 932.269 453.649 923.99C432.914 909.501 425.397 888.044 421.127 864.149Z"/>
	<path fill="#ADD568" d="M422.26 797.128C438.902 801.389 455.946 806.401 471.504 813.773C489.165 822.142 503.023 836.554 509.703 855.017C510.794 857.008 512.139 858.712 513.817 860.248C513.164 864.707 513.571 869.581 514.021 874.057C512.603 874.386 511.461 874.524 510.006 874.52C487.879 874.686 465.366 870.366 448.244 855.391C431.521 840.763 423.703 818.889 422.26 797.128Z"/>
	<path fill="#69BB47" d="M514.105 795.628C514.273 795.366 514.447 795.106 514.611 794.841C517.435 790.282 519.171 781.03 522.803 774.75C535.046 753.581 553.442 743.954 576.21 737.364C582.632 735.505 589.354 734.054 595.654 731.861C595.282 754.764 592.401 776.373 575.132 793.042C558.72 808.882 538.568 810.098 517.163 810.932C516.116 810.973 515.331 810.968 514.731 811.885L514.395 811.048C514.625 806.002 514.049 800.865 513.658 795.834L514.105 795.628Z"/>
	<path fill="#FEFEFE" d="M233.653 744.527C237.804 743.132 250.113 744.248 255.177 744.082C280.305 780.898 322.966 816.198 362.403 836.599C360.387 830.179 352.211 807.395 355.148 802.12C356.217 800.202 358.808 798.627 360.95 798.274C363.449 797.861 366.557 798.437 368.55 800.074C369.595 800.932 370.099 801.818 370.632 803.048C373.812 810.391 386.507 852.972 386.75 860.014C386.788 861.107 386.452 862.328 385.739 863.178C383.918 865.35 330.087 878.874 325.736 878.599C323.803 878.476 322.049 877.083 320.898 875.603C319.19 873.409 318.059 870.069 318.474 867.278C318.81 865.015 320.33 863.167 322.181 861.918C327.374 858.412 346.047 855.031 352.969 853.356C313.602 829.148 279.532 803.611 250.506 767.325C244.607 759.95 238.722 752.506 233.653 744.527Z"/>
	<path fill="#FEFEFE" d="M763.876 746.289C771.873 746.57 779.893 746.461 787.895 746.46C778.535 759.468 769.242 772.4 758.764 784.548C734.861 812.26 705.728 834.15 674.386 852.757C685.37 856.674 696.753 859.845 707.858 863.45L702.944 881.456C695.397 878.477 687.361 876.299 679.621 873.844L636.685 860.298C641.045 840.468 646.719 820.893 651.357 801.115C657.046 802.529 662.662 804.439 668.331 805.971Q665.481 820.745 661.41 835.23C667.794 832.446 673.989 828.381 679.896 824.696C712.097 804.607 742.343 777.709 763.876 746.289Z"/>
	<path fill="#97DADA" d="M911.588 354.729C911.99 361.746 917.779 371.638 920.483 378.279Q923.559 385.981 926.039 393.895Q928.568 401.791 930.816 409.771Q933.064 417.751 935.029 425.805Q936.994 433.86 938.672 441.979Q940.351 450.098 941.742 458.271Q943.133 466.444 944.234 474.662Q945.334 482.879 946.144 491.13Q946.954 499.381 947.472 507.656Q947.989 515.93 948.214 524.218C948.493 534.386 948.888 544.913 947.973 555.049C935.836 554.684 923.615 554.95 911.468 554.945L911.588 354.729Z"/>
	<path fill="#69BB47" d="M759.192 218.368Q783.763 218.155 808.334 218.447L886.117 218.327C886.117 229.221 885.925 240.157 886.151 251.046L886.058 266.057L759.3 266.042L759.356 250.92C759.432 240.075 759.249 229.213 759.192 218.368Z"/>
	<path fill="#FEFEFE" d="M803.234 545.56C822.944 545.484 842.126 544.255 857.332 559.303C866.385 568.264 868.967 578.843 868.949 591.193C868.91 617.232 869.269 643.365 868.697 669.393Q838.759 669.61 808.819 669.481L803.547 666.171C803.211 652.034 803.642 637.887 803.396 623.747L803.435 620.188L803.234 545.56Z"/>
	<path fill="#00426A" d="M818.939 573.469L860.337 573.541Q860.049 595.73 860.165 617.921C846.545 618.632 832.575 617.99 818.908 618.045L818.939 573.469Z"/>
	<path fill="#8CC751" d="M908.247 717.783C920.683 716.823 933.626 717.501 946.125 717.506L946.168 743.601C941.084 743.598 897.213 742.904 894.97 744.685C894.911 744.733 894.882 744.81 894.837 744.872L823.46 745.904C816.422 745.964 792.185 745.11 787.895 746.46C779.893 746.461 771.873 746.57 763.876 746.289C747.317 745.203 730.202 746.042 713.568 746.015L614.027 746.01C614.123 736.832 614.02 727.645 614 718.467Q717.345 718.822 820.686 718.065L880.266 718.06C889.256 718.069 899.393 718.985 908.247 717.783Z"/>
	<path fill="#8CC751" d="M121.114 570.738C121.847 576.994 121.538 583.552 121.544 589.851L121.556 620.254L121.465 717.284C146.114 716.292 170.935 717.271 195.61 716.954L195.449 667.256C195.426 658.945 194.838 650.111 195.595 641.848C196.784 666.665 195.985 691.906 196.031 716.769L281.298 716.701C296.193 716.707 311.144 717.012 326.034 716.73L400.985 717.012L418.417 717.102L418.447 744.07L310.857 744.008C292.402 743.995 273.592 743.241 255.177 744.082C250.113 744.248 237.804 743.132 233.653 744.527C230.469 743.056 139.495 743.942 127.47 744.081C111.819 743.686 96.1054 743.983 80.4472 744.01L80.5096 717.117L115.826 717.298C117.311 717.484 118.714 717.838 120.126 717.193C120.884 716.206 121.209 715.417 121.303 714.19C121.5 711.605 121.015 708.866 121.029 706.252Q121.161 691.484 121.128 676.716C121.159 641.428 120.388 606.003 121.114 570.738Z"/>
	<path fill="#EBA933" d="M612.014 620.119C657.584 620.597 703.206 620.113 748.782 620.119C766.955 620.121 785.279 619.627 803.435 620.188L803.396 623.747C803.642 637.887 803.211 652.034 803.547 666.171C803.326 666.073 803.106 665.973 802.884 665.878Q802.143 665.557 801.387 665.274Q800.631 664.991 799.862 664.746Q799.093 664.501 798.313 664.294Q797.532 664.088 796.743 663.92Q795.953 663.753 795.156 663.625Q794.359 663.497 793.556 663.41Q792.754 663.322 791.948 663.274Q791.142 663.226 790.335 663.219Q789.528 663.211 788.721 663.244Q787.915 663.277 787.111 663.35Q786.307 663.423 785.507 663.536Q784.708 663.649 783.916 663.802Q783.123 663.955 782.339 664.147Q781.555 664.339 780.781 664.57Q780.008 664.801 779.247 665.07Q778.486 665.339 777.739 665.646C768.545 669.432 763.23 676.109 759.533 685.102L693.267 685.165C692.645 683.376 691.989 681.629 691.178 679.915Q690.853 679.24 690.496 678.581Q690.138 677.922 689.748 677.282Q689.358 676.642 688.937 676.022Q688.516 675.402 688.065 674.804Q687.614 674.205 687.134 673.63Q686.654 673.054 686.146 672.503Q685.638 671.952 685.103 671.427Q684.569 670.902 684.009 670.403Q683.449 669.905 682.865 669.435Q682.281 668.965 681.675 668.525Q681.069 668.084 680.442 667.674Q679.814 667.264 679.167 666.885Q678.521 666.507 677.856 666.161Q677.191 665.815 676.51 665.502Q675.829 665.189 675.133 664.91Q674.438 664.631 673.729 664.387Q672.977 664.124 672.214 663.9Q671.45 663.675 670.676 663.489Q669.902 663.303 669.119 663.156Q668.337 663.01 667.548 662.902Q666.759 662.795 665.965 662.728Q665.172 662.66 664.376 662.633Q663.581 662.606 662.785 662.618Q661.989 662.631 661.194 662.683Q660.4 662.736 659.609 662.829Q658.818 662.921 658.033 663.054Q657.248 663.186 656.471 663.357Q655.693 663.529 654.925 663.739Q654.157 663.95 653.401 664.198Q652.645 664.447 651.902 664.734Q651.159 665.02 650.432 665.344Q649.704 665.667 648.994 666.027C640.924 670.073 636.594 676.716 633.902 684.996C626.583 684.859 619.251 684.943 611.931 684.94L611.976 633.778L612.014 620.119Z"/>
	<path fill="#965014" d="M612.014 620.119C657.584 620.597 703.206 620.113 748.782 620.119C766.955 620.121 785.279 619.627 803.435 620.188L803.396 623.747C803.224 627.1 803.173 630.425 803.199 633.782L679.786 633.888C657.21 633.846 634.54 633.31 611.976 633.778L612.014 620.119Z"/>
	<path fill="#F6CB56" d="M732.543 545.541C756.087 545.541 779.699 545.151 803.234 545.56L803.435 620.188C785.279 619.627 766.955 620.121 748.782 620.119C703.206 620.113 657.584 620.597 612.014 620.119C612.195 607.015 611.48 593.755 612.093 580.675C612.595 569.983 616.888 561.816 624.701 554.64C629.387 551.395 634.452 548.076 640.064 546.728C650.487 544.224 665.21 545.545 676.001 545.56L732.543 545.541Z"/>
	<path fill="#EBA933" d="M749.162 280.463L895.611 280.607Q895.704 329.613 895.19 378.616L748.905 378.568Q748.787 329.514 749.162 280.463Z"/>
	<path fill="#FEFEFE" d="M796.985 290.548L811.919 290.599L811.789 368.247C806.893 368.106 801.973 368.177 797.074 368.153L796.985 290.548Z"/>
	<path fill="#FEFEFE" d="M763.901 290.498L778.997 290.542Q779.105 329.193 778.798 367.842C773.873 367.61 768.935 367.772 764.008 367.856L763.901 290.498Z"/>
	<path fill="#FEFEFE" d="M829.939 290.599L845.03 290.618L845.054 368.401L830.003 368.397L829.939 290.599Z"/>
	<path fill="#FEFEFE" d="M862.911 290.709L878.062 290.731L878.013 368.5L863.017 368.48L862.911 290.709Z"/>
	<path fill="#EBA933" d="M843.276 386.239Q869.169 385.987 895.063 386.16L895.073 490.947L800.75 490.899L748.806 490.866C748.41 477.894 748.752 464.822 748.818 451.841L749.028 386.427Q796.153 386.622 843.276 386.239Z"/>
	<path fill="#FEFEFE" d="M797.003 393.482L811.998 393.495L811.949 476.368L797.023 476.325L797.003 393.482Z"/>
	<path fill="#FEFEFE" d="M863.009 393.444L878.024 393.449L878.006 476.423L863.3 476.441Q862.843 434.943 863.009 393.444Z"/>
	<path fill="#FEFEFE" d="M829.691 393.041L845.042 393.043L844.987 476.471L829.979 476.443L829.691 393.041Z"/>
	<path fill="#FEFEFE" d="M763.835 393.663L779.001 393.673L779.026 448.507C779.03 457.573 779.758 467.365 778.808 476.352L763.699 476.344L763.835 393.663Z"/>
	<path fill="#0A8E5B" d="M325.975 455.413L400.421 455.328L400.493 522.094L400.56 554.063L548.673 554.166L599.152 554.145C607.418 554.153 615.838 553.828 624.086 554.206C615.195 555.16 605.788 554.561 596.828 554.543L547.704 554.472L449.539 554.464C433.294 554.453 416.989 554.779 400.751 554.445L400.985 717.012L326.034 716.73L326.196 569.177Q326.574 512.294 325.975 455.413Z"/>
	<path fill="#F6CB56" d="M120.871 427.571L204.023 427.379C204.801 452.05 204.292 476.772 204.063 501.45C203.984 509.918 205.004 522.651 203.572 530.622L195.797 530.574C194.651 567.587 195.801 604.81 195.595 641.848C194.838 650.111 195.426 658.945 195.449 667.256L195.61 716.954C170.935 717.271 146.114 716.292 121.465 717.284L121.556 620.254L121.544 589.851C121.538 583.552 121.847 576.994 121.114 570.738L121.068 555.063Q120.417 491.318 120.871 427.571Z"/>
	<path fill="#10B07D" d="M204.023 427.379L254.825 427.408C263.618 427.417 272.746 426.946 281.491 427.654C282.701 431.26 281.857 450.102 281.989 455.625C296.602 455.052 311.346 455.421 325.975 455.413Q326.574 512.294 326.196 569.177L326.034 716.73C311.144 717.012 296.193 716.707 281.298 716.701L196.031 716.769C195.985 691.906 196.784 666.665 195.595 641.848C195.801 604.81 194.651 567.587 195.797 530.574L203.572 530.622C205.004 522.651 203.984 509.918 204.063 501.45C204.292 476.772 204.801 452.05 204.023 427.379Z"/>
	<path fill="#FEFEFE" d="M246.506 567.022C248.236 566.985 250.222 566.746 251.864 567.312C252.228 573.416 251.855 579.741 251.805 585.867L251.558 620.781C248.568 622.8 245.838 624.981 243.55 627.793C238.626 633.847 236.673 641.527 237.657 649.217C238.621 656.75 243.474 663.972 249.538 668.411Q250.082 668.814 250.646 669.189Q251.209 669.564 251.791 669.909Q252.373 670.255 252.972 670.571Q253.571 670.886 254.185 671.172Q254.799 671.456 255.426 671.71Q256.054 671.964 256.694 672.185Q257.333 672.406 257.983 672.595Q258.634 672.783 259.292 672.939Q259.951 673.094 260.617 673.216Q261.283 673.338 261.954 673.426Q262.625 673.514 263.3 673.568Q263.975 673.621 264.651 673.641Q265.328 673.66 266.005 673.645Q266.682 673.63 267.357 673.581Q268.032 673.532 268.704 673.449Q269.375 673.365 270.042 673.248Q270.746 673.127 271.444 672.971Q272.142 672.816 272.83 672.625Q273.519 672.434 274.197 672.209Q274.876 671.983 275.542 671.724Q276.208 671.465 276.86 671.173Q277.512 670.88 278.149 670.555Q278.786 670.231 279.405 669.874Q280.025 669.518 280.625 669.13Q281.226 668.743 281.806 668.326Q282.387 667.909 282.945 667.463Q283.504 667.017 284.04 666.544Q284.575 666.07 285.086 665.571Q285.597 665.071 286.082 664.546Q286.567 664.021 287.026 663.473Q287.484 662.924 287.914 662.353Q288.343 661.782 288.744 661.19C292.861 655.176 294.677 648.002 293.249 640.78C291.469 631.774 286.352 626.442 278.979 621.601L278.905 567.287C280.7 567.056 282.592 567.134 284.405 567.097L284.419 573.75L284.386 617.417C286.3 619.161 288.257 620.892 290.066 622.746C296.223 629.057 299.782 638.164 299.491 646.982C299.197 655.897 295.018 664.292 288.472 670.275Q287.845 670.851 287.191 671.394Q286.536 671.938 285.855 672.447Q285.175 672.958 284.469 673.433Q283.763 673.908 283.035 674.347Q282.306 674.787 281.557 675.189Q280.807 675.591 280.038 675.955Q279.269 676.32 278.483 676.645Q277.697 676.97 276.896 677.256Q276.094 677.541 275.279 677.786Q274.465 678.031 273.639 678.235Q272.813 678.439 271.978 678.601Q271.143 678.763 270.3 678.884Q269.458 679.004 268.611 679.082Q267.764 679.16 266.914 679.195Q266.064 679.23 265.213 679.223Q264.362 679.216 263.513 679.166Q262.695 679.122 261.88 679.037Q261.066 678.952 260.256 678.828Q259.446 678.703 258.644 678.538Q257.842 678.373 257.048 678.169Q256.255 677.965 255.473 677.722Q254.691 677.479 253.921 677.198Q253.152 676.916 252.398 676.597Q251.643 676.278 250.905 675.922Q250.168 675.567 249.448 675.175Q248.729 674.783 248.03 674.356Q247.331 673.929 246.654 673.468Q245.977 673.007 245.323 672.513Q244.67 672.019 244.041 671.494Q243.413 670.968 242.811 670.412Q242.21 669.856 241.636 669.272Q241.063 668.687 240.519 668.074C234.451 661.206 230.897 651.528 231.602 642.346C232.469 631.064 238.199 623.597 246.488 616.449L246.506 567.022Z"/>
	<path fill="#00606C" d="M259.987 530.616L321.223 530.598L321.323 544.724L195.911 544.718C195.919 540.021 196.089 535.261 195.797 530.574L203.572 530.622L259.987 530.616Z"/>
	<path fill="#FEFEFE" d="M255.127 567.063L275.409 567.081C274.911 585.525 274.087 607.439 275.378 625.64C280.193 628.367 284.032 631.136 286.603 636.219Q286.844 636.689 287.06 637.17Q287.276 637.651 287.468 638.143Q287.66 638.634 287.827 639.135Q287.994 639.635 288.135 640.144Q288.276 640.652 288.391 641.167Q288.507 641.682 288.596 642.202Q288.685 642.722 288.747 643.246Q288.81 643.77 288.846 644.296Q288.882 644.823 288.892 645.35Q288.901 645.878 288.884 646.405Q288.866 646.932 288.822 647.458Q288.778 647.984 288.708 648.507Q288.637 649.03 288.541 649.549Q288.444 650.067 288.321 650.58Q288.198 651.094 288.049 651.6Q287.9 652.106 287.726 652.604C285.392 659.413 280.243 663.99 273.992 667.127C269.669 668.605 265.041 669.143 260.528 668.245C254.289 667.003 249.015 662.84 245.729 657.472Q245.416 656.969 245.128 656.451Q244.84 655.933 244.579 655.402Q244.318 654.87 244.084 654.326Q243.85 653.782 243.643 653.226Q243.437 652.671 243.259 652.106Q243.081 651.541 242.932 650.968Q242.782 650.394 242.662 649.814Q242.542 649.234 242.451 648.649Q242.36 648.063 242.299 647.474Q242.238 646.885 242.207 646.293Q242.175 645.702 242.174 645.109Q242.172 644.517 242.201 643.925Q242.229 643.333 242.287 642.744Q242.345 642.154 242.433 641.568Q242.521 640.982 242.638 640.402Q242.756 639.821 242.902 639.247C244.764 632.069 249.331 628.237 255.44 624.657Q255.477 595.859 255.127 567.063Z"/>
	<path fill="#EBA933" d="M204.023 427.379L254.825 427.408C263.618 427.417 272.746 426.946 281.491 427.654C282.701 431.26 281.857 450.102 281.989 455.625C274.65 456.104 267.192 455.847 259.846 455.595L259.987 530.616L203.572 530.622C205.004 522.651 203.984 509.918 204.063 501.45C204.292 476.772 204.801 452.05 204.023 427.379Z"/>
	<path fill="#97DADA" d="M425.951 108.085C440.004 83.2771 459.555 65.1049 487.502 57.4401Q488.62 57.1278 489.745 56.8432Q490.87 56.5587 492.002 56.3021Q493.134 56.0454 494.272 55.8169Q495.41 55.5883 496.553 55.388Q497.696 55.1877 498.844 55.0157Q499.992 54.8438 501.143 54.7002Q502.295 54.5567 503.45 54.4417Q504.605 54.3267 505.762 54.2404Q506.92 54.154 508.079 54.0963Q509.238 54.0385 510.398 54.0095Q511.558 53.9805 512.719 53.9802Q513.88 53.9799 515.04 54.0083Q516.2 54.0367 517.359 54.0938Q518.518 54.151 519.676 54.2367Q520.833 54.3225 521.988 54.4369Q523.143 54.5513 524.295 54.6942Q525.447 54.8371 526.595 55.0085Q527.742 55.1799 528.886 55.3796Q530.029 55.5793 531.167 55.8073Q532.305 56.0352 533.437 56.2913Q534.569 56.5473 535.694 56.8313Q536.82 57.1153 537.938 57.427Q539.056 57.7387 540.166 58.078Q541.276 58.4173 542.377 58.7839Q543.478 59.1506 544.57 59.5444Q545.661 59.9381 546.743 60.3588Q547.825 60.7795 548.896 61.2268Q549.967 61.6741 551.026 62.1477Q552.086 62.6214 553.133 63.1211Q554.181 63.6209 555.216 64.1464Q556.25 64.6719 557.272 65.2228Q558.293 65.7737 559.301 66.3498C576.803 76.4536 589.469 91.772 599.054 109.302C609.031 110.619 619.161 113.793 628.823 116.55Q638.561 119.363 648.161 122.616Q657.76 125.87 667.202 129.558Q676.643 133.246 685.907 137.36Q695.17 141.475 704.236 146.007Q713.303 150.539 722.153 155.48Q731.003 160.421 739.619 165.76Q748.235 171.1 756.599 176.826Q764.962 182.552 773.056 188.654Q781.878 195.43 790.377 202.605C794.424 206.052 804.75 217.009 808.334 218.447Q783.763 218.155 759.192 218.368C759.249 229.213 759.432 240.075 759.356 250.92C751.893 250.953 743.803 251.529 736.411 250.571C734.977 250.658 733.89 250.427 732.757 251.365C732.272 256.976 732.537 262.759 732.54 268.393L732.571 298.395L732.62 518.134L732.543 545.541L676.001 545.56C665.21 545.545 650.487 544.224 640.064 546.728C634.452 548.076 629.387 551.395 624.701 554.64L624.086 554.206C615.838 553.828 607.418 554.153 599.152 554.145L548.673 554.166L400.56 554.063L400.493 522.094L400.421 455.328L325.975 455.413C311.346 455.421 296.602 455.052 281.989 455.625C281.857 450.102 282.701 431.26 281.491 427.654C272.746 426.946 263.618 427.417 254.825 427.408L204.023 427.379L120.871 427.571Q120.417 491.319 121.068 555.063C114.359 555.029 80.7422 553.816 77.123 555.575L76.7961 556.833C76.7206 556.625 76.606 556.428 76.5696 556.211C76.007 552.854 76.4529 548.699 76.4562 545.243Q76.3512 531.519 76.8276 517.803C80.168 439.549 105.251 368.031 146.699 302.058Q153.151 291.89 160.165 282.101Q167.18 272.312 174.733 262.934Q182.287 253.555 190.356 244.616Q198.426 235.677 206.985 227.206C268.23 166.105 341.866 127.291 425.951 108.085Z"/>
	<path fill="#8CC751" d="M255.878 361.39C262.596 364.744 269.6 365.944 275.922 368.937C267.348 371.13 258.673 372.295 250.059 374.162C251.859 369.83 253.847 365.615 255.878 361.39Z"/>
	<path fill="#69BB47" d="M259.762 353.834C266.844 355.303 280.504 358.694 286.594 362.16C287.711 362.796 288.432 363.776 289.139 364.825Q282.587 367.063 275.922 368.937C269.6 365.944 262.596 364.744 255.878 361.39C257.043 358.752 258.252 356.294 259.762 353.834Z"/>
	<path fill="#8CC751" d="M268.356 340.246C280.522 344.226 300.051 353.031 312.132 354.059C306.548 359.106 296.36 362.661 289.139 364.825C288.432 363.776 287.711 362.796 286.594 362.16C280.504 358.694 266.844 355.303 259.762 353.834C262.122 349.034 265.298 344.62 268.356 340.246Z"/>
	<path fill="#FEFEFE" d="M241.686 401.007C255.376 409.189 267.828 419.346 281.491 427.654C272.746 426.946 263.618 427.417 254.825 427.408L204.023 427.379L120.871 427.571Q137.391 414.12 154.611 401.579C156.5 401.486 158.373 401.275 160.254 401.075L241.686 401.007Z"/>
	<path fill="#00426A" d="M474.465 323.174C475.072 323.231 474.729 323.125 475.369 323.762C475.833 329.353 475.538 335.111 475.521 340.723Q463 343.315 450.71 346.846Q448.193 347.582 445.695 348.378Q443.196 349.175 440.718 350.032Q438.24 350.889 435.783 351.806Q433.326 352.724 430.893 353.7Q428.459 354.677 426.05 355.712Q423.641 356.748 421.257 357.842Q418.874 358.936 416.518 360.087Q414.162 361.239 411.835 362.447Q409.508 363.656 407.21 364.921Q404.913 366.185 402.647 367.506Q400.382 368.826 398.149 370.201Q395.916 371.576 393.717 373.005Q391.518 374.434 389.355 375.915Q387.191 377.397 385.065 378.932Q382.938 380.466 380.849 382.051Q378.76 383.637 376.711 385.272Q374.661 386.908 372.652 388.593Q370.643 390.278 368.675 392.012Q366.707 393.745 364.782 395.526Q362.858 397.307 360.977 399.134Q359.096 400.961 357.26 402.834Q355.424 404.706 353.634 406.623Q351.844 408.539 350.101 410.499Q348.359 412.458 346.664 414.459Q344.969 416.461 343.324 418.502Q341.679 420.544 340.083 422.626Q338.488 424.707 336.944 426.826Q335.4 428.946 333.908 431.102Q332.416 433.259 330.977 435.451Q329.537 437.643 328.152 439.869Q326.766 442.096 325.435 444.355Q324.105 446.615 322.829 448.906C320.054 447.331 317.35 445.602 314.625 443.939C312.483 442.618 310.432 441.115 308.358 439.689C311.883 432.167 316.616 424.779 321.387 417.983C357.5 366.542 413.019 334.027 474.465 323.174Z"/>
	<path fill="#00426A" d="M549.475 322.814C556.406 323.634 563.639 325.625 570.354 327.536Q572.896 328.24 575.423 329Q577.949 329.76 580.458 330.576Q582.966 331.392 585.456 332.263Q587.947 333.134 590.417 334.06Q592.887 334.986 595.336 335.966Q597.786 336.946 600.213 337.98Q602.64 339.014 605.043 340.101Q607.447 341.188 609.826 342.329Q612.205 343.469 614.558 344.661Q616.911 345.854 619.237 347.098Q621.563 348.342 623.862 349.637Q626.16 350.932 628.429 352.278Q630.698 353.624 632.937 355.019Q635.176 356.415 637.383 357.859Q639.59 359.304 641.765 360.797Q643.94 362.29 646.082 363.831Q648.223 365.371 650.33 366.959Q652.437 368.546 654.508 370.18Q656.579 371.814 658.614 373.493Q660.649 375.172 662.646 376.896Q664.643 378.62 666.602 380.387Q668.56 382.154 670.479 383.964Q672.398 385.775 674.277 387.627Q676.155 389.479 677.992 391.372Q679.83 393.265 681.625 395.198Q683.42 397.132 685.171 399.104Q686.923 401.077 688.631 403.087Q690.339 405.098 692.002 407.146Q693.665 409.194 695.282 411.278Q696.899 413.362 698.47 415.482Q700.041 417.601 701.565 419.755Q703.088 421.908 704.564 424.095C709.856 431.868 714.402 440.084 718.978 448.288L713.179 451.131Q707.757 453.6 702.271 455.926C698.425 447.181 693.118 438.954 687.522 431.229C661.95 395.925 628.831 369.394 588.465 352.832C575.994 347.715 562.777 343.318 549.439 341.19L549.475 322.814Z"/>
	<path fill="#FEFEFE" d="M328.27 171.624C331.549 171.395 334.776 171.432 338.01 172.075C348.118 174.083 355.612 181.074 361.132 189.44C365.484 186.658 370.308 184.837 375.508 184.581Q376.207 184.55 376.906 184.553Q377.605 184.557 378.304 184.594Q379.002 184.632 379.698 184.704Q380.393 184.776 381.085 184.882Q381.776 184.988 382.461 185.128Q383.147 185.268 383.824 185.441Q384.502 185.614 385.17 185.821Q385.838 186.027 386.495 186.266Q387.153 186.505 387.797 186.776Q388.442 187.047 389.073 187.349Q389.703 187.652 390.318 187.985Q390.934 188.318 391.531 188.68Q392.129 189.043 392.709 189.435Q393.288 189.827 393.848 190.246Q394.407 190.666 394.945 191.113Q395.483 191.559 395.999 192.032C401.675 197.233 404.31 203.657 404.685 211.271C408.909 211.498 412.645 212.639 415.784 215.641C420.444 220.098 421.02 226.522 421.149 232.579C406.023 232.746 390.878 232.563 375.75 232.53L276.869 232.487C277.329 226.726 278.061 221.109 281.635 216.322C285.869 210.65 291.504 209.295 298.082 208.276C298.362 200.13 299.954 192.883 304.7 186.109C310.476 177.865 318.481 173.358 328.27 171.624Z"/>
	<path fill="#FEFEFE" d="M605.356 261.533C605.594 254.882 606.675 248.461 609.322 242.32Q609.725 241.368 610.174 240.437Q610.624 239.507 611.119 238.599Q611.614 237.692 612.153 236.81Q612.692 235.928 613.275 235.074Q613.857 234.22 614.481 233.396Q615.104 232.572 615.768 231.78Q616.432 230.987 617.134 230.229Q617.836 229.47 618.575 228.747Q619.314 228.025 620.088 227.339Q620.861 226.654 621.668 226.008Q622.474 225.361 623.312 224.756Q624.15 224.15 625.016 223.587Q625.883 223.023 626.776 222.504Q627.67 221.984 628.588 221.509Q629.506 221.034 630.446 220.605Q631.386 220.176 632.347 219.794C642.555 215.764 654.242 215.477 664.373 219.881C675.433 224.688 683.785 234.271 688.118 245.386C688.605 244.943 689.086 244.52 689.604 244.114Q690.228 243.62 690.876 243.157Q691.524 242.694 692.194 242.264Q692.864 241.834 693.555 241.438Q694.245 241.042 694.955 240.68Q695.664 240.319 696.391 239.993Q697.117 239.667 697.859 239.377Q698.6 239.087 699.355 238.835Q700.11 238.582 700.877 238.367Q701.644 238.153 702.42 237.976Q703.197 237.799 703.981 237.662Q704.765 237.524 705.555 237.425Q706.345 237.326 707.139 237.266Q707.933 237.207 708.729 237.186Q709.525 237.166 710.321 237.186Q711.117 237.205 711.911 237.263Q712.705 237.322 713.495 237.42C721.986 238.516 731.209 243.779 736.411 250.571C734.977 250.658 733.89 250.427 732.757 251.365C732.272 256.976 732.537 262.759 732.54 268.393L732.571 298.395L584.103 298.637Q583.823 297.664 583.596 296.677C581.814 288.824 582.589 280.456 587.084 273.597C591.415 266.988 597.811 263.253 605.356 261.533Z"/>
	<path fill="#8CC751" d="M244.524 325.953C261.303 293.893 287.167 272.051 321.816 261.22C343.059 254.58 363.729 253.469 385.777 253.698C382.505 260.731 379.828 268.013 376.576 275.054C365.168 299.754 349.764 326.876 328.264 344.029C323.86 347.542 318.161 352.003 312.787 353.854C312.633 353.907 312.474 353.945 312.318 353.99L312.132 354.059C300.051 353.031 280.522 344.226 268.356 340.246C265.298 344.62 262.122 349.034 259.762 353.834C258.252 356.294 257.043 358.752 255.878 361.39C253.847 365.615 251.859 369.83 250.059 374.162C246.743 383.061 244.369 391.923 241.686 401.007L160.254 401.075C158.459 401.058 156.483 401.231 154.82 400.502C153.673 394.597 154.323 385.704 154.412 379.508C154.626 364.733 159.96 351.245 170.658 340.919C185.47 326.622 200.56 325.734 219.936 325.763Q232.231 325.776 244.524 325.953Z"/>
	<path fill="#69BB47" d="M331.134 279.807C335.284 276.802 340.16 274.478 344.688 272.075C344.81 272.134 344.932 272.196 345.055 272.252C350.321 274.679 365.186 275.553 367.216 281.397C367.632 282.595 367.559 283.322 367.205 284.51C365.89 286.018 364.453 286.492 362.49 286.628C354.303 287.192 339.827 281.612 331.134 279.807Z"/>
	<path fill="#69BB47" d="M314.108 291.834L314.813 292.085C321.382 294.374 344.135 297.367 346.602 303.136C347.102 304.307 346.893 305.672 346.315 306.774C345.612 308.114 344.526 309.236 343.452 310.28C331.948 307.433 315.836 303.394 305.018 299.147C307.863 296.465 310.926 294.098 314.108 291.834Z"/>
	<path fill="#69BB47" d="M273.105 333.502C279.952 335.086 311.2 342.707 315.693 346.572C316.023 347.833 316.087 348.848 315.376 349.991C314.512 351.38 313.276 352.637 312.318 353.99L312.132 354.059C300.051 353.031 280.522 344.226 268.356 340.246C269.856 337.937 271.482 335.725 273.105 333.502Z"/>
	<path fill="#69BB47" d="M284.493 319.098C286.719 316.481 289.03 314.063 291.501 311.677C298.285 313.529 304.884 315.864 311.601 317.926C316.864 319.542 322.589 320.802 327.582 323.066C329.399 323.89 330.722 324.647 331.744 326.385C332.029 328.049 332.187 329.67 330.949 331.053C329.68 332.473 327.585 332.649 325.812 332.5C318.609 331.898 299.899 324.415 292.24 321.718C289.744 320.839 287.075 319.632 284.493 319.098Z"/>
	<path fill="#00426A" d="M235.765 388.363C237.966 378.732 241.889 369.011 246.103 360.087Q247.451 357.159 248.903 354.28Q250.355 351.402 251.909 348.577Q253.463 345.753 255.117 342.986Q256.771 340.219 258.523 337.512Q260.275 334.806 262.122 332.164Q263.97 329.522 265.91 326.948Q267.851 324.374 269.883 321.871Q271.914 319.368 274.034 316.939Q276.154 314.51 278.359 312.159Q280.565 309.807 282.853 307.536Q285.141 305.265 287.508 303.077Q289.876 300.889 292.32 298.788Q294.765 296.686 297.283 294.673Q299.801 292.66 302.389 290.738Q304.978 288.817 307.633 286.989Q310.289 285.161 313.008 283.429C331.143 271.901 350.707 264.376 371.37 258.789C373.607 258.184 377.157 256.295 379.362 256.787C375.704 258.996 370.405 260.41 366.369 262.061Q355.267 266.502 344.688 272.075C340.16 274.478 335.284 276.802 331.134 279.807C325.264 283.534 319.712 287.723 314.108 291.834C310.926 294.098 307.863 296.465 305.018 299.147C300.378 303.195 295.922 307.391 291.501 311.677C289.03 314.063 286.719 316.481 284.493 319.098C280.5 323.728 276.515 328.418 273.105 333.502C271.482 335.725 269.856 337.937 268.356 340.246C265.298 344.62 262.122 349.034 259.762 353.834C258.252 356.294 257.043 358.752 255.878 361.39C253.847 365.615 251.859 369.83 250.059 374.162C246.743 383.061 244.369 391.923 241.686 401.007L160.254 401.075C158.459 401.058 156.483 401.231 154.82 400.502C153.673 394.597 154.323 385.704 154.412 379.508C154.626 364.733 159.96 351.245 170.658 340.919C185.47 326.622 200.56 325.734 219.936 325.763Q232.231 325.776 244.524 325.953C234.898 346.288 233.347 366.281 235.765 388.363Z"/>
	<path fill="#8CC751" d="M568.386 412.377C594.316 429.518 620.829 445.824 646.918 462.735C675.453 481.232 703.644 500.329 732.62 518.134L732.543 545.541L676.001 545.56C665.21 545.545 650.487 544.224 640.064 546.728C634.452 548.076 629.387 551.395 624.701 554.64L624.086 554.206C615.838 553.828 607.418 554.153 599.152 554.145L548.673 554.166L400.56 554.063L400.493 522.094C413.522 514.434 426.071 506.013 438.723 497.757L485.039 467.374L568.386 412.377Z"/>
	<path fill="#69BB47" d="M564.404 467.704C574.426 466.211 586.31 468.57 595.313 473.085C607.221 479.057 612.46 488.526 616.482 500.786C612.023 501.026 607.588 501.081 603.125 501.083C595.099 500.944 587.418 499.909 579.907 496.958C567.361 492.028 555.252 482.941 549.814 470.295C554.556 468.839 559.489 468.233 564.404 467.704Z"/>
	<path fill="#00426A" d="M425.951 108.085C440.004 83.2771 459.555 65.1049 487.502 57.4401Q488.62 57.1278 489.745 56.8432Q490.87 56.5587 492.002 56.3021Q493.134 56.0454 494.272 55.8169Q495.41 55.5883 496.553 55.388Q497.696 55.1877 498.844 55.0157Q499.992 54.8438 501.143 54.7002Q502.295 54.5567 503.45 54.4417Q504.605 54.3267 505.762 54.2404Q506.92 54.154 508.079 54.0963Q509.238 54.0385 510.398 54.0095Q511.558 53.9805 512.719 53.9802Q513.88 53.9799 515.04 54.0083Q516.2 54.0367 517.359 54.0938Q518.518 54.151 519.676 54.2367Q520.833 54.3225 521.988 54.4369Q523.143 54.5513 524.295 54.6942Q525.447 54.8371 526.595 55.0085Q527.742 55.1799 528.886 55.3796Q530.029 55.5793 531.167 55.8073Q532.305 56.0352 533.437 56.2913Q534.569 56.5473 535.694 56.8313Q536.82 57.1153 537.938 57.427Q539.056 57.7387 540.166 58.078Q541.276 58.4173 542.377 58.7839Q543.478 59.1506 544.57 59.5444Q545.661 59.9381 546.743 60.3588Q547.825 60.7795 548.896 61.2268Q549.967 61.6741 551.026 62.1477Q552.086 62.6214 553.133 63.1211Q554.181 63.6209 555.216 64.1464Q556.25 64.6719 557.272 65.2228Q558.293 65.7737 559.301 66.3498C576.803 76.4536 589.469 91.772 599.054 109.302C601.46 115.38 603.695 121.62 605.254 127.973C611.123 151.883 606.772 179.214 593.977 200.211C578.509 225.595 556.201 238.929 527.783 245.76L527.844 393.796C518.04 394.072 508.185 393.91 498.374 393.952L498.367 245.77Q492.342 244.643 486.48 242.851Q480.619 241.059 474.994 238.623C450.874 228.152 432.086 209.3 422.577 184.657C412.853 159.457 415.151 132.512 425.951 108.085Z"/>
	<path fill="#FEFEFE" d="M508.461 82.2123C515.256 81.77 521.776 82.4757 528.518 83.2155L528.54 97.6104L536.607 100.014C539.09 96.8043 541.731 93.7028 544.306 90.566C554.76 96.6103 562.922 104.28 569.733 114.194C566.584 117.061 563.342 119.84 560.149 122.658C561.545 125.666 563.097 128.589 564.641 131.523C568.604 130.8 572.541 130.234 576.547 129.798C579.976 141.505 579.687 152.951 578.363 164.928C574.113 165.617 569.766 165.714 565.471 165.811C564.196 168.907 562.468 171.889 560.916 174.858L572.27 181.838Q571.078 183.875 569.766 185.836Q568.453 187.798 567.026 189.678Q565.599 191.557 564.061 193.348Q562.524 195.138 560.882 196.834Q559.24 198.529 557.5 200.123Q555.759 201.717 553.926 203.203Q552.093 204.69 550.174 206.064Q548.256 207.438 546.258 208.695C542.963 205.111 539.802 201.381 536.585 197.725C534.58 198.741 532.522 199.644 530.474 200.568Q530.75 208.356 531.124 216.14C526.745 216.952 522.4 217.52 517.97 217.967C509.89 218.164 502.423 217.49 494.484 216.165C494.583 211.06 494.726 205.78 495.472 200.728C493.044 199.82 490.693 198.644 488.336 197.563Q483.753 203.659 478.593 209.275C468.751 202.336 459.609 192.953 453.154 182.778C456.819 180.193 460.491 177.672 463.826 174.66C462.341 171.59 461.038 168.635 460.174 165.329Q453.443 165.611 446.721 166.047C445.253 152.909 445.163 143.255 447.801 130.29C451.761 130.512 455.587 130.988 459.5 131.628C461.164 128.622 462.921 125.663 464.638 122.688Q460.063 118.352 455.608 113.892C461.419 105.106 469.722 97.4956 478.497 91.7567C481.463 94.7708 484.289 97.9484 487.169 101.046L495.094 97.6018C494.939 93.0279 494.989 88.4292 494.943 83.8516C499.449 83.1135 503.911 82.5865 508.461 82.2123Z"/>
	<path fill="#F6CB56" d="M509.602 114.197C518.24 113.741 526.807 116.009 533.881 121.057C541.174 126.262 546.051 133.731 547.496 142.594C549.112 152.507 547.4 162.227 541.385 170.385C534.888 179.198 525.859 183.443 515.239 184.982C505.721 185.219 497.351 183.038 489.824 176.984C482.494 171.089 477.506 162.693 476.586 153.263Q476.502 152.385 476.462 151.504Q476.421 150.622 476.425 149.74Q476.429 148.858 476.476 147.977Q476.524 147.096 476.615 146.218Q476.707 145.341 476.841 144.469Q476.976 143.597 477.154 142.733Q477.332 141.869 477.553 141.015Q477.774 140.161 478.037 139.319Q478.3 138.477 478.605 137.649Q478.91 136.821 479.255 136.009Q479.601 135.197 479.986 134.404Q480.372 133.61 480.796 132.837Q481.221 132.064 481.683 131.312Q482.146 130.561 482.645 129.834Q483.144 129.106 483.679 128.405Q484.214 127.703 484.783 127.029C491.12 119.466 499.808 115.015 509.602 114.197Z"/>
</svg>
