<?xml version="1.0" encoding="utf-8" ?>
<svg xmlns="http://www.w3.org/2000/svg" xmlns:xlink="http://www.w3.org/1999/xlink" width="1024" height="1024">
	<path fill="#FDFDFD" d="M0 0L1024 0L1024 1024L0 1024L0 0Z"/>
	<path fill="#183756" d="M265.232 509.355C271.213 509.38 277.796 508.852 283.7 509.571C283.573 518.066 284.489 533.667 283.263 541.13C278.758 532.953 273.126 525.267 267.05 518.18C264.672 515.407 262.029 512.907 259.821 509.986L260.129 509.608L263.323 509.375L265.232 509.355Z"/>
	<path fill="#E4A947" d="M277.723 358.449C264.735 349.68 256.011 337.378 251.66 322.332C243.602 294.466 250.638 265.004 264.388 240.18C266.008 237.257 276.838 219.014 279.649 218.201L281.109 220.515C287.37 228.898 293.112 237.386 298.636 246.269C311.878 272.282 326.245 295.688 316.469 326.17C313.315 336.002 305.325 350.631 295.964 355.744C295.845 355.809 295.72 355.863 295.598 355.922C294.184 356.538 292.386 357.309 291.39 358.539C289.465 359.755 287.558 361.016 285.559 362.107L277.979 358.514C278.182 360.553 278.362 362.537 278.336 364.59L277.629 364.891L277.723 358.449Z"/>
	<path fill="#AB7227" d="M281.109 220.515C287.37 228.898 293.112 237.386 298.636 246.269C311.878 272.282 326.245 295.688 316.469 326.17C313.315 336.002 305.325 350.631 295.964 355.744C295.845 355.809 295.72 355.863 295.598 355.922C311.377 331.936 310.757 309.315 302.382 282.856C300.623 277.302 298.958 271.56 296.649 266.207C290.935 252.961 282.055 234.927 281.109 220.515Z"/>
	<path fill="#FDFDFD" d="M281.53 253.83C286.451 264.384 288.02 280.407 288.053 291.966C291.258 288.269 294.454 284.633 297.939 281.192C293.898 291.749 290.019 302.406 289.829 313.795Q296.13 308.589 302.353 303.289C298.785 311.074 295.673 319.94 290.605 326.851C290.441 330.947 289.991 335.061 289.659 339.148C294.183 334.163 299.351 329.819 304.551 325.565C299.357 334.979 291.598 350.59 285.201 358.664C275.041 345.134 271.656 339.642 264.825 324.228C269.559 327.945 274.577 331.208 279.645 334.44C277.067 326.378 272.779 319.943 268.927 312.486C266.804 308.375 265.159 304.088 263.561 299.754C268.26 303.423 272.554 307.576 277.34 311.15L277.834 311.018C278.528 304.333 270.313 287.439 268.246 279.712C271.435 283.404 274.575 287.066 277.425 291.033C279.511 278.778 279.153 266.069 281.53 253.83Z"/>
	<path fill="#327A50" d="M182.87 368.555Q189.649 369.065 196.405 369.829C228.752 373.795 255.981 385.959 276.391 412.019C277.489 413.857 278.521 415.744 279.885 417.4C284.422 425.91 288.511 433.968 290.998 443.339C290.973 447.476 289.823 451.795 289.08 455.873C287.842 462.658 286.702 469.326 286.377 476.233C286.174 477.907 286.166 480.009 285.593 481.575C277.244 481.228 268.72 480.499 260.454 479.287C242.823 475.232 225.784 466.798 213.016 453.781C189.502 429.809 182.559 401.148 182.87 368.555Z"/>
	<path fill="#96BB68" d="M199.108 387.007C215.091 389.028 230.006 393.524 243.495 402.605C268.456 419.409 279.94 444.22 285.587 472.898C268.924 466.388 252.501 463.289 237.535 452.586C215.642 436.93 203.436 413.183 199.108 387.007Z"/>
	<path fill="#183756" d="M85.1971 506.215C88.3449 508.518 137.377 589.678 143.675 599.933L104.131 599.999Q106.537 610.531 109.443 620.935Q112.35 631.34 115.751 641.593Q119.151 651.847 123.038 661.927Q126.925 672.006 131.289 681.888Q133.388 686.609 135.603 691.277Q137.818 695.945 140.147 700.556Q142.477 705.168 144.92 709.72Q147.363 714.273 149.918 718.764Q152.473 723.254 155.138 727.68Q157.803 732.106 160.577 736.465Q163.351 740.824 166.232 745.113Q169.113 749.402 172.099 753.618Q175.085 757.835 178.174 761.976Q181.264 766.117 184.455 770.181Q187.645 774.244 190.936 778.228Q194.226 782.211 197.614 786.112Q201.002 790.013 204.485 793.828Q207.969 797.644 211.545 801.373Q215.122 805.101 218.79 808.74Q222.458 812.379 226.214 815.926Q229.971 819.473 233.814 822.926Q237.657 826.379 241.585 829.736Q245.512 833.093 249.522 836.352Q253.531 839.61 257.62 842.769Q261.708 845.928 265.874 848.984Q270.039 852.041 274.279 854.993Q278.519 857.946 282.831 860.792Q287.142 863.639 291.523 866.379Q295.904 869.118 300.351 871.748Q304.798 874.378 309.309 876.897Q313.819 879.416 318.391 881.823Q322.963 884.23 327.593 886.524Q332.223 888.817 336.908 890.995Q341.593 893.172 346.33 895.234Q351.068 897.295 355.855 899.239Q360.642 901.182 365.476 903.007Q370.257 904.801 375.08 906.478Q379.903 908.154 384.766 909.712Q389.629 911.27 394.529 912.708Q399.428 914.146 404.362 915.464Q409.295 916.781 414.259 917.977Q419.223 919.173 424.216 920.247Q429.208 921.321 434.225 922.272Q439.242 923.223 444.28 924.051Q449.319 924.879 454.377 925.583Q459.434 926.287 464.507 926.867Q469.581 927.446 474.667 927.901Q479.753 928.357 484.848 928.687Q489.944 929.017 495.046 929.222Q500.148 929.427 505.254 929.507Q510.36 929.587 515.466 929.542Q520.572 929.497 525.675 929.326Q530.779 929.156 535.877 928.86Q540.974 928.565 546.063 928.144Q551.152 927.724 556.229 927.178Q561.306 926.633 566.369 925.964Q571.431 925.294 576.475 924.5Q581.519 923.707 586.543 922.79Q591.566 921.873 596.565 920.833Q601.564 919.793 606.537 918.63Q611.509 917.468 616.451 916.184Q621.394 914.9 626.303 913.496Q631.212 912.091 636.086 910.566Q640.959 909.042 645.793 907.398Q650.628 905.754 655.421 903.992Q660.213 902.231 664.961 900.352Q669.71 898.473 674.41 896.478Q679.111 894.483 683.761 892.374Q687.758 890.538 691.715 888.618Q695.672 886.698 699.588 884.696Q703.505 882.694 707.378 880.61Q711.252 878.526 715.081 876.362Q718.91 874.197 722.692 871.953Q726.475 869.709 730.21 867.386Q733.945 865.063 737.631 862.663Q741.316 860.262 744.951 857.785Q748.585 855.308 752.167 852.755Q755.749 850.203 759.276 847.576Q762.804 844.948 766.276 842.248Q769.748 839.548 773.162 836.775Q776.577 834.003 779.932 831.159Q783.288 828.316 786.583 825.403Q789.879 822.49 793.113 819.508Q796.346 816.527 799.517 813.478Q802.688 810.43 805.794 807.316Q808.9 804.202 811.94 801.023Q814.98 797.845 817.953 794.603Q820.926 791.362 823.83 788.058Q826.735 784.755 829.569 781.392Q832.404 778.029 835.168 774.607Q837.931 771.186 840.623 767.707Q843.314 764.228 845.932 760.694Q848.55 757.159 851.093 753.571Q853.636 749.982 856.104 746.341Q858.572 742.701 860.963 739.009Q863.353 735.317 865.666 731.576Q867.979 727.835 870.214 724.046Q872.448 720.257 874.602 716.423Q876.757 712.588 878.83 708.709Q880.904 704.83 882.896 700.909C892.489 682.199 900.023 662.651 907.43 643.003Q922.649 642.986 937.865 643.303C934.036 653.662 930.944 664.239 926.99 674.583Q922.65 685.76 917.716 696.687Q912.782 707.614 907.268 718.26Q901.753 728.906 895.674 739.24Q889.595 749.574 882.97 759.567Q879.917 764.162 876.753 768.681Q873.588 773.2 870.312 777.639Q867.037 782.078 863.653 786.436Q860.268 790.793 856.778 795.065Q853.287 799.337 849.693 803.522Q846.098 807.707 842.401 811.802Q838.704 815.896 834.907 819.899Q831.11 823.901 827.215 827.808Q823.32 831.716 819.331 835.526Q815.341 839.336 811.258 843.047Q807.176 846.757 803.003 850.366Q798.83 853.974 794.569 857.479Q790.308 860.984 785.962 864.382Q781.617 867.78 777.188 871.071Q772.76 874.361 768.251 877.54Q763.743 880.72 759.158 883.788Q754.572 886.856 749.913 889.809Q745.253 892.763 740.522 895.6Q735.791 898.438 730.991 901.158Q726.192 903.878 721.326 906.479Q716.461 909.08 711.533 911.56Q706.605 914.039 701.617 916.397Q696.629 918.755 691.585 920.988Q686.54 923.222 681.442 925.331Q676.344 927.439 671.196 929.422Q666.047 931.404 660.852 933.258Q655.656 935.113 650.416 936.839Q645.176 938.564 639.895 940.16Q634.614 941.756 629.295 943.221Q623.976 944.687 618.623 946.02Q613.27 947.353 607.885 948.554Q602.501 949.755 597.088 950.823Q591.696 951.869 586.281 952.783Q580.865 953.697 575.429 954.477Q569.993 955.258 564.539 955.905Q559.085 956.552 553.617 957.066Q548.149 957.579 542.67 957.958Q537.191 958.338 531.705 958.583Q526.218 958.828 520.727 958.938Q515.236 959.048 509.744 959.024Q504.252 959 498.762 958.841Q493.273 958.682 487.788 958.389Q482.304 958.096 476.829 957.668Q471.353 957.24 465.89 956.679Q460.427 956.117 454.979 955.421Q449.531 954.726 444.102 953.897Q438.673 953.069 433.265 952.107Q427.858 951.146 422.476 950.052Q417.094 948.958 411.741 947.733Q406.387 946.507 401.065 945.151Q395.743 943.795 390.456 942.309Q385.169 940.823 379.919 939.207Q374.67 937.592 369.462 935.849Q364.254 934.105 359.091 932.235Q353.927 930.364 348.811 928.368Q343.694 926.371 338.628 924.25Q333.563 922.129 328.55 919.884Q323.538 917.639 318.582 915.272Q313.626 912.905 308.73 910.417Q303.834 907.929 299 905.322Q294.166 902.715 289.397 899.991Q284.629 897.266 279.928 894.425Q275.228 891.585 270.599 888.63Q265.97 885.675 261.414 882.607Q256.912 879.559 252.485 876.403Q248.058 873.246 243.709 869.983Q239.36 866.72 235.091 863.352Q230.823 859.985 226.637 856.515Q222.452 853.044 218.352 849.473Q214.252 845.902 210.24 842.233Q206.227 838.563 202.306 834.798Q198.384 831.032 194.555 827.172Q190.726 823.312 186.991 819.36Q183.257 815.409 179.62 811.367Q175.983 807.326 172.445 803.198Q168.907 799.069 165.47 794.856Q162.033 790.643 158.7 786.348Q155.366 782.052 152.138 777.677Q148.91 773.302 145.789 768.85Q142.669 764.398 139.657 759.872Q136.645 755.345 133.744 750.746Q130.843 746.148 128.054 741.481Q125.266 736.813 122.591 732.079Q119.917 727.345 117.358 722.548Q114.8 717.751 112.358 712.893Q109.917 708.034 107.594 703.119Q105.272 698.203 103.069 693.232Q100.867 688.261 98.7853 683.238Q96.7041 678.215 94.7455 673.143Q92.7868 668.071 90.952 662.953Q89.1171 657.835 87.407 652.674Q85.6969 647.513 84.1127 642.311Q82.5285 637.11 81.0711 631.872Q79.6136 626.634 78.2838 621.362Q76.954 616.09 75.7526 610.788Q74.5512 605.485 73.4789 600.155C59.7556 599.826 45.9829 600.051 32.2538 600.052L85.1971 506.215Z"/>
	<path fill="#183756" d="M490.349 64.7163C508.746 63.326 528.138 64.0926 546.5 65.5119Q550.242 65.7884 553.978 66.1278Q557.714 66.4672 561.444 66.8694Q565.175 67.2715 568.898 67.7364Q572.62 68.2012 576.335 68.7286Q580.049 69.2559 583.755 69.8456Q587.46 70.4354 591.154 71.0873Q594.849 71.7393 598.532 72.4533Q602.216 73.1673 605.886 73.9431Q609.557 74.7189 613.214 75.5563Q616.871 76.3938 620.514 77.2926Q624.156 78.1914 627.783 79.1513Q631.41 80.1112 635.02 81.132Q638.631 82.1527 642.223 83.234Q645.816 84.3154 649.39 85.4569Q652.964 86.5985 656.518 87.8Q660.072 89.0015 663.606 90.2626Q667.139 91.5237 670.651 92.844Q674.163 94.1644 677.652 95.5436Q681.141 96.9228 684.606 98.3604Q688.072 99.7981 691.512 101.294Q694.953 102.79 698.368 104.343Q701.783 105.896 705.172 107.507Q708.56 109.117 711.921 110.785Q715.282 112.452 718.615 114.176Q721.947 115.899 725.25 117.679Q728.553 119.458 731.826 121.293Q735.098 123.127 738.34 125.017Q741.581 126.906 744.79 128.85Q747.999 130.793 751.175 132.791Q754.351 134.788 757.493 136.839Q760.635 138.889 763.742 140.992Q766.849 143.095 769.92 145.25Q773.608 147.845 777.242 150.514Q780.876 153.183 784.456 155.925Q788.035 158.667 791.559 161.482Q795.082 164.296 798.547 167.181Q802.012 170.067 805.418 173.022Q808.824 175.977 812.169 179Q815.515 182.023 818.798 185.114Q822.081 188.205 825.301 191.362Q828.521 194.518 831.676 197.74Q834.832 200.961 837.921 204.246Q841.01 207.531 844.032 210.877Q847.054 214.224 850.007 217.632Q852.96 221.039 855.844 224.506Q858.727 227.972 861.54 231.497Q864.353 235.021 867.093 238.602Q869.834 242.183 872.501 245.818Q875.169 249.454 877.762 253.143Q880.355 256.832 882.872 260.573Q885.39 264.314 887.831 268.105Q890.272 271.896 892.636 275.736Q895 279.576 897.285 283.463Q899.57 287.35 901.776 291.283Q903.983 295.216 906.108 299.193Q908.234 303.169 910.279 307.188Q912.323 311.207 914.286 315.267Q916.249 319.326 918.128 323.425Q920.008 327.524 921.805 331.66Q923.601 335.795 925.313 339.967Q927.025 344.138 928.652 348.344Q930.279 352.549 931.82 356.787Q933.362 361.024 934.817 365.292Q936.272 369.56 937.64 373.857Q941.956 386.928 945.358 400.266Q948.761 413.605 951.234 427.146Q971.909 426.994 992.584 427.107L957.413 489.487C950.613 501.682 944.343 514.345 937.072 526.249C928.69 512.084 921.135 497.297 913.166 482.887C902.919 464.355 892.286 446.007 882.383 427.291C894.869 426.875 907.399 427.036 919.893 427.012C918.105 417.784 915.772 408.408 913.284 399.343Q912.102 394.984 910.825 390.651Q909.548 386.319 908.177 382.015Q906.806 377.712 905.341 373.439Q903.876 369.167 902.319 364.927Q900.761 360.687 899.111 356.483Q897.462 352.278 895.721 348.111Q893.98 343.943 892.148 339.814Q890.317 335.686 888.396 331.598Q886.474 327.51 884.464 323.465Q882.454 319.421 880.357 315.421Q878.259 311.421 876.075 307.467Q873.89 303.514 871.62 299.609Q869.35 295.705 866.995 291.85Q864.64 287.996 862.202 284.194Q859.763 280.392 857.243 276.644Q854.722 272.897 852.12 269.205Q849.518 265.513 846.836 261.878Q844.154 258.244 841.394 254.669Q838.634 251.094 835.796 247.58Q832.958 244.067 830.044 240.615Q827.13 237.164 824.142 233.778Q821.154 230.391 818.092 227.07Q815.03 223.75 811.897 220.496Q808.764 217.243 805.56 214.059Q802.357 210.875 799.084 207.762Q795.812 204.649 792.473 201.608Q789.133 198.566 785.729 195.599Q782.324 192.631 778.855 189.738Q775.386 186.846 771.855 184.03Q768.324 181.213 764.732 178.475Q761.14 175.736 757.489 173.077Q753.839 170.417 750.131 167.838C738.74 159.906 726.837 152.885 714.777 146.032Q699.404 137.591 683.392 130.433Q667.381 123.275 650.839 117.449Q646.046 115.768 641.213 114.205Q636.38 112.642 631.51 111.196Q626.64 109.751 621.737 108.425Q616.834 107.098 611.899 105.892Q606.965 104.685 602.003 103.599Q597.041 102.513 592.054 101.548Q587.067 100.583 582.058 99.7393Q577.049 98.896 572.021 98.1749Q566.992 97.4537 561.948 96.8552Q556.904 96.2566 551.847 95.7811Q546.79 95.3055 541.722 94.9532Q536.655 94.6008 531.58 94.372Q526.506 94.1431 521.428 94.0378Q516.349 93.9326 511.27 93.951Q506.19 93.9693 501.112 94.1114Q496.035 94.2534 490.962 94.519Q485.889 94.7845 480.825 95.1735Q475.76 95.5625 470.707 96.0747Q465.653 96.5868 460.613 97.2219Q455.573 97.8569 450.551 98.6144Q445.528 99.3719 440.525 100.251Q435.522 101.131 430.542 102.132Q425.562 103.133 420.608 104.255Q415.654 105.377 410.729 106.62Q405.803 107.862 400.91 109.224Q396.016 110.585 391.157 112.066Q386.298 113.546 381.477 115.145Q376.655 116.743 371.874 118.458Q367.093 120.174 362.355 122.005Q357.616 123.836 352.924 125.782Q348.232 127.728 343.589 129.787Q338.946 131.847 334.354 134.019Q330.161 136.006 326.013 138.084Q321.866 140.163 317.765 142.333Q313.664 144.503 309.612 146.763Q305.56 149.023 301.559 151.373Q297.558 153.722 293.611 156.159Q289.663 158.596 285.769 161.12Q281.876 163.643 278.04 166.253Q274.204 168.862 270.426 171.555Q266.648 174.249 262.931 177.025Q259.214 179.801 255.559 182.659Q251.904 185.517 248.313 188.455Q244.722 191.393 241.197 194.409Q237.672 197.426 234.215 200.52Q230.757 203.614 227.369 206.783Q223.981 209.953 220.663 213.196Q217.346 216.44 214.101 219.756Q210.857 223.073 207.686 226.46Q204.515 229.847 201.42 233.303Q198.326 236.76 195.308 240.284Q192.29 243.808 189.351 247.398Q186.412 250.988 183.553 254.642Q180.694 258.296 177.916 262.012Q175.139 265.728 172.444 269.505Q169.749 273.282 167.139 277.117Q164.528 280.953 162.003 284.845Q159.478 288.737 157.04 292.685Q154.602 296.632 152.251 300.632Q149.901 304.632 147.639 308.683Q145.378 312.734 143.206 316.834Q141.035 320.935 138.955 325.082Q136.875 329.229 134.887 333.421Q132.899 337.613 131.004 341.848C124.666 355.777 119.557 370.22 114.451 384.633L84.3244 384.684C101.877 324.461 132.61 265.606 174.459 218.635Q186.67 204.683 199.859 191.652Q213.048 178.621 227.146 166.579Q232.626 162.049 238.247 157.694Q243.868 153.339 249.624 149.165Q255.38 144.991 261.265 141.001Q267.15 137.012 273.159 133.21Q279.168 129.409 285.294 125.8Q291.421 122.191 297.658 118.779Q303.896 115.366 310.238 112.152Q316.581 108.939 323.022 105.928Q329.464 102.917 335.997 100.112Q342.531 97.3064 349.15 94.7096Q355.769 92.1128 362.467 89.7271Q369.165 87.3414 375.935 85.1691Q382.705 82.9969 389.541 81.0403Q396.377 79.0837 403.271 77.3447Q410.165 75.6057 417.111 74.0861Q424.057 72.5664 431.048 71.2677C450.757 67.6797 470.377 65.8435 490.349 64.7163Z"/>
	<path fill="#EBD8B2" d="M298.636 246.269L299.226 245.961C306.628 242.01 313.115 236.243 319.998 231.465Q337.691 219.046 356.822 208.983Q360.419 207.115 364.06 205.335Q367.701 203.554 371.384 201.862Q375.067 200.169 378.789 198.566Q382.511 196.963 386.271 195.449Q390.031 193.936 393.826 192.513Q397.621 191.091 401.45 189.76Q405.278 188.429 409.137 187.19Q412.996 185.952 416.884 184.807Q420.772 183.661 424.686 182.61Q428.6 181.558 432.539 180.601Q436.477 179.644 440.438 178.782Q444.398 177.92 448.378 177.154Q452.358 176.387 456.355 175.717Q460.352 175.046 464.364 174.472Q468.376 173.897 472.401 173.42Q476.426 172.942 480.461 172.561Q484.496 172.181 488.539 171.897Q492.582 171.613 496.631 171.427Q500.68 171.241 504.732 171.152Q508.784 171.063 512.837 171.072Q516.89 171.081 520.941 171.187Q524.993 171.293 529.041 171.496Q533.089 171.7 537.131 172Q541.172 172.301 545.206 172.699Q549.239 173.097 553.262 173.592Q557.285 174.087 561.294 174.678Q565.304 175.269 569.298 175.957Q573.293 176.645 577.269 177.428Q581.246 178.212 585.202 179.09Q589.159 179.969 593.093 180.943Q597.028 181.917 600.937 182.985Q604.847 184.053 608.73 185.215C698.109 211.674 770.11 273.107 814.204 354.638Q816.297 358.532 818.284 362.481Q820.27 366.43 822.147 370.433Q824.025 374.435 825.792 378.487Q827.56 382.539 829.216 386.637Q830.872 390.736 832.416 394.879Q833.96 399.021 835.39 403.204Q836.82 407.387 838.135 411.608Q839.45 415.828 840.649 420.083Q841.849 424.338 842.931 428.624Q844.014 432.91 844.979 437.224Q845.944 441.538 846.791 445.877Q847.638 450.216 848.366 454.576Q849.095 458.936 849.703 463.315Q850.312 467.694 850.801 472.087Q851.29 476.481 851.659 480.886Q852.028 485.291 852.276 489.705C852.713 496.365 853.538 503.181 853.492 509.84L739.474 509.637L739.477 433.968C739.481 423.079 740.57 407.352 738.961 397.159C738.419 393.726 737.253 391.084 734.785 388.591C730.716 384.482 726.568 384.487 721.142 384.422C705.865 384.239 690.566 384.388 675.288 384.393C668.152 384.395 659.709 383.533 652.7 384.726C650.127 385.165 647.58 386.787 645.781 388.629C644.126 390.325 643.045 391.937 642.491 394.243C640.857 401.048 641.621 409.095 641.629 416.064L641.58 445.55L605.085 445.461C598.041 445.405 589.762 444.508 582.858 445.833C580.065 446.369 577.465 447.542 575.456 449.59C573.439 451.645 572.201 454.48 571.635 457.275C570.345 463.648 571.137 471.12 571.171 477.659L571.204 509.694L455.691 509.511C457.867 499.203 459.942 488.642 460.663 478.12C416.438 477.598 382.799 484.896 345.344 509.349C334.006 508.756 322.446 509.167 311.085 509.155C307.013 509.088 302.345 508.555 298.362 509.354L298.107 509.501C297.843 509.527 297.579 509.581 297.313 509.578C292.792 509.534 288.213 509.664 283.7 509.571C277.796 508.852 271.213 509.38 265.232 509.355L263.323 509.375C262.679 502.756 262.192 484.102 260.454 479.287C268.72 480.499 277.244 481.228 285.593 481.575C286.166 480.009 286.174 477.907 286.377 476.233C286.702 469.326 287.842 462.658 289.08 455.873C289.823 451.795 290.973 447.476 290.998 443.339C288.511 433.968 284.422 425.91 279.885 417.4C278.521 415.744 277.489 413.857 276.391 412.019C276.317 396.298 277.018 380.597 277.629 364.891L278.336 364.59C278.362 362.537 278.182 360.553 277.979 358.514L285.559 362.107C287.558 361.016 289.465 359.755 291.39 358.539C292.386 357.309 294.184 356.538 295.598 355.922C295.72 355.863 295.845 355.809 295.964 355.744C305.325 350.631 313.315 336.002 316.469 326.17C326.245 295.688 311.878 272.282 298.636 246.269Z"/>
	<path fill="#FDFDFD" d="M291.39 358.539C291.48 373.442 293.02 388.426 294.602 403.237C295.149 408.356 295.261 414.178 296.715 419.1L290.998 443.339C288.511 433.968 284.422 425.91 279.885 417.4C278.521 415.744 277.489 413.857 276.391 412.019C276.317 396.298 277.018 380.597 277.629 364.891L278.336 364.59C278.362 362.537 278.182 360.553 277.979 358.514L285.559 362.107C287.558 361.016 289.465 359.755 291.39 358.539Z"/>
	<path fill="#E4A947" d="M277.629 364.891L278.336 364.59C279.229 371.963 279.187 379.525 279.377 386.949C279.637 397.089 279.948 407.256 279.885 417.4C278.521 415.744 277.489 413.857 276.391 412.019C276.317 396.298 277.018 380.597 277.629 364.891Z"/>
	<path fill="#AB7227" d="M511.827 210.909L520.836 213.458C507.189 252.093 484.979 288.947 451.917 313.945C446.761 317.844 441.27 322.218 435.453 325.074C435.328 325.135 435.189 325.163 435.058 325.208L435.269 324.497C435.835 324.024 436.247 323.752 436.588 323.086L432.592 315.041C440.299 310.019 447.224 304.084 453.929 297.82C480.301 273.181 497.192 243.557 511.827 210.909Z"/>
	<path fill="#327A50" d="M310.381 424.032C324.738 398.709 344.058 382.296 372.444 374.55C386.975 370.584 401.16 370.529 416.075 370.747C410.656 408.128 402.445 440.349 370.337 464.361C354.245 476.395 332.77 484.425 312.573 484.625C305.28 484.909 305.94 484.011 300.479 479.694C300.358 479.598 300.231 479.512 300.107 479.421C299.488 466.415 305.792 436.27 310.381 424.032Z"/>
	<path fill="#96BB68" d="M392.944 386.72C393.257 386.93 393.234 386.85 393.362 387.295C394.869 392.566 388.067 411.983 385.648 417.177C371.087 448.45 344.727 461.669 313.96 472.879L313.543 472.012C316.173 454.539 323.549 434.572 333.855 420.356C348.155 400.633 369.287 390.417 392.944 386.72Z"/>
	<path fill="#183756" d="M681.661 303.04C685.863 302.755 688.418 303.818 691.91 306.134C697.166 309.618 702.061 314.018 707.074 317.874Q719.982 327.627 733 337.232L755.989 354.392C761.322 358.346 767.081 362.181 771.843 366.813C773.99 368.902 775.253 370.982 775.802 373.971Q775.925 374.623 775.983 375.284Q776.04 375.945 776.031 376.608Q776.023 377.272 775.947 377.931Q775.872 378.59 775.731 379.238Q775.59 379.887 775.385 380.518Q775.18 381.149 774.912 381.756Q774.645 382.363 774.319 382.941Q773.992 383.518 773.609 384.06C771.636 386.799 768.355 388.78 765.015 389.277C762.051 389.718 759.293 388.832 756.746 387.357C750.389 383.673 741.743 375.712 735.36 370.874C718.245 357.901 700.926 345.205 684.006 331.977C670.917 342.497 657.409 352.533 644.085 362.753Q611.897 387.522 579.401 411.887Q563.255 423.8 547.236 435.881C540.939 440.642 534.571 446.17 527.791 450.207C526.305 451.092 524.889 451.694 523.174 451.966C516.079 453.09 482.95 453.217 476.157 451.987C474.535 451.693 473.078 451.016 471.774 450.008C469.215 448.03 467.895 445.089 467.53 441.924C467.107 438.262 467.17 433.567 469.697 430.61C471.254 428.786 473.04 427.809 475.355 427.286C480.706 426.078 486.844 426.727 492.301 426.804C500.54 426.92 508.851 427.147 517.078 426.677C530.094 417.284 542.661 407.196 555.481 397.531L635.801 337.034L663.277 316.054C669.138 311.572 675.053 306.328 681.661 303.04Z"/>
	<path fill="#E4A947" d="M347.866 330.201C346.863 321.317 347.198 311.73 349.122 303.007C355.586 273.692 380.908 244.932 405.845 229.086C437.662 208.868 475.069 202.721 511.827 210.909C497.192 243.557 480.301 273.181 453.929 297.82C447.224 304.084 440.299 310.019 432.592 315.041L436.588 323.086C436.247 323.752 435.835 324.024 435.269 324.497L435.058 325.208C419.559 337.413 391.692 345.896 372.009 343.66C366.041 342.981 360.391 341.274 354.661 339.547C339.602 354.849 323.248 388.176 315.239 408.387C313.372 413.098 310.625 418.973 310.381 424.032C305.792 436.27 299.488 466.415 300.107 479.421C300.231 479.512 300.358 479.598 300.479 479.694C305.94 484.011 305.28 484.909 312.573 484.625C312.286 492.816 311.379 500.97 311.085 509.155C307.013 509.088 302.345 508.555 298.362 509.354L298.107 509.501C297.843 509.527 297.579 509.581 297.313 509.578C292.792 509.534 288.213 509.664 283.7 509.571C277.796 508.852 271.213 509.38 265.232 509.355L263.323 509.375C262.679 502.756 262.192 484.102 260.454 479.287C268.72 480.499 277.244 481.228 285.593 481.575C286.166 480.009 286.174 477.907 286.377 476.233C286.702 469.326 287.842 462.658 289.08 455.873C289.823 451.795 290.973 447.476 290.998 443.339L296.715 419.1C306.172 388.123 325.198 353.402 347.866 330.201Z"/>
	<path fill="#BBC15E" d="M285.593 481.575C286.166 480.009 286.174 477.907 286.377 476.233C286.668 477.153 286.904 478.125 286.862 479.097C286.737 481.997 286.002 484.95 285.675 487.844C284.917 494.558 284.454 501.499 284.504 508.255C288.405 508.357 293.429 508.895 296.376 505.703C300.335 501.415 296.379 486.199 299.359 479.755C300.033 489.501 297.941 499.652 298.107 509.501C297.843 509.527 297.579 509.581 297.313 509.578C292.792 509.534 288.213 509.664 283.7 509.571C277.796 508.852 271.213 509.38 265.232 509.355C270.94 508.189 277.937 508.943 283.776 508.955C284.1 500.111 283.618 490.181 285.593 481.575Z"/>
	<path fill="#AB7227" d="M300.107 479.421C300.231 479.512 300.358 479.598 300.479 479.694C305.94 484.011 305.28 484.909 312.573 484.625C312.286 492.816 311.379 500.97 311.085 509.155C307.013 509.088 302.345 508.555 298.362 509.354L298.107 509.501C297.941 499.652 300.033 489.501 299.359 479.755L300.107 479.421Z"/>
	<path fill="#EBD8B2" d="M260.454 479.287C268.72 480.499 277.244 481.228 285.593 481.575C283.618 490.181 284.1 500.111 283.776 508.955C277.937 508.943 270.94 508.189 265.232 509.355L263.323 509.375C262.679 502.756 262.192 484.102 260.454 479.287Z"/>
	<path fill="#FDFDFD" d="M463.191 222.853L464.074 223.142C463.287 227.223 454.559 239.912 451.914 244.154C467.469 236.693 472.524 239.245 487.896 235.532C483.714 238.681 479.599 242.556 475.885 246.244C472.966 249.143 469.537 254.607 465.786 256.288C457.224 260.124 448.022 260.136 440.461 263.69C437.546 265.061 434.907 267.219 432.311 269.117C439.971 271.181 447.762 273.816 455.729 274.205C443.574 280.862 431.044 284.137 417.18 284.018C413.415 286.086 410.092 288.835 406.909 291.696Q419.48 295.687 432.447 298.097C419.382 303.826 406.696 307.277 392.468 308.192C388.357 311.043 384.698 314.628 380.991 317.977C386.668 318.526 399.221 319.527 403.817 322.42L403.742 323.049L401.851 323.931C385.917 330.696 370.165 332.906 353.049 334.035C357.275 326.414 365.728 317.647 368.624 311.182C370.562 306.859 370.188 301.066 371.269 296.423C374.002 284.688 379.402 274.909 385.337 264.586C385.35 274.635 386.104 284.587 385.922 294.663C390.733 288.851 395.556 283.292 401.157 278.212Q401.771 275.433 402.549 272.695Q403.327 269.958 404.266 267.271Q405.204 264.584 406.3 261.957Q407.396 259.331 408.646 256.774Q409.896 254.217 411.295 251.738Q412.694 249.26 414.238 246.868Q415.781 244.477 417.463 242.182Q419.146 239.886 420.961 237.694C421.274 246.851 420.301 255.407 419.246 264.474C422.492 261.509 425.323 257.977 428.273 254.716C439.083 242.764 449.086 231.041 463.191 222.853Z"/>
	<path fill="#183756" d="M641.58 445.55L641.629 416.064C641.621 409.095 640.857 401.048 642.491 394.243C643.045 391.937 644.126 390.325 645.781 388.629C647.58 386.787 650.127 385.165 652.7 384.726C659.709 383.533 668.152 384.395 675.288 384.393C690.566 384.388 705.865 384.239 721.142 384.422C726.568 384.487 730.716 384.482 734.785 388.591C737.253 391.084 738.419 393.726 738.961 397.159C740.57 407.352 739.481 423.079 739.477 433.968L739.474 509.637L853.492 509.84C851.948 605.51 817.138 691.171 748.171 758.117Q745.131 761.017 742.021 763.841Q738.911 766.665 735.732 769.411Q732.553 772.158 729.308 774.826Q726.063 777.493 722.753 780.08Q719.443 782.667 716.07 785.172Q712.698 787.677 709.265 790.099Q705.832 792.52 702.34 794.856Q698.849 797.192 695.301 799.442Q691.753 801.691 688.151 803.853Q684.549 806.015 680.895 808.087Q677.24 810.16 673.536 812.142Q669.832 814.124 666.081 816.014Q662.329 817.905 658.532 819.702Q654.735 821.5 650.895 823.204Q647.055 824.907 643.174 826.516Q639.294 828.125 635.375 829.638Q631.456 831.151 627.5 832.567Q623.545 833.983 619.557 835.301Q615.568 836.62 611.548 837.84Q607.528 839.06 603.479 840.18Q599.43 841.301 595.355 842.322Q591.28 843.343 587.181 844.264Q583.083 845.184 578.962 846.003Q574.842 846.823 570.703 847.541Q566.563 848.258 562.408 848.874Q558.252 849.49 554.083 850.004Q549.913 850.517 545.732 850.928Q541.552 851.339 537.362 851.647Q533.172 851.955 528.976 852.16Q524.78 852.365 520.58 852.466Q516.381 852.568 512.18 852.567Q507.979 852.565 503.779 852.46Q499.608 852.36 495.441 852.158Q491.274 851.957 487.112 851.653Q482.951 851.35 478.799 850.945Q474.646 850.541 470.505 850.035Q466.364 849.529 462.236 848.922Q458.108 848.315 453.996 847.608Q449.885 846.901 445.791 846.094Q441.698 845.286 437.626 844.38Q433.553 843.473 429.504 842.467Q425.455 841.461 421.432 840.356Q417.409 839.252 413.413 838.05Q409.418 836.847 405.453 835.548Q401.489 834.249 397.557 832.853Q393.625 831.458 389.729 829.966Q385.832 828.475 381.973 826.89Q378.114 825.304 374.295 823.625Q370.475 821.945 366.698 820.173Q362.921 818.401 359.188 816.538Q355.456 814.674 351.769 812.72Q348.083 810.766 344.446 808.723Q340.808 806.679 337.222 804.548Q333.635 802.416 330.102 800.198Q326.568 797.979 323.09 795.675Q319.611 793.372 316.19 790.984Q312.769 788.595 309.407 786.125Q306.045 783.654 302.745 781.102Q299.444 778.55 296.207 775.918Q292.97 773.286 289.797 770.576Q286.625 767.866 283.52 765.08Q280.415 762.293 277.379 759.432Q274.342 756.57 271.377 753.636Q268.411 750.701 265.518 747.695C235.021 716.154 211.665 679.449 194.313 639.285C189.473 628.084 184.638 616.324 181.505 604.521C184.973 604.044 188.554 603.718 191.974 602.997C186.217 598.886 181.041 594.064 176.165 588.951C146.467 557.811 139.428 516.956 140.46 475.653C160.967 475.282 180.77 476.598 200.566 482.384C232.695 491.773 266.916 515.087 283.332 544.97C283.95 543.479 283.655 542.609 283.263 541.13C284.489 533.667 283.573 518.066 283.7 509.571C288.213 509.664 292.792 509.534 297.313 509.578C297.579 509.581 297.843 509.527 298.107 509.501L298.362 509.354C302.345 508.555 307.013 509.088 311.085 509.155C322.446 509.167 334.006 508.756 345.344 509.349C382.799 484.896 416.438 477.598 460.663 478.12C459.942 488.642 457.867 499.203 455.691 509.511L571.204 509.694L571.171 477.659C571.137 471.12 570.345 463.648 571.635 457.275C572.201 454.48 573.439 451.645 575.456 449.59C577.465 447.542 580.065 446.369 582.858 445.833C589.762 444.508 598.041 445.405 605.085 445.461L641.58 445.55Z"/>
	<path fill="#FDFDFD" d="M379.79 648.974L425.941 649.083L425.884 757.523C410.05 752.288 394.802 745.206 379.813 737.951C379.379 708.322 379.89 678.615 379.79 648.974Z"/>
	<path fill="#96BB68" d="M452.577 605.93C467.913 605.528 483.338 605.89 498.684 605.917L498.877 770.568C483.413 770.472 467.706 767.532 452.605 764.46L452.577 605.93Z"/>
	<path fill="#FDFDFD" d="M566.351 543.74L571.072 543.728Q570.699 653.98 571.461 764.23C557.687 766.149 544.326 769.131 530.393 770.144L524.957 770.566L525.293 543.969Q545.823 543.968 566.351 543.74Z"/>
	<path fill="#96BB68" d="M596.544 470.487L641.566 470.512L642.03 737.242C637.789 739.662 633.315 741.757 628.958 743.966Q613.431 751.814 596.89 757.205C596.141 720.863 596.795 684.455 596.817 648.104L596.544 470.487Z"/>
	<path fill="#E4A947" d="M667.466 408.992L713.57 409.14L713.668 561.271C713.668 599.998 713.195 638.81 713.948 677.528C707.798 684.879 700.355 691.588 693.528 698.345C685.491 706.33 676.379 713.332 667.602 720.482C666.99 681.897 667.521 643.222 667.533 604.628L667.466 408.992Z"/>
	<path fill="#96BB68" d="M140.46 475.653C160.967 475.282 180.77 476.598 200.566 482.384C232.695 491.773 266.916 515.087 283.332 544.97C283.95 543.479 283.655 542.609 283.263 541.13C284.489 533.667 283.573 518.066 283.7 509.571C288.213 509.664 292.792 509.534 297.313 509.578C297.579 509.581 297.843 509.527 298.107 509.501L298.362 509.354C302.345 508.555 307.013 509.088 311.085 509.155C322.446 509.167 334.006 508.756 345.344 509.349C382.799 484.896 416.438 477.598 460.663 478.12C459.942 488.642 457.867 499.203 455.691 509.511C449.869 528.524 442.887 549.402 429.802 564.941C416.607 583.881 394.838 602.541 373.839 611.883C353.052 622.572 325.064 629.724 301.455 629.659C301.456 643.704 301.624 657.77 301.444 671.812C296.46 665.588 291.304 659.436 286.657 652.957L286.595 645.162C286.2 640.154 286.477 635.008 286.522 629.983C259.156 629.693 232.828 624.068 208.183 611.952C202.648 609.23 197.502 605.745 191.974 602.997C186.217 598.886 181.041 594.064 176.165 588.951C146.467 557.811 139.428 516.956 140.46 475.653Z"/>
	<path fill="#327A50" d="M140.46 475.653C160.967 475.282 180.77 476.598 200.566 482.384C232.695 491.773 266.916 515.087 283.332 544.97C285.313 550.214 283.802 583.299 285.783 594.224C281.568 584.954 277.876 575.656 272.953 566.706Q272.246 565.391 271.51 564.092Q270.775 562.793 270.01 561.511Q269.245 560.229 268.452 558.965Q267.658 557.7 266.837 556.454Q266.015 555.207 265.166 553.979Q264.317 552.752 263.441 551.543Q262.564 550.335 261.661 549.146Q260.758 547.958 259.828 546.79Q258.898 545.622 257.942 544.475Q256.987 543.328 256.006 542.203Q255.025 541.078 254.019 539.975Q253.013 538.872 251.982 537.792Q250.951 536.712 249.897 535.655Q248.843 534.599 247.765 533.566Q246.687 532.533 245.586 531.524Q244.485 530.516 243.362 529.532Q242.239 528.549 241.095 527.591Q239.95 526.633 238.784 525.701Q237.618 524.768 236.431 523.862Q235.245 522.957 234.038 522.077Q232.832 521.198 231.606 520.347Q230.38 519.495 229.135 518.671Q227.89 517.847 226.627 517.05Q225.365 516.254 224.084 515.487Q222.804 514.719 221.507 513.981Q220.209 513.242 218.896 512.532Q217.582 511.823 216.253 511.143Q214.924 510.463 213.58 509.813Q212.236 509.164 210.878 508.544Q209.52 507.924 208.148 507.335Q206.777 506.746 205.392 506.188Q204.008 505.63 202.611 505.103C189.028 500.006 175.779 497.662 161.311 497.299C163.43 529.878 177.883 561.903 202.515 583.682C225.864 604.327 256.571 616.747 287.018 622.057C286.959 629.666 287.326 637.596 286.595 645.162C286.2 640.154 286.477 635.008 286.522 629.983C259.156 629.693 232.828 624.068 208.183 611.952C202.648 609.23 197.502 605.745 191.974 602.997C186.217 598.886 181.041 594.064 176.165 588.951C146.467 557.811 139.428 516.956 140.46 475.653Z"/>
	<defs>
		<linearGradient id="gradient_0" gradientUnits="userSpaceOnUse" x1="417.85272" y1="579.94891" x2="305.70126" y2="500.53607">
			<stop offset="0" stop-color="#3E8D4B"/>
			<stop offset="1" stop-color="#0C395A"/>
		</linearGradient>
	</defs>
	<path fill="url(#gradient_0)" d="M345.344 509.349C382.799 484.896 416.438 477.598 460.663 478.12C459.942 488.642 457.867 499.203 455.691 509.511C449.869 528.524 442.887 549.402 429.802 564.941C416.607 583.881 394.838 602.541 373.839 611.883C353.052 622.572 325.064 629.724 301.455 629.659L301.376 622.795C326.249 619.041 351.57 608.581 372.654 595.015C397.933 578.749 418.968 555.783 429.751 527.425C433.389 517.857 435.693 508.005 437.856 498.025Q435.488 498.045 433.123 498.144Q430.757 498.243 428.396 498.422Q426.035 498.601 423.681 498.859Q421.328 499.117 418.984 499.454Q416.64 499.791 414.309 500.207Q411.978 500.623 409.662 501.116Q407.347 501.61 405.049 502.182Q402.751 502.753 400.474 503.402Q398.197 504.05 395.943 504.775Q393.688 505.5 391.46 506.3Q389.231 507.1 387.031 507.974Q384.831 508.849 382.661 509.797Q380.491 510.745 378.355 511.766Q376.218 512.786 374.117 513.878Q372.016 514.97 369.953 516.132Q367.89 517.293 365.867 518.524C337.963 535.696 316.565 566.511 305.797 597.145C303.651 603.251 302.231 609.553 300.735 615.842C300.098 607.83 300.29 599.574 299.968 591.522C298.868 564.083 298.435 536.813 298.362 509.354C302.345 508.555 307.013 509.088 311.085 509.155C322.446 509.167 334.006 508.756 345.344 509.349Z"/>
	<path fill="#327A50" d="M373.839 611.883C373.643 611.504 373.572 611.028 373.466 610.615C375.761 607.424 384.227 604.531 387.781 601.077C390.725 598.215 394.038 595.786 397.116 593.072C402.536 588.293 407.733 583.353 413.449 578.905C416.464 576.559 419.928 574.674 422.83 572.222C425.468 569.994 426.555 566.525 429.802 564.941C416.607 583.881 394.838 602.541 373.839 611.883Z"/>
</svg>
