<?xml version="1.0" encoding="utf-8" ?>
<svg xmlns="http://www.w3.org/2000/svg" xmlns:xlink="http://www.w3.org/1999/xlink" width="1024" height="1024">
	<path fill="#FEFEFD" d="M0 0L1024 0L1024 1024L0 1024L0 0Z"/>
	<path fill="#59A657" d="M47.366 658.461C45.7325 656.998 43.2756 655.305 42.4905 653.234C43.4156 652.08 44.3492 652.253 45.7566 652.009L49.25 655.146L48.9291 655.506L47.0497 656.073C46.9606 657.112 47.0646 657.493 47.366 658.461Z"/>
	<path fill="#0E4D5E" d="M239.012 753.776L246.651 753.507C246.555 756.243 247.319 759.221 246.251 761.793C244.921 762.852 244.051 762.524 242.385 762.501L235.209 762.468C234.98 760.049 234.329 757.158 235.214 754.853C236.541 753.647 237.259 753.888 239.012 753.776Z"/>
	<path fill="#3C9553" d="M168.265 693.814L169.109 694.71C176.835 706.12 184.234 717.663 192.8 728.474C194.668 730.832 196.534 733.66 198.736 735.672C203.504 740.035 204.133 745.774 210.852 749.392C213.944 754.225 217.319 758.567 221.323 762.678L221.031 756.826L221.631 756.304C222.596 757.642 222.019 760.599 222.269 762.403L223.839 761.616L223.292 762.176C224.278 759.325 223.534 755.297 224.256 752.132L224.358 751.699C224.333 758.219 223.848 764.56 228.962 769.536C231.561 772.063 234.803 773.683 238.064 775.169L238.497 775.936C244.079 777.956 254.511 773.654 257.474 780.531C257.972 781.688 258.078 782.964 258.201 784.205C257.7 784.382 258.039 784.317 257.213 784.108C255.21 783.603 253.051 782.935 251.07 783.898C249.877 784.477 249.272 785.5 248.897 786.726C248.063 789.452 248.953 794.223 249.197 797.079C248.223 797.229 248.645 797.328 247.744 796.704C241.383 792.297 237.474 782.882 230.607 779.565C227.307 777.504 206.779 751.223 202.192 745.79C200.099 742.974 197.658 740.549 195.195 738.06Q179.674 718.852 166.273 698.11C165.592 697.018 165.121 695.732 164.59 694.556Q166.432 694.205 168.265 693.814Z"/>
	<path fill="#3C9553" d="M45.7566 652.009C78.5255 647.458 114.596 649.805 141.853 670.603C149.206 676.213 155.664 683.263 161.012 690.789C155.809 689.438 150.585 687.079 145.525 685.225C134.72 681.269 123.943 677.24 112.996 673.692C91.9507 666.871 70.2589 662.107 49.25 655.146L45.7566 652.009Z"/>
	<path fill="#3C9553" d="M206.813 645.072L218.322 644.954L218.82 648.424C215.873 654.287 208.769 711.617 208.509 720.474C208.229 730.021 208.651 740.064 210.852 749.392C204.133 745.774 203.504 740.035 198.736 735.672C190.218 714.373 191.175 693.921 198.035 672.196C200.897 663.132 204.392 654.273 206.813 645.072Z"/>
	<path fill="#3C9553" d="M49.25 655.146C70.2589 662.107 91.9507 666.871 112.996 673.692C123.943 677.24 134.72 681.269 145.525 685.225C150.585 687.079 155.809 689.438 161.012 690.789C161.734 691.551 162.318 692.316 163.276 692.774C163.917 693.341 164.215 693.788 164.59 694.556C165.121 695.732 165.592 697.018 166.273 698.11C163.45 699.064 160.555 700.231 157.642 700.844C149.524 703.257 140.62 704.107 132.179 703.94C94.9928 703.207 71.7033 683.608 47.366 658.461C47.0646 657.493 46.9606 657.112 47.0497 656.073L48.9291 655.506L49.25 655.146Z"/>
	<path fill="#59A657" d="M49.25 655.146C70.2589 662.107 91.9507 666.871 112.996 673.692C123.943 677.24 134.72 681.269 145.525 685.225C150.585 687.079 155.809 689.438 161.012 690.789C161.734 691.551 162.318 692.316 163.276 692.774C163.917 693.341 164.215 693.788 164.59 694.556C165.121 695.732 165.592 697.018 166.273 698.11C163.45 699.064 160.555 700.231 157.642 700.844C154.307 698.121 128.554 690.158 121.792 687.496C107.315 681.798 92.9201 675.431 78.781 668.936C68.8765 664.386 59.0724 659.504 48.9291 655.506L49.25 655.146Z"/>
	<path fill="#3C9553" d="M163.276 692.774C154.865 677.443 150.625 661.038 152.932 643.503C155.613 623.128 166.878 605.418 179.909 590.046C183.354 585.982 186.883 581.513 191.119 578.251C193.546 588.766 194.759 600.073 195.405 610.84C196.992 637.291 192.795 668.486 174.667 688.95C172.874 690.948 171.044 692.848 169.109 694.71L168.265 693.814Q166.432 694.205 164.59 694.556C164.215 693.788 163.917 693.341 163.276 692.774Z"/>
	<path fill="#59A657" d="M168.265 693.814C167.856 693.125 167.45 692.457 167.16 691.706C165.5 687.409 165.687 681.769 165.748 677.248C166.101 651.063 176.946 608.978 188.483 585.744C186.664 594.262 173.744 686.745 174.667 688.95C172.874 690.948 171.044 692.848 169.109 694.71L168.265 693.814Z"/>
	<path fill="#3C9553" d="M832.988 569.038C841.648 576.177 858.37 604.229 863.405 615.07C873.271 636.317 874.282 658.945 866.222 680.936C860.73 696.182 844.009 714.586 832.052 725.319C838.05 714 849.23 705.836 855.716 692.733C854.288 691.281 852.875 689.815 851.384 688.427C847.488 684.935 844.138 681.492 841.272 677.095C837.34 671.063 834.147 664.398 832.381 657.403C826.975 635.985 828.554 590.322 832.988 569.038Z"/>
	<path fill="#59A657" d="M851.384 688.427C852.874 685.037 851.904 678.731 851.669 674.933C849.904 646.492 844.66 618.973 838.899 591.143C837.96 586.605 835.864 582.332 835.218 577.772L835.7 577.938C844.052 597.191 853.161 616.384 858.585 636.737Q861.376 647.503 863.005 658.505C863.745 663.255 864.236 676.965 865.884 680.313C865.989 680.525 866.109 680.728 866.222 680.936C860.73 696.182 844.009 714.586 832.052 725.319C838.05 714 849.23 705.836 855.716 692.733C854.288 691.281 852.875 689.815 851.384 688.427Z"/>
	<path fill="#E7C23E" d="M172.476 542.72C193.77 542.609 215.249 542.136 236.532 542.811L236.537 633.593C226.753 634.024 216.783 633.717 206.982 633.776C208.123 607.02 204.698 584.965 197.935 559.192C188.416 565.052 179.871 573.847 172.046 581.78C173.236 569.05 172.44 555.531 172.476 542.72Z"/>
	<path fill="#0E4D5E" d="M805.019 504.853C822.029 491.649 841.541 480.431 861.322 471.92C862.151 476.546 862.622 481.282 863.239 485.943C829.699 501.741 799.88 523.106 773.097 548.726C767.416 554.16 746.332 578.219 742.777 580.077C742.071 579.086 741.886 578.778 741.788 577.533C741.182 569.898 741.804 561.678 741.82 553.992Q741.913 529.442 741.74 504.893L805.019 504.853Z"/>
	<path fill="#3C9553" d="M863.15 694.417C882.291 668.616 894.734 656.614 928.017 651.559C945.294 648.935 964.041 650.122 981.279 652.648C954.341 678.903 926.457 708.273 885.734 707.614C878.803 707.502 871.789 706.786 865.033 705.19L859.74 704.087C852.41 715.353 843.637 726.741 833.13 735.164L833.016 727.265C838.219 721.736 844.236 716.962 849.451 711.383C854.397 706.091 858.532 700 863.15 694.417Z"/>
	<defs>
		<linearGradient id="gradient_0" gradientUnits="userSpaceOnUse" x1="903.41742" y1="703.32166" x2="893.65479" y2="680.26306">
			<stop offset="0" stop-color="#60954C"/>
			<stop offset="1" stop-color="#6FB160"/>
		</linearGradient>
	</defs>
	<path fill="url(#gradient_0)" d="M863.15 694.417C863.367 694.422 863.584 694.435 863.802 694.432C865.375 694.411 892.349 680.213 897.552 678.072C910.917 672.573 924.901 668.035 938.825 664.176C945.328 662.375 970.642 656.771 974.745 654.419L975.25 655.031L975.215 654.41L976.365 654.354L976.388 654.522C973.644 656.723 968.425 658.114 965.112 659.752C939.04 672.642 912.14 684.551 885.538 696.319C881.757 697.992 866.506 703.15 865.033 705.19L859.74 704.087C852.41 715.353 843.637 726.741 833.13 735.164L833.016 727.265C838.219 721.736 844.236 716.962 849.451 711.383C854.397 706.091 858.532 700 863.15 694.417Z"/>
	<path fill="#3C9553" d="M831.207 740.505C838.539 733.501 860.406 731.751 869.993 731.943C906.598 732.676 940.289 750.998 970.397 770.128C959.536 772.382 949.252 776.88 938.638 780.043C906.808 789.529 873.248 789.562 844.579 770.746C838.963 767.06 827.076 757.814 826.022 750.743C825.902 749.937 825.951 749.829 826.03 749.115C827.464 747.79 828.083 746.451 828.636 744.604C829.098 743.08 830.114 741.528 830.853 740.11L831.207 740.505Z"/>
	<path fill="#59A657" d="M830.853 740.11L831.207 740.505C838.042 743.614 846.311 744.803 853.63 746.423C871.291 750.33 888.99 753.662 906.774 756.939C925.213 760.337 943.433 764.312 961.769 768.185C953.402 768.72 944.992 768.384 936.618 768.157Q925.738 767.925 914.884 767.148Q904.029 766.371 893.227 765.051Q882.425 763.73 871.703 761.869Q860.981 760.008 850.366 757.612C845.694 756.603 841.047 755.414 836.584 753.683C833.349 752.428 829.32 749.525 826.03 749.115C827.464 747.79 828.083 746.451 828.636 744.604C829.098 743.08 830.114 741.528 830.853 740.11Z"/>
	<path fill="#E7C23E" d="M592.797 487.946C594.216 489.704 593.501 517.061 593.498 521.276C585.142 527.138 577.179 533.986 569.152 540.316L517.463 581.575C509.448 574.069 500.543 567.346 491.939 560.532Q469.306 542.556 446.239 525.139C444.309 522.368 445.487 494.675 445.537 489.718C456.107 497.156 466.226 505.551 476.469 513.441C490.494 524.244 504.793 534.751 517.757 546.83C527.696 537.034 539.571 528.766 550.563 520.169C564.486 509.28 578.182 497.91 592.797 487.946Z"/>
	<defs>
		<linearGradient id="gradient_1" gradientUnits="userSpaceOnUse" x1="272.83011" y1="775.09283" x2="311.39337" y2="626.85199">
			<stop offset="0" stop-color="#419C3D"/>
			<stop offset="1" stop-color="#148B7B"/>
		</linearGradient>
	</defs>
	<path fill="url(#gradient_1)" d="M218.322 644.954L386.074 645.012C386.043 657.714 386.256 670.47 385.932 683.165C380.311 676.804 374.699 666.145 365.476 665.58C358.433 665.148 351.224 665.416 344.162 665.404L305.25 665.365L262.28 665.356C254.063 665.359 245.749 665.117 237.545 665.523C233.413 668.283 229.916 671.831 228.831 676.847C228.101 680.221 228.259 683.902 228.268 687.337L228.374 717.911C228.391 723.266 228.742 728.887 228.223 734.209C227.624 740.343 224.53 745.326 224.358 751.699L224.256 752.132C223.534 755.297 224.278 759.325 223.292 762.176L223.839 761.616L222.269 762.403C222.019 760.599 222.596 757.642 221.631 756.304L221.031 756.826L221.323 762.678C217.319 758.567 213.944 754.225 210.852 749.392C208.651 740.064 208.229 730.021 208.509 720.474C208.769 711.617 215.873 654.287 218.82 648.424L218.322 644.954Z"/>
	<path fill="#59A657" d="M210.852 749.392C208.651 740.064 208.229 730.021 208.509 720.474C208.769 711.617 215.873 654.287 218.82 648.424C221.403 670.072 220.039 692.139 220.043 713.91C220.046 728.209 221.179 742.569 221.031 756.826L221.323 762.678C217.319 758.567 213.944 754.225 210.852 749.392Z"/>
	<path fill="#E7C23E" d="M592.886 539.423L593.241 539.745C594.36 544.248 593.497 567.47 593.484 573.788C587.661 579.674 580.03 584.776 573.567 590.057C555.037 605.196 536.092 619.815 517.837 635.285C494.527 615.091 469.789 596.576 445.788 577.224C444.441 574.822 445.093 546.394 445.077 541.668C453.431 547.09 461.012 554.073 468.844 560.237Q493.864 579.548 518.245 599.661C542.661 578.962 568.024 559.569 592.886 539.423Z"/>
	<path fill="#3C9553" d="M52.4565 770.961C64.9322 762.515 76.192 753.035 89.6309 745.911C116.098 731.882 144.394 725.783 174.091 732.236C180.932 733.722 187.696 736.187 194.387 738.249L195.195 738.06C197.658 740.549 200.099 742.974 202.192 745.79L200.448 748.191C192.473 760.161 183.803 768.837 170.789 775.415C132.908 794.564 90.4511 783.243 52.4565 770.961Z"/>
	<path fill="#59A657" d="M195.195 738.06C197.658 740.549 200.099 742.974 202.192 745.79L200.448 748.191C195.901 748.677 191.481 751.129 187.11 752.571C179.542 755.068 171.973 757.281 164.192 759.011C137.986 764.837 111.644 767.229 84.8871 768.318C76.4441 768.662 67.9506 769.215 59.5002 769.13L59.5535 768.847L60.1953 769.048L59.3608 769.056C63.4284 766.433 77.4175 764.095 82.8244 762.903C96.4169 759.905 191.33 741.738 194.874 738.979L194.387 738.249L195.195 738.06Z"/>
	<path fill="#0E4D5E" d="M150.345 325.359C151.265 330.41 150.616 336.58 150.595 341.778L150.536 374.667C145.255 374.456 140.653 374.909 136.011 377.664C130.317 381.042 126.446 386.622 124.758 392.967C122.874 400.051 124.039 408.252 127.843 414.519C131.584 420.684 136.976 424.091 143.842 425.787C131.532 474.104 126.836 525.7 137.886 574.779C135.535 570.977 133.079 567.38 130.368 563.824C120.073 550.798 107.996 539.841 94.5963 530.101C94.1978 471.059 104.276 421.198 128.408 367.32C134.739 353.184 141.766 338.257 150.345 325.359Z"/>
	<path fill="#0E4D5E" d="M330.457 149.451C339.135 144.379 348.603 140.37 357.803 136.358Q362.584 134.251 367.423 132.283Q372.262 130.315 377.156 128.487Q382.05 126.659 386.995 124.973Q391.94 123.287 396.931 121.745Q401.922 120.202 406.956 118.804Q411.989 117.406 417.061 116.153Q422.133 114.9 427.239 113.795Q432.344 112.689 437.48 111.731Q442.616 110.772 447.777 109.963Q452.938 109.153 458.12 108.492Q463.302 107.832 468.501 107.321Q473.701 106.81 478.912 106.449Q484.124 106.088 489.344 105.877Q494.564 105.667 499.788 105.607Q505.012 105.547 510.235 105.637Q515.458 105.728 520.677 105.969C514.127 118.26 507.997 130.267 503.771 143.581C494.226 143.369 484.493 144.275 475.01 145.277C438.152 149.173 403.707 159.274 369.193 172.426C368.553 165.941 367.116 159.696 362.216 154.993C354.274 147.368 340.672 149.371 330.457 149.451Z"/>
	<path fill="#3C9553" d="M877.874 643.121C879.668 606.167 892.467 577.738 920.119 552.694C939.842 534.832 961.128 524.673 985.877 515.639C970.797 562.8 954.752 616.832 907.2 641.461C902.703 643.791 897.922 645.887 893.044 647.28C885.878 650.48 883.967 648.699 877.073 654.894C877.214 651.227 876.868 646.62 877.874 643.121Z"/>
	<path fill="#59A657" d="M877.874 643.121C877.978 644.338 878.059 645.543 878.104 646.765C878.92 646.411 878.612 646.701 878.999 645.933C884.54 634.94 891.431 624.823 898.418 614.729C918.26 586.062 940.755 560.431 965.677 536.121C968.321 533.543 975.759 525.209 978.337 524.182C973.726 531.417 967.674 537.906 962.694 544.952C952.669 559.134 942.643 573.391 932.991 587.829C926.692 597.252 920.753 606.916 914.409 616.309C907.743 626.18 900.05 635.504 893.649 645.515C893.265 646.116 893.119 646.576 893.044 647.28C885.878 650.48 883.967 648.699 877.073 654.894C877.214 651.227 876.868 646.62 877.874 643.121Z"/>
	<path fill="#3C9553" d="M38.1307 515.425C44.6551 518.487 51.6739 520.636 58.2906 523.557C78.532 532.49 97.711 544.921 113.038 560.966C135.484 584.463 145.666 609.586 144.989 642.117C145.748 646.275 146.816 650.335 147.886 654.421C142.777 652.538 137.998 650.054 133.055 647.8C126.286 646.018 119.964 643.634 113.756 640.376C66.7852 615.722 52.5333 562.1 38.1307 515.425Z"/>
	<path fill="#59A657" d="M133.055 647.8C132.276 644.004 122.692 631.965 120.064 628.096C100.947 599.948 82.0192 571.737 61.7918 544.365C59.2203 540.886 44.7255 523.216 43.9 521.358C50.1532 526.47 55.8477 532.627 61.6632 538.239C84.8404 560.609 105.982 584.109 124.536 610.473Q130.716 619.118 136.191 628.226C138.929 632.705 141.504 637.494 144.657 641.685C144.766 641.83 144.878 641.973 144.989 642.117C145.748 646.275 146.816 650.335 147.886 654.421C142.777 652.538 137.998 650.054 133.055 647.8Z"/>
	<path fill="#3C9553" d="M520.677 105.969C541.284 77.2489 569.895 56.5572 605.259 50.6071Q606.831 50.3475 608.41 50.1272Q609.988 49.9069 611.572 49.726Q613.155 49.5452 614.743 49.4039Q616.33 49.2626 617.921 49.1609Q619.512 49.0592 621.104 48.9973Q622.697 48.9353 624.29 48.9131Q625.884 48.8909 627.478 48.9085Q629.071 48.926 630.664 48.9833Q632.257 49.0406 633.848 49.1377Q635.439 49.2347 637.026 49.3713Q638.614 49.508 640.198 49.6842Q641.782 49.8605 643.362 50.0762Q644.941 50.2919 646.514 50.5469Q648.087 50.8019 649.654 51.0961Q651.22 51.3903 652.779 51.7234Q654.337 52.0566 655.887 52.4285Q657.437 52.8005 658.977 53.211Q660.517 53.6214 662.046 54.0702Q663.575 54.519 665.093 55.0058Q666.611 55.4925 668.116 56.017Q669.621 56.5415 671.112 57.1034Q672.604 57.6652 674.081 58.2641Q675.557 58.863 677.019 59.4986Q678.481 60.1341 679.926 60.8059Q681.371 61.4777 682.799 62.1854Q684.227 62.893 685.637 63.6361Q687.047 64.3791 688.438 65.1571Q689.829 65.9351 691.201 66.7476Q692.572 67.56 693.922 68.4064Q695.273 69.2528 696.602 70.1327Q697.93 71.0125 699.237 71.9252Q700.544 72.8379 701.827 73.7829C730.375 94.3964 749.811 127.489 755.389 162.148C756.642 169.932 756.458 177.616 757.165 185.422C756.878 194.456 756.485 203.679 754.668 212.56C754.115 215.263 751.007 224.227 751.985 226.383L753.162 227.143C752.721 227.777 752.368 228.764 751.549 228.883C749.374 229.199 745.104 227.714 743.237 226.562C742.596 225.694 742.26 224.974 741.879 223.984C741.145 222.076 739.655 221.327 738.04 220.237Q738.486 218.737 738.894 217.226Q739.302 215.715 739.673 214.195Q740.043 212.674 740.375 211.145Q740.707 209.616 741.001 208.079Q741.294 206.542 741.549 204.998Q741.804 203.454 742.021 201.904Q742.237 200.354 742.414 198.799Q742.592 197.244 742.73 195.685Q742.869 194.127 742.968 192.565Q743.067 191.003 743.127 189.439Q743.188 187.876 743.209 186.311Q743.23 184.746 743.212 183.181Q743.193 181.616 743.136 180.053Q743.079 178.489 742.982 176.927Q742.886 175.365 742.75 173.806Q742.615 172.247 742.44 170.692Q742.265 169.136 742.052 167.586Q741.838 166.036 741.586 164.491Q741.334 162.947 741.043 161.409Q740.752 159.872 740.423 158.342Q740.094 156.812 739.726 155.291Q739.359 153.77 738.953 152.258Q738.548 150.747 738.105 149.246Q737.662 147.745 737.181 146.256Q736.701 144.766 736.183 143.289Q735.665 141.813 735.11 140.349Q734.556 138.886 733.965 137.437Q733.374 135.988 732.747 134.554Q732.119 133.12 731.457 131.703Q730.794 130.285 730.096 128.885Q729.397 127.484 728.664 126.101Q727.931 124.719 727.164 123.355Q726.463 122.078 725.73 120.819Q724.997 119.56 724.234 118.32Q723.47 117.079 722.676 115.858Q721.882 114.637 721.058 113.436Q720.234 112.234 719.381 111.054Q718.527 109.873 717.645 108.715Q716.762 107.556 715.851 106.419Q714.941 105.282 714.002 104.168Q713.063 103.054 712.097 101.964Q711.131 100.873 710.139 99.8073Q709.146 98.7412 708.127 97.7Q707.109 96.6588 706.065 95.6431Q705.02 94.6273 703.951 93.6378Q702.883 92.6482 701.789 91.6854Q700.696 90.7226 699.58 89.7871Q698.463 88.8516 697.324 87.9441Q696.184 87.0365 695.023 86.1574Q693.861 85.2783 692.678 84.4282Q691.495 83.5781 690.292 82.7576Q689.088 81.937 687.865 81.1465Q686.641 80.3559 685.399 79.5959Q684.156 78.8359 682.895 78.1068Q681.634 77.3778 680.355 76.6802Q679.076 75.9825 677.781 75.3168Q676.485 74.651 675.173 74.0175Q673.862 73.3839 672.535 72.7831Q671.208 72.1822 669.866 71.6143Q668.525 71.0465 667.17 70.512Q665.815 69.9775 664.447 69.4767Q663.079 68.9759 661.699 68.5091Q660.319 68.0423 658.928 67.6097Q657.537 67.1772 656.136 66.7792C629.11 59.0299 598.137 62.469 573.558 76.1932C546.04 91.5591 525.547 116.499 516.953 146.92C509.618 172.883 511.202 202.721 521.638 227.653Q518.296 227.751 514.956 227.919C514.951 232.755 515.167 237.699 514.872 242.521C512.623 238.99 510.955 234.562 509.332 230.705C501.08 211.094 498.089 191.593 499.173 170.428C500.004 161.318 501.398 152.427 503.771 143.581C507.997 130.267 514.127 118.26 520.677 105.969Z"/>
	<path fill="#3C9553" d="M624.663 70.0137C633.864 93.8924 648.545 98.1348 666.564 113.258C689.837 132.79 695.035 157.536 683.875 185.372C653.261 184.359 622.5 185.686 591.867 185.296C578.543 160.944 572.927 131.548 580.956 104.464Q581.454 102.796 582.027 101.152C585.059 108.912 588.334 115.937 593.826 122.319C610.191 141.338 635.868 142.206 646.336 168.351C648.748 174.378 649.792 180.769 650.805 187.147C651.412 170.091 651.111 155.494 638.827 142.272C625.241 127.649 616.923 121.141 617.524 99.5295C617.813 89.1347 620.533 79.4899 624.663 70.0137Z"/>
	<path fill="#E7C23E" d="M863.239 485.943C865.441 521.094 864.593 550.135 858.25 584.806C853.439 578.435 844.69 564.975 838.82 560.722C837.567 559.814 836.143 559.295 834.617 559.081C831.715 558.675 828.512 559.352 826.146 561.125C822.813 563.624 822.58 567.902 822.168 571.729C820.023 591.685 818.584 611.424 818.591 631.502L804.909 631.526C792.52 610.527 778.15 595.496 755.828 584.924C752.319 583.262 747.86 580.666 744.028 580.057C743.438 579.963 743.296 580.01 742.777 580.077C746.332 578.219 767.416 554.16 773.097 548.726C799.88 523.106 829.699 501.741 863.239 485.943Z"/>
	<path fill="#0E4D5E" d="M249.81 676.745C288.773 676.583 327.865 676.174 366.818 676.915C369.961 681.878 374.446 686.44 378.265 690.913C384.198 697.86 389.999 705.035 396.328 711.618C403.804 711.689 421.724 709.297 426.928 714.623C431.317 719.115 430.466 726.488 430.384 732.259Q428.08 729.914 425.498 727.88Q422.916 725.845 420.098 724.153C407.93 716.98 394.402 717.345 381.157 720.862Q379.161 721.579 377.209 722.408C366.121 727.246 359.675 735.662 355.238 746.633C346.286 747.071 337.231 746.84 328.265 746.877Q327.908 745.957 327.508 745.055Q327.108 744.153 326.666 743.271Q326.224 742.389 325.74 741.529Q325.257 740.669 324.733 739.832Q324.209 738.996 323.647 738.186Q323.084 737.375 322.484 736.592Q321.883 735.809 321.246 735.055Q320.61 734.301 319.938 733.579Q319.266 732.856 318.561 732.166Q317.856 731.476 317.119 730.82Q316.381 730.164 315.614 729.544Q314.847 728.923 314.051 728.34Q313.255 727.756 312.433 727.212Q311.61 726.667 310.763 726.161Q309.915 725.656 309.045 725.191Q308.174 724.726 307.283 724.303Q306.322 723.833 305.338 723.411Q304.355 722.988 303.352 722.615Q302.349 722.243 301.329 721.92Q300.308 721.597 299.273 721.325Q298.238 721.053 297.191 720.833Q296.144 720.613 295.087 720.445Q294.03 720.276 292.967 720.161Q291.903 720.045 290.834 719.982Q289.766 719.92 288.696 719.91Q287.626 719.9 286.557 719.943Q285.487 719.987 284.422 720.083Q283.356 720.179 282.296 720.328Q281.236 720.476 280.185 720.677Q279.134 720.879 278.095 721.131Q277.055 721.384 276.029 721.688Q275.003 721.992 273.993 722.347C262.617 726.431 255.276 734.049 250.184 744.802C246.316 744.947 242.425 744.912 238.554 744.96C238.533 736.152 237.385 682.188 239.332 678.45C242.271 676.138 246.26 676.756 249.81 676.745Z"/>
	<path fill="#FEFEFD" d="M250.458 693.394L260.554 693.381L260.573 704.931L250.465 704.875L250.458 693.394Z"/>
	<path fill="#FEFEFD" d="M301.673 693.371C305.099 693.289 308.545 693.361 311.973 693.358L311.999 705.072L301.666 705.046L301.673 693.371Z"/>
	<path fill="#FEFEFD" d="M327.093 693.466L337.96 693.458L337.806 705.295L327.099 705.247L327.093 693.466Z"/>
	<path fill="#FEFEFD" d="M275.6 693.256C279.124 693.197 282.66 693.258 286.186 693.262L286.236 705.093L275.44 705.087C275.402 701.151 275.258 697.18 275.6 693.256Z"/>
	<path fill="#FEFEFD" d="M354.421 690.027C357.971 690.044 362.322 689.726 365.48 691.59C369.953 694.229 374.53 700.887 375.803 705.837C376.22 707.456 376.218 708.683 375.327 710.157C371.144 711.704 366.716 711.79 362.293 711.838C360.071 711.862 357.666 711.457 356.074 709.757C352.733 706.188 354.379 694.931 354.421 690.027Z"/>
	<path fill="#0E4D5E" d="M362.003 756.702C363.213 746.983 367.914 738.946 375.686 732.957Q376.405 732.408 377.151 731.895Q377.896 731.382 378.666 730.905Q379.435 730.429 380.227 729.991Q381.019 729.553 381.831 729.153Q382.643 728.754 383.474 728.395Q384.304 728.036 385.151 727.718Q385.998 727.399 386.86 727.123Q387.722 726.846 388.596 726.612Q389.47 726.377 390.354 726.186Q391.239 725.994 392.131 725.846Q393.024 725.698 393.923 725.593Q394.822 725.488 395.725 725.427Q396.628 725.367 397.532 725.35Q398.437 725.333 399.342 725.361Q400.246 725.388 401.148 725.459Q402.05 725.531 402.948 725.646Q403.832 725.771 404.708 725.939Q405.584 726.108 406.451 726.319Q407.318 726.53 408.174 726.784Q409.03 727.037 409.872 727.333Q410.714 727.628 411.54 727.964Q412.367 728.301 413.176 728.677Q413.985 729.054 414.775 729.47Q415.564 729.886 416.332 730.34Q417.101 730.794 417.846 731.286Q418.591 731.777 419.31 732.304Q420.03 732.832 420.723 733.394Q421.416 733.956 422.081 734.551Q422.746 735.147 423.38 735.774Q424.015 736.402 424.618 737.06Q425.221 737.718 425.791 738.404Q426.361 739.091 426.896 739.805C431.885 746.539 434.155 754.302 435.612 762.446C431.752 762.024 429.17 761.534 425.852 764.005C424.335 765.134 423.33 766.661 423.098 768.562C422.798 771.022 423.664 773.72 425.176 775.657C424.754 776.883 424.216 778.048 423.667 779.221C419.753 787.579 413.896 793.842 405.061 796.967Q404.319 797.236 403.564 797.468Q402.81 797.7 402.044 797.893Q401.279 798.087 400.505 798.242Q399.731 798.397 398.95 798.513Q398.169 798.629 397.384 798.706Q396.598 798.783 395.81 798.82Q395.021 798.857 394.232 798.855Q393.442 798.853 392.654 798.811Q391.866 798.769 391.081 798.688Q390.296 798.607 389.515 798.486Q388.735 798.366 387.962 798.206Q387.189 798.047 386.425 797.849Q385.661 797.651 384.907 797.415Q384.154 797.179 383.414 796.905Q382.673 796.632 381.947 796.321Q381.221 796.011 380.512 795.665C370.902 790.997 365.798 783.405 362.47 773.543C361.544 774.278 360.776 774.856 359.598 775.1C354.118 776.234 327.953 775.983 321.94 775.303C321.326 775.233 321.375 775.224 320.693 775.079C316.693 785.408 311.575 793.395 301.053 797.959C292.99 801.457 283.93 801.374 275.801 798.122C267.029 794.612 260.719 788.144 257.091 779.47Q256.252 777.451 255.606 775.362C256.423 760.159 253.675 748.614 266.367 737.149C273.168 731.006 282.033 728.284 291.127 728.884Q291.943 728.939 292.756 729.035Q293.568 729.131 294.375 729.267Q295.182 729.402 295.981 729.578Q296.78 729.754 297.569 729.969Q298.358 730.183 299.136 730.437Q299.914 730.691 300.678 730.983Q301.442 731.275 302.191 731.604Q302.94 731.933 303.671 732.3Q304.403 732.666 305.115 733.068Q305.828 733.469 306.52 733.906Q307.211 734.343 307.881 734.813Q308.55 735.283 309.195 735.786Q309.84 736.289 310.46 736.823Q311.08 737.358 311.672 737.922Q312.264 738.486 312.828 739.079Q313.391 739.672 313.925 740.292C317.544 744.493 319.681 749.158 321.06 754.486Q321.385 755.691 321.69 756.901C335.123 756.857 348.572 756.942 362.003 756.702Z"/>
	<path fill="#FEFEFD" d="M391.101 753.61C393.591 753.377 396.023 753.082 398.468 753.805C402.191 754.906 405.429 757.407 407.187 760.901Q407.512 761.533 407.771 762.196Q408.03 762.858 408.22 763.543Q408.41 764.228 408.529 764.929Q408.648 765.63 408.696 766.339Q408.743 767.048 408.718 767.759Q408.693 768.469 408.595 769.173Q408.498 769.878 408.33 770.568Q408.161 771.259 407.923 771.929C406.145 776.878 402.438 779.319 397.871 781.324C395.349 781.573 392.954 781.655 390.507 780.875C386.712 779.663 383.548 777.026 381.807 773.425Q381.491 772.779 381.244 772.103Q380.998 771.427 380.824 770.729Q380.65 770.031 380.551 769.318Q380.451 768.606 380.428 767.887Q380.404 767.168 380.457 766.45Q380.509 765.733 380.637 765.025Q380.764 764.317 380.966 763.626Q381.168 762.935 381.441 762.27C383.309 757.683 386.768 755.459 391.101 753.61Z"/>
	<path fill="#FEFEFD" d="M284.595 753.591C287.44 753.317 289.997 753.15 292.752 754.051C296.501 755.278 299.691 757.835 301.451 761.395Q301.768 762.034 302.017 762.703Q302.266 763.371 302.445 764.062Q302.624 764.752 302.73 765.458Q302.837 766.163 302.87 766.876Q302.903 767.589 302.863 768.301Q302.822 769.013 302.708 769.717Q302.594 770.422 302.408 771.11Q302.222 771.799 301.966 772.465C300.135 777.125 296.709 779.365 292.372 781.324C289.75 781.569 287.301 781.794 284.721 781.072C280.807 779.976 277.546 777.559 275.57 773.98C273.768 770.719 273.359 766.667 274.571 763.135C276.243 758.263 280.141 755.642 284.595 753.591Z"/>
	<path fill="#FEFEFD" d="M320.693 775.079C319.029 772.146 318.333 769.129 318.47 765.744C318.541 764.009 318.964 762.058 320.4 760.937C322.375 759.394 356.407 760.467 361.082 761.024C361.801 761.555 362.158 761.977 362.613 762.772C364.353 765.815 363.504 770.423 362.47 773.543C361.544 774.278 360.776 774.856 359.598 775.1C354.118 776.234 327.953 775.983 321.94 775.303C321.326 775.233 321.375 775.224 320.693 775.079Z"/>
	<path fill="#E7C23E" d="M400.513 383.573L400.488 291.834L400.488 264.972C400.485 260.07 400.159 254.864 400.731 250.005C400.962 248.052 401.648 247.059 402.987 245.678C406.112 244.585 466.769 244.398 469.431 245.451C469.599 245.518 469.752 245.615 469.912 245.697C472.412 253.997 471.158 277.004 471.165 287.038C471.188 319.098 470.307 352.077 471.312 384.036C461.251 383.44 450.916 383.769 440.833 383.695L413.48 383.577L400.513 383.573Z"/>
	<path fill="#FEFEFD" d="M413.457 376.758C427.872 376.727 442.369 376.417 456.774 376.836L456.65 383.633L440.833 383.695L413.48 383.577L413.457 376.758Z"/>
	<path fill="#FEFEFD" d="M413.985 266.127Q435.476 265.959 456.966 266.146L456.958 276.575L413.945 276.553L413.985 266.127Z"/>
	<path fill="#FEFEFD" d="M413.766 288.014L457.043 288.05L457.032 298.677C442.643 298.669 428.182 298.376 413.804 298.894L413.766 288.014Z"/>
	<path fill="#FEFEFD" d="M413.488 354.982L456.759 355.003L456.782 365.919Q435.135 365.875 413.489 366.091L413.488 354.982Z"/>
	<path fill="#FEFEFD" d="M413.675 332.593L457.021 332.635L457.012 343.728Q435.332 343.556 413.651 343.612L413.675 332.593Z"/>
	<path fill="#FEFEFD" d="M413.595 310.252C428.024 309.93 442.594 310.082 457.023 310.363L456.987 321.366C442.524 321.595 428.026 321.402 413.559 321.413L413.595 310.252Z"/>
	<path fill="#E7C23E" d="M512.838 840.447L668.82 840.33L710.085 840.406C716.626 840.422 723.999 839.781 730.442 840.747C719.843 849.42 707.743 856.814 695.883 863.632Q690.678 866.614 685.38 869.425Q680.081 872.236 674.694 874.874Q669.307 877.512 663.837 879.973Q658.367 882.435 652.82 884.718Q647.273 887.001 641.655 889.102Q636.037 891.204 630.354 893.122Q624.671 895.04 618.928 896.772Q613.185 898.505 607.39 900.05Q601.594 901.596 595.751 902.952Q589.908 904.309 584.024 905.475Q578.141 906.641 572.222 907.615Q566.303 908.59 560.356 909.372Q554.409 910.154 548.44 910.742Q542.471 911.331 536.485 911.725Q530.5 912.12 524.505 912.32Q518.51 912.52 512.512 912.525L512.812 866.177C512.87 858.005 513.783 848.57 512.583 840.557L512.838 840.447Z"/>
	<path fill="#E7C23E" d="M294.542 840.463L441.958 840.409C465.427 840.439 489.14 839.752 512.583 840.557C513.783 848.57 512.87 858.005 512.812 866.177L512.512 912.525Q506.305 912.521 500.102 912.309Q493.899 912.096 487.707 911.676Q481.514 911.255 475.34 910.627Q469.165 909.999 463.015 909.164Q456.864 908.329 450.746 907.288Q444.627 906.247 438.546 905.001Q432.466 903.755 426.431 902.305Q420.396 900.856 414.413 899.205Q408.43 897.554 402.506 895.703Q396.581 893.852 390.722 891.803Q384.864 889.755 379.077 887.51Q373.29 885.266 367.582 882.829Q361.874 880.391 356.251 877.764Q350.628 875.136 345.096 872.321Q339.565 869.507 334.13 866.508Q328.696 863.509 323.366 860.329C313.393 854.294 303.983 847.289 294.542 840.463Z"/>
	<path fill="#E7C23E" d="M159.663 228.931L239.443 228.876L239.066 383.478L159.761 383.558L159.565 275.603C159.551 260.074 159.201 244.451 159.663 228.931Z"/>
	<path fill="#FEFEFD" d="M174.447 286.545L226.002 286.772L225.997 297.586Q200.227 297.483 174.459 297.773L174.447 286.545Z"/>
	<path fill="#FEFEFD" d="M174.108 333.476L226.046 333.468L226.021 344.514L174.089 344.542L174.108 333.476Z"/>
	<path fill="#FEFEFD" d="M174.448 309.956L226.031 310.066L226.03 321.394C208.841 321.621 191.627 321.456 174.435 321.484L174.448 309.956Z"/>
	<path fill="#FEFEFD" d="M174.499 262.998L226.149 262.985L226.063 274.494L174.491 274.537L174.499 262.998Z"/>
	<path fill="#FEFEFD" d="M174.338 356.168C191.573 356.122 208.918 355.815 226.143 356.339Q226.151 362.118 226.061 367.897L174.396 367.983L174.338 356.168Z"/>
	<path fill="#E7C23E" d="M591.867 185.296C622.5 185.686 653.261 184.359 683.875 185.372C696.873 185.722 709.905 185.542 722.909 185.526L722.595 225.491L733.852 225.491Q733.458 239.594 733.524 253.702C668.188 252.994 602.814 254.034 537.471 253.597L537.5 225.464L552.35 225.442C552.592 212.156 552.372 198.833 552.345 185.543C565.494 185.532 578.732 185.817 591.867 185.296Z"/>
	<path fill="#0E4D5E" d="M249.987 383.485L358.956 383.538Q379.734 383.69 400.513 383.573L413.48 383.577L440.833 383.695C450.916 383.769 461.251 383.44 471.312 384.036C482.555 384.988 493.937 384.281 505.209 384.638C491.062 392.555 476.038 399.565 461.516 406.818C456.859 409.144 449.866 413.655 444.975 414.786C437.632 416.484 428.797 415.48 421.219 415.436Q402.564 415.265 383.908 415.32L244.118 415.457C220.296 415.456 196.332 414.98 172.521 415.624L172.476 542.72C172.44 555.531 173.236 569.05 172.046 581.78C169.161 586.633 164.553 591.132 161.234 595.827C161.799 577.056 161.32 558.137 161.339 539.353L161.3 415.912C154.254 416.051 143.82 417.512 138.322 412.326C135.112 409.298 133.601 404.705 133.523 400.371C133.439 395.678 135.103 390.617 138.559 387.335C143.807 382.352 153.046 383.563 159.761 383.558L239.066 383.478L249.987 383.485Z"/>
	<path fill="#59A657" d="M443.605 766.107Q465.948 765.942 488.291 766.003C496.499 765.997 504.788 766.245 512.975 765.653C512.731 775.917 511.123 836.074 512.838 840.447L512.583 840.557C489.14 839.752 465.427 840.439 441.958 840.409L294.542 840.463C289.769 837.799 285.42 833.336 281.275 829.763C263.327 814.29 245.652 797.94 230.607 779.565C237.474 782.882 241.383 792.297 247.744 796.704C248.645 797.328 248.223 797.229 249.197 797.079C248.953 794.223 248.063 789.452 248.897 786.726C249.272 785.5 249.877 784.477 251.07 783.898C253.051 782.935 255.21 783.603 257.213 784.108C258.039 784.317 257.7 784.382 258.201 784.205C258.078 782.964 257.972 781.688 257.474 780.531C254.511 773.654 244.079 777.956 238.497 775.936L238.064 775.169C243.991 775.834 249.671 776.12 255.606 775.362Q256.252 777.451 257.091 779.47C260.719 788.144 267.029 794.612 275.801 798.122C283.93 801.374 292.99 801.457 301.053 797.959C311.575 793.395 316.693 785.408 320.693 775.079C321.375 775.224 321.326 775.233 321.94 775.303C327.953 775.983 354.118 776.234 359.598 775.1C360.776 774.856 361.544 774.278 362.47 773.543C365.798 783.405 370.902 790.997 380.512 795.665Q381.221 796.011 381.947 796.321Q382.673 796.632 383.414 796.905Q384.154 797.179 384.907 797.415Q385.661 797.651 386.425 797.849Q387.189 798.047 387.962 798.206Q388.735 798.366 389.515 798.486Q390.296 798.607 391.081 798.688Q391.866 798.769 392.654 798.811Q393.442 798.853 394.232 798.855Q395.021 798.857 395.81 798.82Q396.598 798.783 397.384 798.706Q398.17 798.629 398.95 798.513Q399.731 798.397 400.505 798.242Q401.279 798.087 402.044 797.893Q402.81 797.7 403.564 797.468Q404.319 797.236 405.061 796.967C413.896 793.842 419.753 787.579 423.667 779.221C424.216 778.048 424.754 776.883 425.176 775.657C426.21 775.978 427.164 776.224 428.244 776.348C432.408 776.828 437.157 777.521 440.605 774.555C443.284 772.251 443.485 769.428 443.605 766.107Z"/>
	<path fill="#0E4D5E" d="M757.165 185.422C770.863 194.424 783.296 205.491 795.328 216.57Q798.316 219.339 801.25 222.166Q804.183 224.992 807.062 227.875Q809.94 230.758 812.761 233.696Q815.583 236.635 818.347 239.627Q821.111 242.62 823.816 245.666Q826.521 248.712 829.167 251.81Q831.813 254.907 834.398 258.056Q836.982 261.205 839.506 264.403Q842.029 267.601 844.49 270.848Q846.95 274.095 849.347 277.388Q851.744 280.682 854.077 284.022Q856.409 287.362 858.677 290.747Q860.944 294.131 863.145 297.559Q865.346 300.987 867.48 304.457Q869.614 307.927 871.68 311.438Q873.746 314.949 875.744 318.5Q877.742 322.05 879.67 325.639Q881.598 329.227 883.456 332.852Q885.314 336.478 887.101 340.139Q888.889 343.799 890.604 347.494Q892.32 351.189 893.964 354.916Q895.608 358.644 897.179 362.403Q898.75 366.161 900.247 369.95Q901.745 373.738 903.169 377.555Q904.592 381.372 905.942 385.216Q907.291 389.06 908.565 392.929Q909.839 396.798 911.038 400.692Q912.237 404.585 913.36 408.501Q914.483 412.417 915.53 416.354Q916.577 420.291 917.547 424.248Q918.517 428.204 919.41 432.179Q920.302 436.154 921.118 440.145C927.293 470.155 929.503 500.092 929.482 530.674C911.248 544.275 899.069 556.974 885.964 575.388C898.643 516.839 886.702 439.361 864.957 384.078C855.904 361.062 843.969 338.615 830.598 317.828Q821.212 303.283 810.605 289.603Q799.997 275.924 788.247 263.212C790.38 260.041 792.416 255.829 791.585 251.881C791.006 249.136 789.08 247.039 786.751 245.588C781.511 242.325 774.643 242.99 768.726 243.005C765.581 239.398 757.403 228.561 753.162 227.143L751.985 226.383C751.007 224.227 754.115 215.263 754.668 212.56C756.485 203.679 756.878 194.456 757.165 185.422Z"/>
	<path fill="#3C9553" d="M626.151 765.439C653.421 789.648 680.601 801.793 717.487 799.528C745.898 797.783 767.127 784.646 787.857 766.416C792.519 762.317 797.708 756.149 803.302 753.438C806.095 752.085 810.272 752.454 813.33 752.378C807.925 759.866 802.792 767.563 797.173 774.892Q791.445 782.434 785.289 789.632Q779.133 796.829 772.57 803.658Q766.007 810.486 759.06 816.923Q752.112 823.36 744.803 829.383C740.343 833.058 735.436 837.875 730.442 840.747C723.999 839.781 716.626 840.422 710.085 840.406L668.82 840.33L512.838 840.447C511.123 836.074 512.731 775.917 512.975 765.653L626.151 765.439Z"/>
	<path fill="#BBD9B3" d="M369.015 204.004C397.551 189.566 430.625 179.621 462.15 174.54C474.415 172.564 486.805 171.514 499.173 170.428C498.089 191.593 501.08 211.094 509.332 230.705C510.955 234.562 512.623 238.99 514.872 242.521C508.048 243.369 499.263 240.848 493.413 245.3C491.345 246.873 489.692 249.237 489.423 251.869C489.209 253.963 490.017 255.568 491.04 257.324C497.399 268.241 507.078 278.012 515.188 287.684C524.19 298.42 532.805 309.479 541.994 320.057L541.93 376.62C538.843 375.011 535.745 373.541 532.55 372.16C528.051 373.448 523.774 375.532 519.497 377.411C519.291 377.363 519.083 377.325 518.879 377.267C511.769 375.235 489.352 376.337 480.552 376.334L480.474 290.482C480.482 277.177 481.393 260.783 480.415 247.78C480.253 245.62 479.875 241.438 478.45 239.831C475.681 236.711 470.277 235.56 466.31 235.414C455.942 235.034 445.447 235.565 435.061 235.515C425.728 235.471 411.904 234.371 403.311 235.839C400.122 236.384 397.926 237.6 395.619 239.878C393.585 241.885 392.207 244.209 391.765 247.051C391.027 251.791 391.4 256.924 391.415 261.729Q391.468 273.194 391.404 284.659L391.338 375.648L369.456 375.722L369.3 263.297C369.249 243.564 369.677 223.72 369.015 204.004Z"/>
	<path fill="#BBD9B3" d="M772.362 284.323C777.735 288.627 783.17 296.555 787.659 301.91C798.984 315.421 808.208 329.478 817.018 344.736C838.217 381.448 852.2 420.054 859.889 461.783C845.445 468.294 831.929 475.881 818.247 483.848Q809.507 489.334 801.105 495.325Q771.344 494.839 741.58 495.032L741.768 321.77C745.221 316.935 749.407 312.423 753.207 307.842Q762.848 296.134 772.362 284.323Z"/>
	<path fill="#E7C23E" d="M249.987 383.485L249.669 236.11L249.487 191.18C249.468 184.072 248.805 176.081 249.772 169.08C250.207 165.936 252.068 162.979 254.245 160.738C256.197 158.729 258.817 156.956 261.592 156.36C267.849 155.016 277.05 155.957 283.573 155.969L332.81 156.182C340.047 156.248 349.734 154.736 355.28 160.226C356.768 161.699 357.915 163.452 358.947 165.264C359.438 175.195 358.995 185.25 358.937 195.2L358.896 242.691C358.93 289.629 359.435 336.606 358.956 383.538L249.987 383.485Z"/>
	<path fill="#FEFEFD" d="M275.002 206.025Q306.798 205.819 338.594 206.072L338.607 218.108L275.019 218.154L275.002 206.025Z"/>
	<path fill="#FEFEFD" d="M274.968 293.863L338.893 293.836L338.887 307.429C317.592 307.667 296.267 307.445 274.968 307.447L274.968 293.863Z"/>
	<path fill="#FEFEFD" d="M274.983 249.399L338.968 249.379L338.92 263.014L275.01 263.063L274.983 249.399Z"/>
	<path fill="#FEFEFD" d="M302.814 338.245C314.869 338.207 326.967 337.95 339.015 338.34L338.99 352.2L312.25 352.357L275.028 352.429L275.013 338.43L302.814 338.245Z"/>
	<path fill="#0E4D5E" d="M236.565 493.7Q260.119 469.772 284.237 446.412C290.746 440.087 296.93 433.17 303.758 427.209C305.547 425.647 307.692 423.854 309.958 423.117C316.104 427.07 323.558 435.457 328.984 440.709C344.989 456.202 361.408 471.817 376.419 488.256L376.457 633.622L236.537 633.593L236.532 542.811C236.531 526.452 236.281 510.054 236.565 493.7Z"/>
	<path fill="#FEFEFD" d="M308.921 430.808C310.372 431.207 311.729 432.696 312.824 433.71C323.759 443.84 334.028 454.802 344.638 465.281C351.854 472.407 359.539 479.083 366.609 486.359C368.006 487.797 370.043 489.717 370.876 491.539C371.549 493.014 371.193 493.362 370.645 494.804C368.081 496.344 313.232 495.484 307.25 495.502L243.491 495.531C250.049 487.954 258.234 481.064 265.409 474.014L308.921 430.808Z"/>
	<path fill="#0E4D5E" d="M193.995 775.892C195.82 776.533 197.384 779.564 198.548 781.172C205.514 790.789 212.789 799.682 220.823 808.424C238.682 827.858 258.206 844.853 279.292 860.672Q283.141 863.524 287.058 866.281Q290.976 869.039 294.96 871.699Q298.944 874.359 302.992 876.92Q307.04 879.482 311.15 881.943Q315.26 884.404 319.429 886.764Q323.598 889.124 327.824 891.38Q332.049 893.637 336.329 895.789Q340.609 897.942 344.94 899.988Q349.271 902.035 353.652 903.974Q358.032 905.914 362.459 907.745Q366.885 909.577 371.355 911.299Q375.826 913.021 380.337 914.633Q384.848 916.245 389.397 917.746Q393.946 919.247 398.531 920.636Q403.116 922.024 407.733 923.3Q412.351 924.576 416.998 925.738Q421.646 926.899 426.32 927.947Q430.995 928.995 435.694 929.927Q440.393 930.859 445.113 931.676Q449.833 932.493 454.572 933.194Q459.311 933.895 464.066 934.479Q468.821 935.063 473.588 935.53Q478.356 935.997 483.134 936.347Q487.911 936.698 492.696 936.93Q497.481 937.163 502.27 937.278Q507.059 937.393 511.85 937.391Q516.64 937.389 521.429 937.269Q526.218 937.149 531.003 936.911Q535.787 936.673 540.565 936.319Q545.342 935.964 550.109 935.492Q554.876 935.019 559.631 934.43Q564.385 933.841 569.123 933.136Q573.38 932.518 577.623 931.807Q581.866 931.096 586.092 930.291Q590.318 929.487 594.526 928.591Q598.734 927.694 602.921 926.706Q607.107 925.717 611.272 924.637Q615.436 923.557 619.575 922.386Q623.715 921.215 627.828 919.953Q631.941 918.691 636.025 917.34Q640.109 915.988 644.163 914.548Q648.216 913.107 652.237 911.578Q656.258 910.049 660.245 908.432Q664.232 906.814 668.182 905.11Q672.132 903.406 676.044 901.616Q679.956 899.826 683.827 897.951Q687.699 896.075 691.529 894.115Q695.358 892.155 699.144 890.112Q702.93 888.068 706.67 885.942Q710.41 883.816 714.102 881.609Q717.795 879.401 721.438 877.114Q725.081 874.826 728.673 872.458Q732.265 870.091 735.805 867.646Q739.344 865.201 742.829 862.678Q746.314 860.156 749.743 857.558Q753.172 854.959 756.543 852.287Q759.914 849.614 763.226 846.868Q766.537 844.122 769.788 841.304Q773.039 838.486 776.227 835.598Q779.415 832.709 782.539 829.752Q785.663 826.794 788.721 823.768Q791.78 820.743 794.771 817.651Q797.762 814.559 800.685 811.403Q803.608 808.246 806.461 805.026C814.649 795.804 821.912 785.982 829.298 776.123C840.358 783.11 851.56 788.422 863.576 793.571C856.277 804.67 847.861 815.01 839.39 825.221Q831.193 834.879 822.434 844.03Q813.676 853.182 804.387 861.794Q795.098 870.407 785.312 878.45Q775.526 886.493 765.277 893.938Q760.938 897.077 756.523 900.108Q752.108 903.139 747.619 906.06Q743.13 908.98 738.571 911.789Q734.011 914.597 729.383 917.291Q724.755 919.986 720.061 922.565Q715.368 925.144 710.612 927.606Q705.856 930.068 701.041 932.412Q696.226 934.755 691.354 936.979Q686.482 939.202 681.556 941.304Q676.631 943.406 671.655 945.386Q666.679 947.365 661.655 949.221Q656.632 951.076 651.564 952.807Q646.496 954.537 641.386 956.141Q636.277 957.746 631.129 959.223Q625.982 960.7 620.799 962.05Q615.617 963.399 610.402 964.62Q605.188 965.84 599.945 966.931Q594.702 968.022 589.434 968.983Q584.165 969.944 578.875 970.774Q573.584 971.604 568.275 972.302Q562.965 973.001 557.64 973.568Q552.315 974.134 546.977 974.569Q541.639 975.004 536.293 975.306Q530.946 975.609 525.593 975.778Q520.241 975.948 514.885 975.985Q509.53 976.023 504.176 975.927Q498.821 975.832 493.471 975.603Q488.12 975.375 482.777 975.015Q477.434 974.654 472.102 974.161Q466.769 973.668 461.45 973.043Q456.132 972.418 450.83 971.662Q445.528 970.906 440.247 970.018Q435.011 969.143 429.797 968.139Q424.584 967.134 419.398 966.002Q414.211 964.869 409.054 963.608Q403.897 962.348 398.772 960.961Q393.648 959.573 388.559 958.059Q383.471 956.545 378.421 954.907Q373.371 953.267 368.364 951.504Q363.356 949.741 358.394 947.855Q353.431 945.968 348.517 943.96Q343.602 941.951 338.739 939.822Q333.876 937.693 329.067 935.444Q324.257 933.195 319.505 930.829Q314.753 928.462 310.061 925.978Q305.369 923.495 300.739 920.896Q296.11 918.297 291.546 915.585Q286.982 912.872 282.487 910.048Q277.991 907.224 273.567 904.29Q269.143 901.355 264.792 898.312Q260.442 895.27 256.168 892.12Q251.894 888.971 247.699 885.717Q243.504 882.463 239.391 879.106Q235.278 875.749 231.249 872.292Q227.22 868.835 223.278 865.279Q219.335 861.723 215.482 858.071Q211.629 854.419 207.867 850.673Q204.105 846.927 200.437 843.089Q196.769 839.251 193.197 835.324Q189.625 831.396 186.15 827.382Q182.676 823.367 179.302 819.268Q175.929 815.169 172.657 810.988Q169.386 806.807 166.218 802.546Q163.051 798.286 159.99 793.948C172.685 789.824 183.225 783.605 193.995 775.892Z"/>
	<path fill="#0E4D5E" d="M499.394 253.36L537.471 253.597C602.814 254.034 668.188 252.994 733.524 253.702C740.1 253.708 778.91 252.71 781.931 254.358C780.787 257.955 742.208 304.901 736.726 310.927C735.226 312.576 733.657 313.933 731.839 315.223L732.22 577.69C713.771 572.995 696.199 574.492 677.982 579.416C678.035 536.186 678.728 492.819 677.967 449.604C677.906 446.182 675.917 443.196 675.843 439.747C675.549 426.149 675.787 412.502 675.736 398.896L675.49 314.765C666.619 314.636 657.732 314.734 648.859 314.726C648.877 353.509 648.02 392.475 648.862 431.236C644.157 428.273 639.288 425.565 634.465 422.801C633.69 386.873 634.289 350.801 634.328 314.858Q621.033 314.762 607.738 314.868C607.487 325.583 607.826 336.379 607.835 347.106L607.746 410.122C602.579 407.912 597.63 405.246 592.694 402.571Q593.094 358.772 592.636 314.974L566.163 314.95Q565.902 352.026 566.11 389.101C561.348 386.514 556.566 383.9 551.488 381.984L551.402 316.311C533.363 295.994 516.809 274.215 499.394 253.36Z"/>
	<path fill="#FEFEFD" d="M691.949 314.746L717.245 314.819L717.031 404.583C717.21 437.427 718.095 470.375 717.558 503.212C717.535 504.607 717.643 506.08 716.926 507.32L715.625 507.503L690.242 507.497L690.537 370.89L690.526 333.753C690.514 327.932 689.729 320.827 690.867 315.201L691.949 314.746Z"/>
	<path fill="#0E4D5E" d="M532.04 381.955Q577.558 404.21 622.764 427.092C638.467 435.007 654.833 442.259 670.02 451.093L670.196 581.605C665.18 583.465 660.37 585.447 655.644 587.966C656.36 545.98 655.605 504.003 655.549 462.016C648.601 459.002 641.964 455.292 635.214 451.865L599.707 433.884C577.401 422.564 554.603 411.998 532.725 399.864C502.245 413.769 472.623 429.529 442.379 443.921C431.697 449.004 420.965 454.996 409.81 458.949L572.072 458.724C597.034 458.716 622.031 459.28 646.987 458.883Q646.563 525.81 647.146 592.735C641.986 596.031 637.335 599.845 632.477 603.547L632.697 474.585L401.921 474.691L401.75 616.902C419.027 628.999 437.591 639.851 455.62 650.792Q486.347 669.668 517.403 687.996L583.592 648.462Q599.145 639.546 614.507 630.306C617.951 628.24 621.703 626.385 625.019 624.142C628.217 621.978 630.686 618.124 633.513 615.411C644.034 605.317 655.25 597.222 668.819 591.686C688.491 583.66 711.993 581.549 732.665 586.695Q733.885 587.006 735.097 587.347Q736.308 587.688 737.511 588.059Q738.714 588.429 739.908 588.829Q741.102 589.23 742.285 589.659Q743.468 590.088 744.641 590.547Q745.813 591.005 746.974 591.492Q748.135 591.979 749.283 592.495Q750.432 593.01 751.567 593.554Q752.703 594.097 753.824 594.669Q754.946 595.24 756.054 595.839Q757.161 596.438 758.253 597.064Q759.345 597.689 760.422 598.342Q761.499 598.994 762.559 599.673Q763.619 600.352 764.662 601.057Q765.705 601.761 766.731 602.491Q767.756 603.222 768.763 603.977Q769.771 604.732 770.759 605.511Q771.747 606.291 772.716 607.095Q773.685 607.899 774.634 608.726Q775.583 609.553 776.511 610.404Q777.439 611.254 778.346 612.127Q779.253 613 780.138 613.895Q781.023 614.79 781.886 615.707Q782.749 616.623 783.59 617.561Q784.43 618.498 785.246 619.456Q786.063 620.414 786.856 621.392Q787.649 622.37 788.418 623.366Q789.187 624.363 789.931 625.379Q790.675 626.394 791.393 627.428Q792.112 628.461 792.805 629.512Q793.498 630.563 794.165 631.631Q794.832 632.698 795.473 633.782C797.16 636.606 798.67 639.481 799.931 642.519C807.553 642.322 820.315 640.374 826.284 646.148C828.488 648.28 829.615 651.047 830.186 654.015C832.133 664.139 831.283 675.664 831.353 685.979C831.461 701.979 831.78 718.029 831.492 734.027C831.455 736.079 831.414 738.123 830.853 740.11C830.114 741.528 829.098 743.08 828.636 744.604C827.774 745.658 826.9 746.752 825.922 747.699C820.619 752.839 798.584 752.526 790.871 752.519C769.416 773.646 746.765 788.965 715.834 790.651C692.739 791.909 670.014 787.312 650.814 773.878C643.3 768.62 636.549 762.28 629.713 756.184C567.175 755.569 504.548 756.54 442 756.723C441.953 746.738 443.315 725.923 441.361 717.237Q441.201 716.492 440.99 715.759Q440.78 715.027 440.52 714.31Q440.26 713.593 439.952 712.896Q439.644 712.199 439.289 711.524Q438.934 710.85 438.534 710.201Q438.135 709.552 437.691 708.932Q437.248 708.311 436.764 707.723Q436.279 707.134 435.756 706.58C426.983 697.336 411.411 699.612 399.74 699.558C394.802 694.495 390.401 688.645 385.932 683.165C386.256 670.47 386.043 657.714 386.074 645.012Q386.575 549.524 386.008 454.036C422.098 437.509 457.128 418.392 492.718 400.796C505.679 394.388 518.696 387.519 532.04 381.955Z"/>
	<path fill="#FEFEFD" d="M706.577 603.712C725.955 603.255 746.05 610.577 760.809 623.042Q761.614 623.72 762.403 624.418Q763.192 625.116 763.963 625.833Q764.735 626.55 765.488 627.285Q766.242 628.021 766.978 628.774Q767.714 629.528 768.431 630.299Q769.148 631.07 769.846 631.859Q770.544 632.647 771.223 633.452Q771.902 634.257 772.561 635.079Q773.22 635.9 773.859 636.737Q774.498 637.574 775.116 638.427Q775.735 639.279 776.332 640.147Q776.929 641.014 777.506 641.895Q778.082 642.777 778.636 643.672Q779.191 644.567 779.724 645.476Q780.256 646.384 780.767 647.306Q781.277 648.227 781.765 649.16Q782.253 650.093 782.718 651.038Q783.183 651.983 783.625 652.939Q784.067 653.895 784.485 654.861Q784.904 655.828 785.299 656.804Q785.693 657.78 786.065 658.766Q786.436 659.751 786.783 660.746Q787.13 661.74 787.452 662.742Q787.775 663.745 788.073 664.755Q788.371 665.765 788.645 666.782Q788.919 667.799 789.167 668.822Q789.416 669.845 789.64 670.874Q789.864 671.904 790.063 672.938Q790.261 673.972 790.435 675.011Q790.608 676.049 790.757 677.092Q790.905 678.135 791.028 679.18Q791.151 680.226 791.248 681.275C793.143 703.927 785.861 724.914 771.182 742.143C755.872 760.114 734.641 767.583 711.699 769.409C690.204 769.492 670.241 762.951 653.777 748.919C638.151 735.602 627.032 714.025 625.586 693.502Q625.509 692.479 625.458 691.454Q625.407 690.429 625.381 689.404Q625.355 688.378 625.355 687.352Q625.354 686.326 625.379 685.301Q625.404 684.275 625.454 683.25Q625.505 682.225 625.58 681.202Q625.656 680.179 625.757 679.158Q625.858 678.137 625.984 677.119Q626.111 676.1 626.262 675.086Q626.414 674.071 626.59 673.06Q626.767 672.05 626.968 671.044Q627.17 670.038 627.396 669.037Q627.622 668.036 627.873 667.041Q628.124 666.047 628.4 665.058Q628.676 664.07 628.976 663.089Q629.276 662.108 629.6 661.134Q629.924 660.161 630.272 659.196Q630.62 658.231 630.992 657.275Q631.364 656.318 631.76 655.372Q632.156 654.425 632.574 653.489Q632.993 652.552 633.435 651.626Q633.877 650.7 634.342 649.785Q634.807 648.871 635.294 647.968Q635.781 647.065 636.291 646.174Q636.8 645.284 637.331 644.406Q637.863 643.528 638.416 642.664Q638.969 641.8 639.543 640.95Q640.117 640.099 640.712 639.264Q641.307 638.428 641.922 637.607Q642.538 636.786 643.174 635.981Q643.809 635.175 644.465 634.386Q645.12 633.597 645.795 632.824C661.874 614.317 682.448 605.429 706.577 603.712Z"/>
	<path fill="#0E4D5E" d="M670.174 647.69C678.79 647.024 687.799 648.377 695.955 651.152C695.26 655.545 694.23 659.84 693.202 664.164C687.342 662.148 681.185 660.645 674.981 660.324C671.283 660.132 665.61 660.356 662.92 663.333C661.591 664.804 661.309 666.459 661.553 668.363C662.54 676.061 675.601 678.13 681.56 680.303C685.701 681.814 689.859 683.782 693.341 686.518C697.56 689.833 700.496 694.206 700.967 699.636C701.439 705.07 700.059 712.305 696.476 716.477C691.051 722.795 681.941 724.603 674.051 725.177C664.988 725.765 656.434 723.742 647.873 721.051C648.329 716.984 649.204 712.969 649.997 708.957C655.859 710.75 661.901 712.222 668.039 712.59C672.488 712.858 678.219 712.791 681.624 709.521C683.286 707.925 684.869 705.161 684.669 702.778C684.049 695.396 667.941 691.957 662.276 689.772C659.228 688.596 656.177 687.075 653.518 685.169C649.183 682.062 646.189 677.71 645.486 672.366C644.774 666.956 646.164 660.501 649.622 656.204C654.617 649.998 662.705 648.441 670.174 647.69Z"/>
	<path fill="#0E4D5E" d="M741.225 648.154C750.801 646.649 761.039 648.376 770.103 651.471C768.667 655.479 767.463 659.599 766.161 663.654C758.805 660.995 750.959 659.631 743.17 660.965C737.079 662.007 731.711 664.861 728.188 670.046C723.557 676.863 722.937 686.866 724.461 694.771C725.554 700.435 728.221 705.694 733.19 708.881C739.501 712.929 747.89 712.8 754.95 711.099L754.984 692.693C750.219 692.665 745.427 692.932 740.663 693.08L740.725 681.775L753.75 681.838L770.763 681.888Q770.789 701.525 770.598 721.162C766.805 722.226 762.939 723.225 759.062 723.916C746.292 726.192 731.668 725.886 720.733 718.061C713.161 712.642 708.615 704.328 707.098 695.236C705.305 684.492 707.608 672.255 714.067 663.368C720.771 654.144 730.221 649.847 741.225 648.154Z"/>
</svg>
