<?xml version="1.0" encoding="utf-8" ?>
<svg xmlns="http://www.w3.org/2000/svg" xmlns:xlink="http://www.w3.org/1999/xlink" width="1024" height="1024">
	<path fill="#FEFEFE" d="M0 0L1024 0L1024 1024L0 1024L0 0Z"/>
	<path fill="#0A6B52" d="M182.883 828.977L185.009 828.959C186.806 831.783 190.058 838.107 192.967 839.745C192.689 840.777 192.778 841.163 191.94 841.875C191.764 841.803 191.581 841.749 191.413 841.661C187.775 839.732 183.805 832.753 182.883 828.977Z"/>
	<path fill="#DAD966" d="M782.633 286.193C783.831 294.329 782.382 303.719 782.419 312.022C779.945 310.727 777.79 308.04 776.092 305.867C777.982 299.461 779.619 292.142 782.633 286.193Z"/>
	<path fill="#A6D349" d="M723.483 806.468C721.797 806.533 720.272 806.508 718.6 806.271C717.667 804.573 718.052 782.976 718.471 780.417C719.972 779.71 721.892 779.94 723.533 779.956C723.533 788.712 724.018 797.746 723.483 806.468Z"/>
	<path fill="#A6D349" d="M878.371 604.775C883.644 601.911 890.537 600.212 896.218 598.007Q893.934 607.91 891.203 617.699L890.809 616.912C888.279 612.011 883.19 607.344 878.371 604.775Z"/>
	<path fill="#A6D349" d="M723.445 777.919C721.799 777.985 719.717 778.299 718.33 777.294C717.692 772.849 717.632 753.097 718.325 749.015C719.797 748.145 722.079 748.502 723.752 748.536C723.519 757.686 724.401 769.116 723.445 777.919Z"/>
	<path fill="#A6D349" d="M714.743 851.87C715.857 850.399 716.857 848.974 717.327 847.164C719.255 839.737 718.178 826.491 717.993 818.506C717.923 815.462 717.533 811.956 718.56 809.049C719.998 808.279 721.949 808.609 723.55 808.683C723.554 814.402 724.4 844.35 722.944 847.29C720.388 849.147 717.973 851.175 715.438 853.051L714.743 851.87Z"/>
	<path fill="#A6D349" d="M723.844 746.464C722.517 746.509 720.67 746.717 719.403 746.401C719.372 746.393 718.407 746.073 718.315 745.882C716.06 741.181 720.843 726.988 714.92 719.321C707.878 710.204 697.079 714.173 687.665 712.846L687.628 712.501C692.388 710.814 711.167 712.422 717.749 712.48C723.082 717.807 723.991 722.585 723.991 729.919L723.844 746.464Z"/>
	<path fill="#4FAD56" d="M889.713 584.948C892.602 583.976 895.636 583.693 898.645 583.282C897.933 588.205 897.295 593.147 896.218 598.007C890.537 600.212 883.644 601.911 878.371 604.775C873.056 603.394 867.899 602.126 862.453 601.334C873.297 597.538 881.476 593.122 889.713 584.948Z"/>
	<path fill="#DAD966" d="M649.998 748.442Q681.016 748.575 712.034 748.383L712.009 755.089L649.996 755.111L649.998 748.442Z"/>
	<path fill="#A6D349" d="M797.249 245.893L798.066 246.101C800.06 244.532 801.751 242.637 803.802 241.154C811.455 235.622 821.137 233.725 830.427 234.826C832.32 235.051 834.183 235.357 836.031 235.832C832.082 242.669 826.661 248.73 818.728 250.769C810.827 252.8 803.714 250.988 796.31 248.125L797.249 245.893Z"/>
	<path fill="#A6D349" d="M796.727 172.576C805.459 178.636 812.644 187.521 813.716 198.369C813.95 200.731 813.255 204.34 814.029 206.438C814.079 206.575 814.16 206.698 814.226 206.829C813.308 209.093 811.975 211.525 811.503 213.905L811.184 213.993C810.271 211.582 803.729 206.079 801.578 203.045C794.657 193.283 794.868 183.963 796.727 172.576Z"/>
	<path fill="#A6D349" d="M779.038 201.734C788.053 206.968 796.031 217.358 797.811 227.747C798.301 230.61 797.608 234.076 798.461 236.768C798.524 236.968 798.596 237.166 798.663 237.365C797.976 239.078 797.202 240.515 796.161 242.039C790.616 239.543 785.048 233.577 781.924 228.424C776.727 219.848 776.735 211.202 779.038 201.734Z"/>
	<path fill="#4FAD56" d="M810.475 214.807L810.937 216.193C806.695 226.264 801.232 235.656 797.249 245.893L796.31 248.125C792.953 257.173 783.095 277.945 782.633 286.193C779.619 292.142 777.982 299.461 776.092 305.867C772.655 317.892 769.457 330.922 767.778 343.31L762.209 346.433C762.387 344.058 762.896 341.747 763.355 339.413C765.92 327.174 769.034 315.176 772.3 303.112Q774.846 295.164 777.02 287.106C778.645 284.597 779.936 281.314 780.677 278.422C784.872 266.079 790.444 253.757 796.161 242.039C797.202 240.515 797.976 239.078 798.663 237.365C801.66 230.127 805.735 221.061 810.475 214.807Z"/>
	<path fill="#A6D349" d="M811.877 214.037L811.883 215.114C815.676 212.866 818.916 209.781 822.728 207.519C830.234 203.066 841.799 202.225 850.144 204.305Q853.224 205.065 856.16 206.266C847.345 215.266 838.696 221.002 825.704 221.096C820.97 221.131 814.99 220.12 811.446 216.708C811.272 216.541 811.107 216.365 810.937 216.193L810.475 214.807L811.184 213.993L811.503 213.905L811.877 214.037Z"/>
	<path fill="#A6D349" d="M767.778 343.31C769.457 330.922 772.655 317.892 776.092 305.867C777.79 308.04 779.945 310.727 782.419 312.022C787.621 318.039 792.806 324.086 797.491 330.521C787.099 334.069 777.497 338.172 767.778 343.31Z"/>
	<path fill="#209160" d="M814.226 206.829C816.562 201.576 820.617 196.392 822.257 190.977C823.371 187.3 822.831 183.306 823.557 179.557C826.096 166.449 836.105 158.316 846.01 150.529C845.702 163.047 846.083 176.387 836.311 185.795Q835.609 186.465 834.865 187.088Q834.121 187.712 833.339 188.286Q832.556 188.86 831.738 189.383Q830.92 189.906 830.071 190.375Q829.221 190.843 828.343 191.257Q827.464 191.67 826.561 192.026Q825.658 192.381 824.734 192.678Q823.81 192.975 822.869 193.212C819.812 199.47 815.99 208.702 811.877 214.037L811.503 213.905C811.975 211.525 813.308 209.093 814.226 206.829Z"/>
	<path fill="#DAD966" d="M723.533 779.956L746.919 779.988L746.893 806.366C739.119 806.346 731.244 806.071 723.483 806.468C724.018 797.746 723.533 788.712 723.533 779.956Z"/>
	<path fill="#DAD966" d="M723.752 748.536Q735.372 748.648 746.992 748.594L746.975 777.904C739.166 777.875 731.24 777.559 723.445 777.919C724.401 769.116 723.519 757.686 723.752 748.536Z"/>
	<path fill="#DAD966" d="M717.749 712.48C727.505 712.398 737.277 712.206 747.032 712.244L747.019 746.387C739.328 746.372 731.521 746.076 723.844 746.464L723.991 729.919C723.991 722.585 723.082 717.807 717.749 712.48Z"/>
	<path fill="#DAD966" d="M723.55 808.683C731.161 809.295 738.978 808.903 746.616 808.877C746.613 814.942 747.67 840.735 745.367 844.745C740.845 848.459 729.306 847.902 723.688 847.387C723.439 847.364 723.192 847.323 722.944 847.29C724.4 844.35 723.554 814.402 723.55 808.683Z"/>
	<path fill="#DAD966" d="M650.001 825.988L711.531 825.958C711.58 832.227 712.494 840.388 710.946 846.404C706.807 847.837 656.866 847.34 650.891 846.07C648.908 843.972 649.981 829.631 650.001 825.988Z"/>
	<path fill="#73C650" d="M164.44 743.831C181.446 769.053 191.357 791.986 196.12 822.265C196.985 827.768 197.246 833.312 197.983 838.814L196.856 839.754C196.472 839.582 195.937 839.327 195.541 839.224C194.205 838.879 194.024 839.015 192.967 839.745C190.058 838.107 186.806 831.783 185.009 828.959C186.494 828.222 186.875 828.249 187.601 826.701C187.172 816.266 171.313 806.342 164.57 799.787C164.47 799.689 164.372 799.589 164.273 799.491C160.539 780.729 161.414 762.565 164.44 743.831Z"/>
	<path fill="#A6D349" d="M99.2239 768.338C126.032 776.029 141.339 783.778 164.273 799.491C164.372 799.589 164.47 799.689 164.57 799.787C171.313 806.342 187.172 816.266 187.601 826.701C186.875 828.249 186.494 828.222 185.009 828.959L182.883 828.977C181.257 828.245 179.016 828.05 177.261 827.584Q170.258 825.738 163.638 822.799C138.051 811.155 116.651 789.998 99.2239 768.338Z"/>
	<path fill="#DAD966" d="M653.703 719.081L685.009 718.999C690.575 718.975 696.482 718.546 702.003 719.246C703.987 719.497 706.068 719.907 707.73 721.085C709.989 722.686 711.387 725.466 711.724 728.18C712.154 731.654 713.15 743.238 711.172 745.807L709.125 746.001L649.986 746.04L650.107 723.985C651.144 722.093 652.204 720.632 653.703 719.081Z"/>
	<path fill="#DAD966" d="M697.394 680.229C706.014 680.096 714.648 680.176 723.27 680.159C728.276 680.149 733.909 679.648 738.835 680.479C741.074 680.856 743.918 681.672 745.493 683.433C748.227 686.489 747.053 705.208 747.036 710.036L737.75 710.017L687.456 710.058C687.536 703.487 685.372 686.672 689.723 682.074C691.797 679.882 694.637 680.243 697.394 680.229Z"/>
	<path fill="#DAD966" d="M754.017 731.488L783.223 731.529C788.367 731.526 793.975 731.044 799.043 731.822C801.327 732.173 804.721 733.03 806.275 734.914C809.08 738.315 807.935 760.063 807.961 765.021L754.126 765.029Q754.263 748.258 754.017 731.488Z"/>
	<path fill="#DAD966" d="M754.258 766.957L807.955 766.956L807.994 801.047L754.447 801.17Q754.561 784.062 754.258 766.957Z"/>
	<path fill="#DAD966" d="M583.311 810.582L643.075 810.524L643.076 842.03C632.705 841.828 590.954 843.48 584.256 840.833C582.164 836.613 583.314 816.676 583.311 810.582Z"/>
	<path fill="#DAD966" d="M675.505 757.75L711.888 757.477C711.748 767.817 711.61 778.197 711.853 788.535L686.375 788.364L650.014 788.14Q650.092 773.041 649.987 757.943C658.483 757.716 667.005 757.797 675.505 757.75Z"/>
	<path fill="#DAD966" d="M588.523 699.553C595.322 699.237 644.376 698.56 647.086 700.678C650.206 703.115 649.255 709.942 649.167 713.472C643.928 718.855 643.146 722.701 643.137 729.98C636.882 730.657 629.873 730.082 623.544 730.079L582.96 730.05C583.148 722.497 582.151 712.673 583.827 705.5C584.557 702.374 585.845 701.213 588.523 699.553Z"/>
	<path fill="#DAD966" d="M754.511 803.115C772.287 803.714 790.179 803.368 807.966 803.229C807.891 811.318 809.155 832.552 807.324 839.043C803.202 841.155 762.481 840.067 754.507 840.054L754.511 803.115Z"/>
	<path fill="#DAD966" d="M706.169 791.738L711.724 791.747L711.596 823.742C692.872 824.035 674.104 823.787 655.375 823.845L650.037 823.784L650.013 791.872Q678.092 792.047 706.169 791.738Z"/>
	<path fill="#DAD966" d="M583.116 773.14C603.09 773.616 623.135 773.212 643.112 773.028L643.057 807.433L583.009 807.477C583.418 796.053 583.182 784.57 583.116 773.14Z"/>
	<path fill="#DAD966" d="M636.889 733.26L643.22 733.133L643.203 768.026L588.321 767.976L583.056 767.967L583.184 733.477L636.889 733.26Z"/>
	<path fill="#4FAD56" d="M864.389 322.025C856.228 321.836 818.9 322.974 814.614 321.595Q814.061 321.423 813.517 321.222Q812.973 321.022 812.441 320.794Q811.908 320.566 811.388 320.31Q810.868 320.055 810.361 319.773Q809.855 319.492 809.364 319.184Q808.873 318.877 808.398 318.544Q807.923 318.212 807.466 317.856Q807.009 317.5 806.571 317.12Q806.133 316.741 805.716 316.339Q805.298 315.938 804.901 315.515Q804.504 315.093 804.13 314.651Q803.756 314.208 803.405 313.747Q803.054 313.286 802.727 312.808Q802.4 312.33 802.098 311.835Q801.796 311.34 801.52 310.831Q801.244 310.321 800.995 309.798C797.681 302.994 797.647 294.68 800.073 287.588Q800.327 286.843 800.618 286.111Q800.909 285.38 801.236 284.664Q801.564 283.948 801.927 283.249Q802.29 282.551 802.687 281.871Q803.085 281.192 803.516 280.533Q803.948 279.875 804.412 279.238Q804.876 278.602 805.371 277.99Q805.866 277.378 806.392 276.792Q806.917 276.206 807.471 275.647Q808.026 275.088 808.607 274.557Q809.189 274.027 809.797 273.526Q810.404 273.026 811.036 272.556Q811.668 272.087 812.323 271.65Q812.978 271.213 813.654 270.809Q814.33 270.406 815.025 270.037Q815.721 269.668 816.434 269.334C823.924 265.743 831.958 265.281 839.798 268.094C840.961 275.173 848.112 287.145 851.562 294.244C856.015 303.406 860.498 312.607 864.389 322.025Z"/>
	<path fill="#A6D349" d="M839.798 268.094C843.848 257.314 850.839 248.283 861.499 243.423Q862.355 243.026 863.231 242.673Q864.106 242.319 864.998 242.01Q865.89 241.701 866.796 241.437Q867.702 241.172 868.62 240.954Q869.539 240.735 870.467 240.563Q871.395 240.391 872.33 240.265Q873.266 240.14 874.207 240.061Q875.147 239.982 876.091 239.951Q877.034 239.92 877.978 239.935Q878.922 239.951 879.864 240.014Q880.805 240.077 881.743 240.187Q882.68 240.298 883.611 240.454Q884.542 240.611 885.464 240.815Q886.385 241.018 887.296 241.267Q888.206 241.516 889.103 241.811Q890 242.105 890.881 242.444C900.431 246.187 908.697 253.562 912.81 263.027C914.538 267.004 915.425 271.239 916.23 275.48C923.727 275.214 930.141 275.744 935.997 281.051C941.042 285.623 944.175 291.964 944.279 298.831C944.37 304.855 941.538 311.807 937.32 316.062Q936.4 317.003 935.358 317.807Q934.317 318.611 933.173 319.262Q932.029 319.913 930.806 320.398Q929.582 320.883 928.303 321.193C920.721 322.983 911.453 322.006 903.656 322.004L864.389 322.025C860.498 312.607 856.015 303.406 851.562 294.244C848.112 287.145 840.961 275.173 839.798 268.094Z"/>
	<path fill="#4FAD56" d="M157.12 684.26C176.161 671.43 198.098 664.259 221.058 664.466L220.969 762.811C215.986 763.912 209.999 764.767 205.574 767.337L199.271 769.97C196.343 758.254 192.069 743.852 183.081 735.212C178.475 730.785 172.155 728.182 165.732 728.502Q165.236 728.528 164.742 728.578Q164.248 728.629 163.756 728.704Q163.265 728.779 162.779 728.878Q162.292 728.977 161.811 729.1Q161.329 729.223 160.855 729.37Q160.38 729.517 159.913 729.687Q159.447 729.857 158.989 730.05Q158.531 730.243 158.083 730.458Q157.636 730.673 157.199 730.911Q156.763 731.148 156.339 731.406Q155.915 731.665 155.504 731.944Q155.093 732.224 154.696 732.523Q154.3 732.822 153.919 733.141Q153.538 733.459 153.173 733.796Q152.808 734.133 152.46 734.488Q152.112 734.843 151.782 735.214C144.572 743.309 144.944 754.375 145.449 764.487C138.367 761.229 131.27 758.524 123.867 756.125C122.463 747.011 122.345 737.865 124.216 728.813C128.263 709.222 140.806 695.108 157.12 684.26Z"/>
	<path fill="#A6D349" d="M607.293 83.7194C619.141 86.8442 631.171 89.889 642.831 93.6618Q656.053 97.9749 668.995 103.067Q681.937 108.159 694.553 114.011Q707.169 119.864 719.414 126.456Q731.66 133.049 743.492 140.358C754.841 147.332 766.502 154.674 776.932 162.971C773.753 173.013 769.031 182.939 765.021 192.689Q762.271 199.168 759.732 205.732C752.496 199.274 744.41 193.867 736.446 188.361Q730.107 183.932 723.604 179.747Q717.102 175.562 710.445 171.626Q703.788 167.691 696.987 164.011Q690.185 160.332 683.249 156.913Q676.313 153.494 669.251 150.341Q662.19 147.189 655.015 144.306Q647.839 141.424 640.559 138.816Q633.279 136.208 625.905 133.878C622.577 115.376 617.323 99.7101 607.293 83.7194Z"/>
	<path fill="#074B64" d="M167.695 496.881C179.575 509.538 190.123 523.538 201.638 536.549L206.22 542.723L221.287 542.519C221.086 558.657 220.75 574.853 221.148 590.989C217.49 594.217 213.519 597.086 209.626 600.024L209.601 620.984L209.854 628.602C213.773 625.839 217.522 623.013 221.206 619.939C221.217 634.737 221.623 649.687 221.058 664.466C198.098 664.259 176.161 671.43 157.12 684.26C147.169 663.999 140.687 642.347 133.575 621.011C126.214 597.165 123.733 572.31 120.733 547.67C120.744 546.582 120.823 545.643 121.055 544.58C122.645 543.565 124.49 543.985 126.351 544.043C140.691 528.952 153.913 512.517 167.695 496.881Z"/>
	<path fill="#A6D349" d="M209.854 628.602C213.773 625.839 217.522 623.013 221.206 619.939C221.217 634.737 221.623 649.687 221.058 664.466C198.098 664.259 176.161 671.43 157.12 684.26C147.169 663.999 140.687 642.347 133.575 621.011Q171.588 620.605 209.601 620.984L209.854 628.602Z"/>
	<path fill="#4FAD56" d="M362.032 881.638C365.793 879.588 383.525 877.578 388.699 876.624Q401.138 874.27 413.505 871.565Q433.352 867.132 452.778 861.119Q474.959 854.292 496.705 846.187Q518.451 838.082 539.689 828.726Q551.14 823.732 562.449 818.427C567.129 816.175 572.04 813.078 576.968 811.614C576.959 818.399 575.222 840.985 579.844 845.688C581.32 847.191 582.816 847.85 584.886 848.157C591.347 849.114 598.5 848.469 605.053 848.437L644.419 848.224C649.163 853.033 651.787 852.661 658.344 852.713C665.899 852.773 710.383 853.621 714.743 851.87L715.438 853.051Q711.305 855.581 707.11 858.007Q702.915 860.434 698.662 862.756Q694.409 865.078 690.099 867.294Q685.79 869.511 681.427 871.62Q677.064 873.729 672.65 875.729Q668.236 877.73 663.774 879.621Q659.312 881.511 654.805 883.291Q650.298 885.071 645.748 886.739Q641.198 888.407 636.608 889.962Q632.018 891.517 627.392 892.958Q622.765 894.399 618.104 895.725Q613.443 897.051 608.75 898.261Q604.058 899.472 599.337 900.566Q594.616 901.66 589.87 902.637Q585.123 903.614 580.354 904.473Q575.585 905.333 570.796 906.074Q566.007 906.815 561.201 907.438Q556.395 908.06 551.576 908.564Q546.756 909.067 541.925 909.451Q537.094 909.835 532.256 910.1Q527.417 910.365 522.573 910.51Q517.729 910.654 512.883 910.68Q508.038 910.705 503.192 910.61Q498.347 910.515 493.506 910.301Q488.665 910.086 483.831 909.752Q478.996 909.418 474.171 908.964Q469.347 908.511 464.535 907.938Q459.723 907.365 454.926 906.674Q450.13 905.982 445.352 905.172Q440.574 904.363 435.818 903.435Q431.062 902.507 426.33 901.462Q421.598 900.417 416.893 899.255C398.108 894.64 380.046 888.676 362.032 881.638Z"/>
	<path fill="#90D7DA" d="M627.454 151.041C639.585 155.705 651.825 159.853 663.69 165.212C703.244 183.077 747.415 212.347 777.332 244.038L780.481 247.509C780.446 252.033 779.488 276.467 780.677 278.422C779.936 281.314 778.645 284.597 777.02 287.106Q774.846 295.164 772.3 303.112C769.034 315.176 765.92 327.174 763.355 339.413C762.896 341.747 762.387 344.058 762.209 346.433C747.692 355.154 735.337 366.473 724.662 379.561C723.295 375.874 724.05 338.598 724.031 331.571C723.908 321.408 724.016 311.228 724.03 301.062C724.041 292.954 723.811 284.749 724.461 276.665L723.753 276.386C719.91 274.837 716.442 272.774 712.441 271.468C703.031 268.398 691.533 269.547 682.507 273.321C668.978 278.977 661.652 288.392 655.945 301.516C649.178 295.583 642.495 293.187 633.759 291.5C639.982 275.853 641.004 258.625 641.244 241.972C615.116 241.846 589.466 244.964 564.921 254.257C569.378 247.271 582.535 238.912 589.152 232.865C614.7 209.52 625.896 185.523 627.454 151.041Z"/>
	<path fill="#A6D349" d="M777.332 244.038L780.481 247.509C780.446 252.033 779.488 276.467 780.677 278.422C779.936 281.314 778.645 284.597 777.02 287.106C776.201 274.53 776.923 256.819 777.332 244.038Z"/>
	<path fill="#73C650" d="M724.574 263.631C735.427 271.765 746.655 279.59 756.942 288.439C762.328 293.071 767.017 298.421 772.3 303.112C769.034 315.176 765.92 327.174 763.355 339.413C763.034 339.207 762.722 338.987 762.394 338.792C753.045 333.206 733.738 283.227 724.461 276.665C724.491 272.325 724.441 267.969 724.574 263.631Z"/>
	<path fill="#A6D349" d="M724.461 276.665C733.738 283.227 753.045 333.206 762.394 338.792C762.722 338.987 763.034 339.207 763.355 339.413C762.896 341.747 762.387 344.058 762.209 346.433C747.692 355.154 735.337 366.473 724.662 379.561C723.295 375.874 724.05 338.598 724.031 331.571C723.908 321.408 724.016 311.228 724.03 301.062C724.041 292.954 723.811 284.749 724.461 276.665Z"/>
	<path fill="#209160" d="M511.601 47.3312C536.127 70.3364 564.112 104.81 576.804 136.288C586.178 159.537 587.479 185.768 577.409 209.024C565.323 236.938 541.783 252.241 514.475 263.028C512.041 262.956 509.6 262.937 507.178 262.667C507.019 268.42 507.918 305.534 506.668 307.884C505.87 293.328 506.639 276.727 506.612 261.97C489.214 254.916 471.565 243.192 459.399 228.876C444.967 211.894 438.083 188.628 439.883 166.493C443.18 125.957 481.1 73.1916 511.601 47.3312Z"/>
	<path fill="#A6D349" d="M512.524 76.8984C512.517 73.5329 512.556 70.1897 512.729 66.8282C539.228 97.7223 570.425 136.443 567.12 179.748C565.472 201.34 554.858 219.002 538.518 232.86C531.012 239.226 522.52 245.037 513.425 248.864C510.84 241.587 515.25 230.614 512.086 223.37C511.071 221.649 511.03 218.708 510.912 216.728C510.711 213.353 510.887 211.429 513.148 208.938C512.112 202.608 512.637 195.244 512.593 188.821C512.483 173.076 512.771 157.321 512.449 141.579L512.496 129.751C512.759 118.924 512.562 108.037 512.575 97.204L512.524 76.8984Z"/>
	<path fill="#026324" d="M542.507 122.433C544.696 124.508 546.627 126.885 548.617 129.151C540.511 137.329 532.239 145.338 524.465 153.839C522.37 152.784 519.734 149.096 518.021 147.276C525.244 138.789 533.865 129.412 542.507 122.433Z"/>
	<path fill="#026324" d="M546.033 175.208C548.223 177.502 550.525 179.753 552.595 182.153Q532.909 203.32 512.086 223.37C511.071 221.649 511.03 218.708 510.912 216.728C510.711 213.353 510.887 211.429 513.148 208.938C524.342 197.921 534.975 186.359 546.033 175.208Z"/>
	<path fill="#4FAD56" d="M513.425 248.864C511.169 248.619 508.144 246.852 506.141 245.774C485.173 234.488 466.39 214.929 459.428 191.896C451.987 167.28 460.476 140.971 472.288 119.151C476.831 110.759 505.663 67.7097 512.06 65.8127L512.729 66.8282C512.556 70.1897 512.517 73.5329 512.524 76.8984L512.575 97.204C512.562 108.037 512.759 118.924 512.496 129.751L512.449 141.579C512.771 157.321 512.483 173.076 512.593 188.821C512.637 195.244 512.112 202.608 513.148 208.938C510.887 211.429 510.711 213.353 510.912 216.728C511.03 218.708 511.071 221.649 512.086 223.37C515.25 230.614 510.84 241.587 513.425 248.864Z"/>
	<path fill="#026324" d="M512.524 76.8984L512.575 97.204C509.193 93.9848 506.198 90.2421 503.171 86.6884Q507.821 81.7683 512.524 76.8984Z"/>
	<path fill="#026324" d="M491.383 108C496.996 115.992 505.46 123.004 512.496 129.751L512.449 141.579C508.119 138.73 504.269 133.998 500.504 130.389Q492.265 122.602 483.791 115.072C486.221 112.557 488.705 110.249 491.383 108Z"/>
	<path fill="#026324" d="M481.16 153.309C484.479 154.839 504.094 175.388 508.485 179.772C506.06 182.153 504.28 184.664 502.541 187.551C494.097 177.601 483.835 169.376 474.829 159.953C476.747 157.577 479.006 155.47 481.16 153.309Z"/>
	<path fill="#A6D349" d="M723.476 546.424C724.714 547.922 726.017 549.934 727.51 551.144C743.968 574.9 770.784 590.314 797.063 600.643C808.276 599.688 818.123 602.05 829.135 603.095C840.274 604.152 851.442 603.117 862.453 601.334C867.899 602.126 873.056 603.394 878.371 604.775C883.19 607.344 888.279 612.011 890.809 616.912L891.203 617.699C889.506 625.474 886.495 633.255 883.933 640.784C870.648 679.826 851.891 715.042 828.391 748.856C823.852 755.387 819.399 762.601 814.046 768.459C814.114 760.022 815.399 741.988 813.385 734.527Q813.159 733.706 812.827 732.923Q812.494 732.14 812.061 731.407Q811.627 730.675 811.1 730.007Q810.573 729.338 809.962 728.746C808.385 727.195 806.614 726.237 804.463 725.749C798.489 724.395 791.514 725.078 785.397 725.11L754.008 725.296C754.065 715.711 755.248 692.599 753.581 684.558Q753.389 683.625 753.068 682.728Q752.746 681.831 752.302 680.989Q751.858 680.146 751.3 679.374Q750.742 678.602 750.081 677.916C748.263 676.06 746.007 675.036 743.501 674.459C735.184 672.545 709.045 673.634 699.259 673.836C695.929 673.904 692.586 673.96 689.266 674.227C696.523 655.528 699.138 635.796 700.455 615.929C700.583 596.367 699.848 577.742 695.366 558.615C704.877 554.881 713.934 550.063 723.476 546.424Z"/>
	<path fill="#08666E" d="M797.063 600.643C808.276 599.688 818.123 602.05 829.135 603.095C840.274 604.152 851.442 603.117 862.453 601.334C867.899 602.126 873.056 603.394 878.371 604.775C883.19 607.344 888.279 612.011 890.809 616.912C879.873 615.453 864.481 616.441 853.105 616.437Q815.721 616.538 778.339 616.106Q778.792 615.166 779.263 614.234C783.249 606.362 789.046 603.243 797.063 600.643Z"/>
	<path fill="#4FAD56" d="M723.476 546.424C724.714 547.922 726.017 549.934 727.51 551.144C743.968 574.9 770.784 590.314 797.063 600.643C789.046 603.243 783.249 606.362 779.263 614.234Q778.792 615.166 778.339 616.106C770.141 616.768 761.427 616.119 753.176 616.09L700.455 615.929C700.583 596.367 699.848 577.742 695.366 558.615C704.877 554.881 713.934 550.063 723.476 546.424Z"/>
	<path fill="#A6D349" d="M576.638 733.774C577.024 744.5 576.794 755.266 576.817 765.999Q577.07 788.806 576.968 811.614C572.04 813.078 567.129 816.175 562.449 818.427Q551.14 823.733 539.689 828.726Q518.451 838.082 496.705 846.187Q474.959 854.292 452.778 861.119Q433.352 867.132 413.505 871.565Q401.138 874.27 388.699 876.624C383.525 877.578 365.793 879.588 362.032 881.638C355.577 880.256 341.298 872.724 334.57 869.525C298.271 852.267 262.872 828.022 234.589 799.398C224.36 789.045 215.568 777.66 205.574 767.337C209.999 764.767 215.986 763.912 220.969 762.811L229.587 761.024Q244.841 758.649 260.206 757.15C262.897 757.013 265.582 756.739 268.266 756.498C290.176 755.484 311.662 755.13 333.58 756.502C339.444 756.87 346.378 756.948 351.996 758.558C355.086 759.213 358.245 759.493 361.381 759.855C372.73 761.389 383.944 763.066 395.036 765.978C406.971 771.003 419.02 776.273 431.32 780.327C466.007 791.761 507.232 797.637 543.241 790.06C554.772 787.634 565.692 783.697 576.583 779.294Q576.457 756.533 576.638 733.774Z"/>
	<path fill="#4FAD56" d="M415.354 83.551C416.117 83.4751 415.677 83.4475 416.65 83.8255C415.633 88.0574 411.397 92.8206 409.343 96.8051C403.415 108.308 400.074 120.743 398.033 133.448Q381.369 138.741 365.129 145.218Q348.888 151.695 333.155 159.321C237.996 205.112 160.278 289.043 125.33 389.085Q124.155 392.443 123.04 395.822Q121.925 399.2 120.87 402.598Q119.815 405.996 118.821 409.412Q117.827 412.828 116.893 416.261Q115.959 419.694 115.087 423.143Q114.214 426.592 113.403 430.056Q112.592 433.52 111.842 436.998Q111.093 440.476 110.405 443.967Q109.717 447.458 109.091 450.96Q108.466 454.462 107.902 457.975Q107.339 461.488 106.838 465.01Q106.336 468.533 105.898 472.063Q105.459 475.594 105.084 479.132Q104.708 482.67 104.395 486.214Q104.082 489.758 103.832 493.307Q103.582 496.856 103.395 500.408Q103.208 503.961 103.084 507.517Q102.96 511.072 102.9 514.63Q102.839 518.187 102.841 521.745Q102.844 525.302 102.909 528.86Q102.975 532.417 103.103 535.972Q103.232 539.528 103.424 543.08Q103.615 546.633 103.87 550.182Q104.125 553.73 104.442 557.274Q104.76 560.817 105.14 564.355Q105.521 567.892 105.964 571.422Q106.407 574.952 106.913 578.474Q107.419 581.995 107.987 585.508Q108.555 589.02 109.185 592.521Q109.816 596.023 110.508 599.512Q111.201 603.002 111.955 606.479Q112.709 609.956 113.525 613.419C118.861 637.076 125.993 660.955 136.534 682.854C121.755 693.091 111.689 706.505 107.519 724.166C105.641 720.93 104.022 717.507 102.322 714.172Q97.7448 704.581 93.6194 694.786Q89.4941 684.992 85.8295 675.017Q82.165 665.041 78.9692 654.905Q75.7734 644.77 73.0533 634.496Q71.6314 629.269 70.3398 624.008Q69.0483 618.747 67.8879 613.456Q66.7275 608.165 65.699 602.846Q64.6705 597.528 63.7746 592.186Q62.8786 586.843 62.1157 581.48Q61.3528 576.117 60.7235 570.737Q60.0941 565.357 59.5987 559.962Q59.1033 554.568 58.7422 549.163Q58.381 543.758 58.1544 538.346Q57.9277 532.934 57.8356 527.518Q57.7435 522.101 57.7861 516.685Q57.8287 511.268 58.0059 505.854Q58.1832 500.44 58.4949 495.032Q58.8067 489.624 59.2528 484.225Q59.6989 478.826 60.2791 473.441Q60.8592 468.055 61.5731 462.685Q62.2869 457.315 63.1341 451.965Q63.9812 446.615 64.9611 441.287Q65.9409 435.959 67.0529 430.658Q68.1649 425.356 69.4084 420.084Q70.6518 414.811 72.0259 409.572Q73.4 404.332 74.904 399.128Q76.4079 393.924 78.0408 388.759Q79.6736 383.594 81.4344 378.471Q83.1951 373.348 85.0826 368.271Q86.9702 363.193 88.9834 358.164Q90.9965 353.135 93.1341 348.158Q95.2716 343.18 97.5323 338.258Q99.7929 333.335 102.175 328.47Q104.557 323.605 107.06 318.8Q109.562 313.996 112.184 309.256Q114.805 304.515 117.543 299.841Q119.85 295.92 122.233 292.046Q124.617 288.172 127.077 284.345Q129.537 280.519 132.072 276.742Q134.607 272.965 137.217 269.239Q139.827 265.513 142.509 261.839Q145.192 258.166 147.947 254.546Q150.702 250.926 153.528 247.362Q156.355 243.797 159.251 240.289Q162.147 236.781 165.112 233.332Q168.077 229.882 171.11 226.492Q174.143 223.101 177.242 219.772Q180.342 216.442 183.506 213.174Q186.671 209.907 189.9 206.702Q193.129 203.498 196.42 200.358Q199.712 197.218 203.065 194.144Q206.418 191.07 209.832 188.063Q213.245 185.057 216.717 182.118Q220.189 179.179 223.719 176.31Q227.249 173.44 230.835 170.641Q234.421 167.842 238.061 165.115Q241.702 162.387 245.396 159.733Q249.09 157.078 252.835 154.497Q256.581 151.915 260.377 149.409Q264.174 146.903 268.018 144.472Q271.864 142.041 275.756 139.687Q279.648 137.333 283.587 135.056Q287.525 132.779 291.507 130.581Q295.49 128.383 299.515 126.264Q303.541 124.145 307.607 122.107Q311.674 120.068 315.78 118.11Q319.886 116.152 324.03 114.276Q328.174 112.4 332.354 110.606C359.494 99.0614 386.883 91.0158 415.354 83.551Z"/>
	<path fill="#90D7DA" d="M564.921 254.257C589.466 244.964 615.116 241.846 641.244 241.972C641.004 258.625 639.982 275.853 633.759 291.5C642.495 293.187 649.178 295.583 655.945 301.516C661.652 288.392 668.978 278.977 682.507 273.321C691.533 269.547 703.031 268.398 712.441 271.468C716.442 272.774 719.91 274.837 723.753 276.386L724.461 276.665C723.811 284.749 724.041 292.954 724.03 301.062C724.016 311.228 723.908 321.408 724.031 331.571C724.05 338.598 723.295 375.874 724.662 379.561C701.967 409.884 692.021 444.265 697.494 482.024C700.16 500.418 706.714 517.547 715.723 533.73C718.104 538.008 721.351 542.092 723.476 546.424C713.934 550.063 704.877 554.881 695.366 558.615C691.269 540.638 684.195 523.97 676.111 507.498C670.933 499.206 666.212 490.839 660.552 482.832C650.338 470.203 639.905 459.093 627.585 448.488C622.077 444.062 616.428 439.712 610.509 435.85C586.42 420.922 560.864 410.541 532.66 406.786C526.514 405.888 520.369 405.526 514.175 405.177L514.376 353.069C519.804 350.357 525.86 346.565 530.22 342.365C531.643 338.089 552.955 325.012 556.485 318.435L555.644 316.599C555.818 315.639 555.963 314.678 556.101 313.713C550.62 312.881 535.606 333.565 529.91 334.329C529.676 334.36 529.439 334.371 529.204 334.392L535.538 328.935C535.391 328.669 535.239 328.404 535.095 328.135C528.937 316.633 528.664 303.226 532.392 290.936C537.568 273.878 549.63 262.538 564.921 254.257Z"/>
	<path fill="#DAD966" d="M609.559 384.375L626.928 384.138L626.982 396.183C628.313 396.008 629.676 395.675 630.983 396.087L631.882 397.363C630.642 398.708 630.14 399.146 628.433 399.798C628.166 399.9 627.768 400.177 627.513 400.345L627.159 401.895C628.604 417.262 626.789 433.051 627.585 448.488C622.077 444.062 616.428 439.712 610.509 435.85C610.734 428.446 611.921 407.239 610.33 401.037C608.811 400.29 607.519 401.081 605.883 400.622L605.648 399.48L606.254 398.601C607.534 398.49 608.701 398.474 609.847 397.826Q609.571 391.103 609.559 384.375Z"/>
	<path fill="#DAD966" d="M660.59 337.673C664.004 337.453 670.668 336.234 673.457 338.855C676.81 342.008 675.399 352.697 675.456 357.351C675.57 366.011 674.936 375.63 676.273 384.171C677.074 384.588 677.854 384.882 678.711 385.168C679.268 386.284 679.224 386.553 679.14 387.815C678.42 388.586 677.687 389.163 676.83 389.777C676.319 390.809 676.053 391.605 675.974 392.761C675.394 401.316 676.091 410.472 676.087 419.073L676.007 479.807C675.995 489.005 676.487 498.317 676.111 507.498C670.933 499.206 666.212 490.839 660.552 482.832L660.75 477.385Q660.317 407.529 660.59 337.673Z"/>
	<path fill="#BCCB9C" d="M662.314 357.351C662.589 356.641 662.539 356.106 663.319 355.831C666.039 354.87 670.6 355.482 673.525 355.566L673.589 367.775C673.489 369.364 673.702 370.412 672.521 371.586C669.43 372.585 665.746 371.799 662.52 371.589C662.574 366.853 662.775 362.071 662.314 357.351Z"/>
	<path fill="#FEFEFE" d="M655.945 301.516C661.652 288.392 668.978 278.977 682.507 273.321C691.533 269.547 703.031 268.398 712.441 271.468C716.442 272.774 719.91 274.837 723.753 276.386L724.461 276.665C723.811 284.749 724.041 292.954 724.03 301.062C724.016 311.228 723.908 321.408 724.031 331.571C691.236 331.724 658.464 332.304 625.674 331.516C611.803 346.877 594.056 357.69 572.99 358.878C563.957 359.387 555.329 357.905 546.584 355.787Q540.465 360.394 534.435 365.116C534.464 371.634 535.454 402.92 534.191 406.54L532.66 406.786C526.514 405.888 520.369 405.526 514.175 405.177L514.376 353.069C519.804 350.357 525.86 346.565 530.22 342.365C533.498 340.36 536.564 337.732 539.606 335.389C541.22 336.93 543.202 338.023 545.228 338.928C558.994 345.08 576.216 345.516 590.275 340.116C612.221 331.687 624.61 311.958 633.759 291.5C642.495 293.187 649.178 295.583 655.945 301.516Z"/>
	<path fill="#026324" d="M564.921 254.257C589.466 244.964 615.116 241.846 641.244 241.972C641.004 258.625 639.982 275.853 633.759 291.5C624.61 311.958 612.221 331.687 590.275 340.116C576.216 345.516 558.994 345.08 545.228 338.928C543.202 338.023 541.22 336.93 539.606 335.389C536.564 337.732 533.498 340.36 530.22 342.365C531.643 338.089 552.955 325.012 556.485 318.435L555.644 316.599C555.818 315.639 555.963 314.678 556.101 313.713C550.62 312.881 535.606 333.565 529.91 334.329C529.676 334.36 529.439 334.371 529.204 334.392L535.538 328.935C535.391 328.669 535.239 328.404 535.095 328.135C528.937 316.633 528.664 303.226 532.392 290.936C537.568 273.878 549.63 262.538 564.921 254.257Z"/>
	<path fill="#4FAD56" d="M564.468 313.524C572.223 314.963 580.197 315.531 588.067 315.894C586.166 319.963 583.286 324.824 582.552 329.244C571.967 334.145 557.173 330.788 545.962 329.811C551.907 324.251 557.983 318.443 564.468 313.524Z"/>
	<path fill="#A6D349" d="M583.271 261.187C595.917 257.647 614.538 252.176 627.567 253.13C617.735 259.137 608.368 267.034 599.512 274.392C594.544 278.52 589.573 283.276 583.943 286.463C583.847 281.481 583.855 276.47 583.568 271.495C581.561 271.496 579.546 271.594 577.54 271.647C575.907 269.662 575.555 266.769 574.961 264.323L583.271 261.187Z"/>
	<path fill="#73C650" d="M574.961 264.323L583.271 261.187C583.401 264.622 583.559 268.057 583.568 271.495C581.561 271.496 579.546 271.594 577.54 271.647C575.907 269.662 575.555 266.769 574.961 264.323Z"/>
	<path fill="#4FAD56" d="M543.145 322.103C541.784 312.135 542.393 301.749 546.186 292.357C551.837 278.363 561.319 270.21 574.961 264.323C575.555 266.769 575.907 269.662 577.54 271.647C576.045 277.817 576.935 285.927 576.999 292.322L543.145 322.103Z"/>
	<path fill="#A6D349" d="M631.357 252.559C631.547 257.035 629.86 262.065 628.728 266.371C624.383 282.91 619.089 299.545 607.326 312.44C600.609 319.805 592.126 326.183 582.552 329.244C583.286 324.824 586.166 319.963 588.067 315.894C588.484 314.621 589.462 312.208 588.63 310.949C586.424 307.614 574.645 307.501 570.804 306.962C575.591 302.764 580.186 298.481 584.764 294.055C591.725 295.447 598.941 295.587 605.977 296.629L606.053 289.213C601.12 288.43 596.251 287.779 591.271 287.352C604.443 275.539 618.707 264.961 631.357 252.559Z"/>
	<path fill="#209160" d="M564.921 254.257C589.466 244.964 615.116 241.846 641.244 241.972C641.004 258.625 639.982 275.853 633.759 291.5C624.61 311.958 612.221 331.687 590.275 340.116C576.216 345.516 558.994 345.08 545.228 338.928C543.202 338.023 541.22 336.93 539.606 335.389C541.67 333.462 543.808 331.637 545.962 329.811C557.173 330.788 571.967 334.145 582.552 329.244C592.126 326.183 600.609 319.805 607.326 312.44C619.089 299.545 624.383 282.91 628.728 266.371C629.86 262.065 631.547 257.035 631.357 252.559L627.567 253.13C614.538 252.176 595.917 257.647 583.271 261.187L574.961 264.323C561.319 270.21 551.837 278.363 546.186 292.357C542.393 301.749 541.784 312.135 543.145 322.103C540.638 324.416 538.137 326.726 535.538 328.935C535.391 328.669 535.239 328.404 535.095 328.135C528.937 316.633 528.664 303.226 532.392 290.936C537.568 273.878 549.63 262.538 564.921 254.257Z"/>
	<path fill="#90D7DA" d="M310.458 519.485Q316.908 524.741 323.588 529.701Q352.179 552.271 381.268 574.196C394.241 584.165 406.925 594.501 419.987 604.355C418.574 612.32 419.509 624.029 419.492 632.391Q407.126 622.28 394.412 612.612C395.004 623.412 395.423 634.422 394.903 645.234L395.036 765.978C383.944 763.066 372.73 761.389 361.381 759.855C358.245 759.493 355.086 759.213 351.996 758.558C346.378 756.948 339.444 756.87 333.58 756.502C311.662 755.13 290.176 755.484 268.266 756.498C265.582 756.739 262.897 757.013 260.206 757.15Q244.841 758.649 229.587 761.024L220.969 762.811L221.058 664.466C221.623 649.687 221.217 634.737 221.206 619.939C217.522 623.013 213.773 625.839 209.854 628.602L209.601 620.984L209.626 600.024C213.519 597.086 217.49 594.217 221.148 590.989C228.86 585.529 236.214 579.185 243.727 573.405Q277.726 547.229 310.458 519.485Z"/>
	<path fill="#209160" d="M221.206 619.939C223.754 617.667 226.648 615.627 229.334 613.507Q229.533 619.075 229.603 624.647L229.465 704.24C229.46 723.155 229.213 742.112 229.587 761.024L220.969 762.811L221.058 664.466C221.623 649.687 221.217 634.737 221.206 619.939Z"/>
	<path fill="#26B1A9" d="M311.813 548.841C319.914 555.974 329.252 562.306 337.806 568.916L394.412 612.612C395.004 623.412 395.423 634.422 394.903 645.234C394.346 638.094 394.583 630.783 394.54 623.616C380.217 613.492 364.989 600.413 350.989 589.454C338.055 579.33 324.252 569.98 312.205 558.807L258.693 601.427C252.13 606.563 234.28 619.088 229.603 624.647Q229.533 619.075 229.334 613.507C232.936 609.666 243.558 602.697 248.35 598.83C269.315 581.913 290.152 564.87 311.813 548.841Z"/>
	<path fill="#FEFEFE" d="M310.458 519.485Q316.908 524.741 323.588 529.701Q352.179 552.271 381.268 574.196C394.241 584.165 406.925 594.501 419.987 604.355C418.574 612.32 419.509 624.029 419.492 632.391Q407.126 622.28 394.412 612.612L337.806 568.916C329.252 562.306 319.914 555.974 311.813 548.841C290.152 564.87 269.315 581.913 248.35 598.83C243.558 602.697 232.936 609.666 229.334 613.507C226.648 615.627 223.754 617.667 221.206 619.939C217.522 623.013 213.773 625.839 209.854 628.602L209.601 620.984L209.626 600.024C213.519 597.086 217.49 594.217 221.148 590.989C228.86 585.529 236.214 579.185 243.727 573.405Q277.726 547.229 310.458 519.485Z"/>
	<path fill="#FEFEFE" d="M259.898 630.439L361.006 630.5L361.352 719.697C361.376 733.036 361.839 746.54 361.381 759.855C358.245 759.493 355.086 759.213 351.996 758.558C346.378 756.948 339.444 756.87 333.58 756.502C311.662 755.13 290.176 755.484 268.266 756.498C265.582 756.739 262.897 757.013 260.206 757.15L259.898 630.439Z"/>
	<path fill="#0191A3" d="M328.506 666.932L351.888 666.907L351.874 686.039C344.101 686.21 336.29 686.056 328.513 686.062L328.506 666.932Z"/>
	<path fill="#0191A3" d="M299.035 666.615L322.487 666.649L322.459 685.984L299.048 685.982L299.035 666.615Z"/>
	<path fill="#0191A3" d="M269.158 666.635L293.046 666.628L293.018 685.936L269.305 685.971Q269.329 676.302 269.158 666.635Z"/>
	<path fill="#0191A3" d="M328.589 639.502L351.744 639.538C351.633 646.289 351.703 653.052 351.691 659.804C343.974 659.907 336.247 659.834 328.529 659.847L328.589 639.502Z"/>
	<path fill="#0191A3" d="M299.202 639.393L322.183 639.417L322.189 659.961L299.181 659.991L299.202 639.393Z"/>
	<path fill="#0191A3" d="M269.169 639.463L293.082 639.468C293.205 646.303 293.093 653.157 293.081 659.994L269.174 659.98L269.169 639.463Z"/>
	<path fill="#0191A3" d="M268.229 697.662Q310.289 697.358 352.348 697.618L351.996 758.558C346.378 756.948 339.444 756.87 333.58 756.502C311.662 755.13 290.176 755.484 268.266 756.498C268.12 736.901 268.622 717.247 268.229 697.662Z"/>
	<path fill="#0A6B52" d="M967.374 529.464Q967.131 535.186 966.748 540.9Q966.366 546.614 965.843 552.318Q965.321 558.021 964.659 563.71Q963.998 569.398 963.197 575.069Q962.396 580.74 961.457 586.389Q960.518 592.039 959.441 597.664Q958.364 603.289 957.15 608.886Q955.936 614.482 954.585 620.048Q953.234 625.613 951.747 631.144Q950.261 636.675 948.64 642.168Q947.018 647.661 945.263 653.112Q943.508 658.563 941.62 663.97Q939.732 669.377 937.712 674.736Q935.693 680.096 933.543 685.404Q931.392 690.712 929.113 695.966Q926.834 701.22 924.427 706.416Q922.02 711.613 919.486 716.749Q916.953 721.885 914.294 726.958Q911.636 732.031 908.854 737.037Q906.073 742.043 903.169 746.98Q900.266 751.916 897.243 756.781Q894.22 761.645 891.079 766.433Q887.937 771.222 884.68 775.933Q881.423 780.643 878.051 785.273Q874.68 789.902 871.196 794.448Q867.712 798.993 864.118 803.452Q860.524 807.911 856.822 812.281Q853.12 816.651 849.312 820.929Q845.505 825.207 841.594 829.39Q837.682 833.574 833.67 837.66Q829.658 841.747 825.547 845.734Q821.435 849.721 817.228 853.607Q813.104 857.361 808.887 861.012Q804.671 864.663 800.365 868.208Q796.06 871.754 791.668 875.191Q787.275 878.628 782.799 881.956Q778.323 885.283 773.766 888.499Q769.209 891.714 764.574 894.816Q759.938 897.917 755.227 900.903Q750.517 903.889 745.733 906.757Q740.95 909.625 736.097 912.373Q731.244 915.122 726.324 917.749Q721.404 920.376 716.421 922.881Q711.437 925.385 706.393 927.766Q701.349 930.146 696.248 932.4Q691.147 934.655 685.991 936.782Q680.835 938.91 675.628 940.908Q670.422 942.907 665.167 944.776Q659.912 946.646 654.613 948.384Q649.313 950.122 643.972 951.729Q638.631 953.335 633.252 954.808Q627.873 956.282 622.459 957.622Q617.045 958.961 611.599 960.166Q606.153 961.371 600.68 962.441Q595.206 963.511 589.707 964.445Q584.209 965.378 578.688 966.175Q573.168 966.972 567.63 967.632Q562.092 968.292 556.539 968.815Q550.986 969.337 545.422 969.722Q539.858 970.106 534.286 970.353Q528.715 970.6 523.138 970.708Q517.562 970.816 511.985 970.786Q506.407 970.757 500.833 970.588Q495.258 970.42 489.689 970.114Q485.303 969.903 480.923 969.609Q476.542 969.314 472.168 968.937Q467.793 968.56 463.427 968.101Q459.06 967.641 454.703 967.099Q450.346 966.557 446 965.932Q441.654 965.308 437.321 964.601Q432.988 963.895 428.668 963.106Q424.349 962.318 420.045 961.448Q415.742 960.578 411.456 959.627Q407.169 958.676 402.902 957.644Q398.634 956.612 394.387 955.499Q390.139 954.387 385.914 953.194Q381.688 952.001 377.486 950.729Q373.284 949.456 369.107 948.105Q364.929 946.753 360.778 945.323Q356.627 943.892 352.504 942.384Q348.381 940.875 344.287 939.289Q340.193 937.702 336.129 936.039Q332.066 934.375 328.035 932.635Q324.004 930.895 320.007 929.079Q316.009 927.263 312.047 925.372Q308.084 923.48 304.158 921.514Q300.232 919.549 296.344 917.509Q292.456 915.469 288.608 913.356Q284.759 911.243 280.951 909.058Q277.143 906.872 273.377 904.615Q269.611 902.358 265.888 900.031Q262.165 897.703 258.487 895.305Q254.809 892.907 251.177 890.44Q247.545 887.973 243.96 885.438Q240.376 882.903 236.839 880.3Q233.303 877.698 229.817 875.029C217.846 865.678 205.726 855.82 195.138 844.889C195.678 843.171 196.159 841.415 196.856 839.754L197.983 838.814C202.77 836.892 206.265 835.326 208.542 830.321C213.471 819.49 209.298 803.263 205.901 792.569C215.917 803.546 226.114 814.15 237.24 824.026Q240.554 826.925 243.929 829.753Q247.304 832.581 250.738 835.337Q254.172 838.092 257.664 840.774Q261.156 843.456 264.704 846.063Q268.253 848.67 271.856 851.201Q275.459 853.732 279.115 856.186Q282.771 858.64 286.478 861.016Q290.185 863.391 293.943 865.687Q297.7 867.983 301.505 870.199Q305.31 872.414 309.161 874.549Q313.012 876.683 316.908 878.735Q320.804 880.786 324.742 882.755Q328.681 884.723 332.661 886.608Q336.64 888.492 340.659 890.291Q344.678 892.09 348.734 893.804Q352.79 895.517 356.882 897.144Q360.973 898.77 365.098 900.309Q369.224 901.849 373.381 903.3Q377.538 904.751 381.725 906.113Q385.912 907.476 390.127 908.749Q394.342 910.022 398.583 911.205Q402.824 912.388 407.09 913.48Q411.355 914.573 415.643 915.575Q419.931 916.576 424.239 917.486Q428.547 918.397 432.873 919.215Q437.199 920.033 441.542 920.759Q445.885 921.486 450.242 922.119Q454.6 922.753 458.969 923.293Q463.339 923.834 467.719 924.282Q472.1 924.73 476.488 925.084Q480.877 925.439 485.273 925.7Q489.668 925.961 494.068 926.128Q509.248 926.711 524.431 926.196Q539.613 925.68 554.719 924.069C609.458 918.413 656.432 903.539 705.233 878.374C720.965 870.262 741.614 858.763 754.8 847.113Q771.772 847.046 788.743 847.28C793.914 847.337 799.838 848.039 804.92 847.262C807.16 846.919 809.255 846.16 810.892 844.547C812.701 842.767 813.68 840.373 814.154 837.914C815.076 833.134 814.602 827.749 814.591 822.872L814.498 797.053C827.143 780.605 840.085 764.183 851.663 746.959Q856.224 740.127 860.527 733.129Q864.829 726.131 868.866 718.977Q872.902 711.823 876.668 704.522Q880.434 697.222 883.924 689.785Q887.413 682.348 890.622 674.786Q893.83 667.224 896.753 659.547Q899.676 651.87 902.309 644.089Q904.942 636.307 907.281 628.433C911.388 614.809 916.066 600.282 917.812 586.163C939.642 571.258 955.348 552.891 967.374 529.464Z"/>
	<path fill="#08666E" d="M737.149 546.686C715.215 517.444 704.719 487.678 710.116 450.637C715.333 414.836 734.914 385.58 763.794 364.378C788.962 345.901 823.554 338.563 854.245 343.507C887.425 348.852 919.702 368.235 939.396 395.634C958.588 422.335 968.303 455.85 962.968 488.623C957.7 520.986 938.295 551.564 911.708 570.666C904.46 575.873 896.306 580.825 887.988 584.167L889.713 584.948C881.476 593.122 873.297 597.538 862.453 601.334C851.442 603.117 840.274 604.152 829.135 603.095C818.123 602.05 808.276 599.688 797.063 600.643C770.784 590.314 743.968 574.9 727.51 551.144C730.766 552.203 737.58 561.447 740.173 564.471C742.687 562.696 745.065 560.696 747.474 558.778C744.727 556.157 737.524 550.552 737.149 546.686Z"/>
	<path fill="#97DDC0" d="M842.568 508.99C849.766 508.95 857.549 508.347 864.674 509.241C863.568 512.689 862.583 516.26 861.258 519.626C856.452 534.962 849.883 549.953 842.64 564.285L842.568 508.99Z"/>
	<path fill="#FEFEFE" d="M847.989 509.362C853.484 509.467 859.209 509.808 864.674 509.241C863.568 512.689 862.583 516.26 861.258 519.626C856.516 516.674 852.155 513.068 847.989 509.362Z"/>
	<path fill="#FEFEFE" d="M831.285 367.838C833.333 377.079 832.421 387.96 832.306 397.399Q832.099 412.855 832.107 428.311L808.989 428.332L808.077 427.993C807.593 425.666 809.104 421.723 809.716 419.305C814.442 400.628 821.794 384.586 831.285 367.838Z"/>
	<path fill="#97DDC0" d="M807.866 509.016L832.628 509.031Q833.062 541.865 832.811 574.7C830.755 572.468 829.088 569.385 827.536 566.762C817.068 549.074 812.038 528.936 807.866 509.016Z"/>
	<defs>
		<linearGradient id="gradient_0" gradientUnits="userSpaceOnUse" x1="825.27429" y1="612.58972" x2="801.01886" y2="540.75916">
			<stop offset="0" stop-color="#7DD186"/>
			<stop offset="1" stop-color="#C5E5CC"/>
		</linearGradient>
	</defs>
	<path fill="url(#gradient_0)" d="M737.149 546.686C762.536 574.534 793.861 592.64 832.247 594.381Q837.409 594.61 842.572 594.399Q847.734 594.188 852.86 593.537Q857.986 592.887 863.038 591.802Q868.09 590.717 873.031 589.206C878.026 587.665 882.939 585.436 887.988 584.167L889.713 584.948C881.476 593.122 873.297 597.538 862.453 601.334C851.442 603.117 840.274 604.152 829.135 603.095C818.123 602.05 808.276 599.688 797.063 600.643C770.784 590.314 743.968 574.9 727.51 551.144C730.766 552.203 737.58 561.447 740.173 564.471C742.687 562.696 745.065 560.696 747.474 558.778C744.727 556.157 737.524 550.552 737.149 546.686Z"/>
	<path fill="#FEFEFE" d="M842.522 356.196C842.683 356.29 842.851 356.371 843.004 356.478C853.427 363.759 866.368 390.872 870.718 403.1C873.664 411.381 875.693 419.79 877.502 428.378L842.554 428.394Q842.767 392.295 842.522 356.196Z"/>
	<path fill="#FEFEFE" d="M806.046 437.872C814.781 437.845 823.539 438.169 832.274 438.347L832.445 480.924C832.474 486.582 833.335 493.5 832.385 498.993L831.518 499.436L805.89 499.4C804.176 478.546 803.353 458.721 806.046 437.872Z"/>
	<path fill="#97DDC0" d="M869.441 526.289C878.751 532.56 887.777 539.47 896.442 546.599C900.973 550.326 905.609 555.072 910.528 558.188C889.459 574.663 869.602 581.241 843.243 583.611C853.698 565.042 862.644 546.529 869.441 526.289Z"/>
	<path fill="#FEFEFE" d="M875.105 509.254Q910.913 508.937 946.721 509.179C938.849 527.764 927.217 546.328 910.528 558.188C905.609 555.072 900.973 550.326 896.442 546.599C887.777 539.47 878.751 532.56 869.441 526.289C871.435 520.64 873.458 515.016 875.105 509.254Z"/>
	<path fill="#FEFEFE" d="M855.809 353.811Q866.3 356.155 876.338 360C909.298 372.769 931.651 396.44 945.809 428.547L887.802 428.491C880.705 398.173 873.785 379.819 855.809 353.811Z"/>
	<path fill="#A6D349" d="M733.012 509.235C754.472 508.469 776.124 509.041 797.602 509.057Q798.798 516.61 800.587 524.044Q802.375 531.479 804.746 538.749Q807.116 546.019 810.054 553.079Q812.991 560.139 816.477 566.945C819.239 572.444 823.067 577.483 825.604 583.046C824.658 583.552 822.967 583.043 821.884 582.909C813.577 581.558 805.241 579.595 797.342 576.677C773.664 567.929 751.866 550.877 737.966 529.777C733.7 523.302 730.348 516.411 727.091 509.398L733.012 509.235Z"/>
	<path fill="#A6D349" d="M829.333 351.74C829.88 351.579 830.247 351.683 830.802 351.761C826.494 358.922 821.257 365.519 817.033 372.782C807.055 389.935 801.465 409.254 797.442 428.529Q763.16 428.025 728.875 428.326C727.68 428.235 727.506 428.459 726.617 427.578C728.905 417.928 741.331 400.179 747.787 392.657Q748.736 391.542 749.713 390.451Q750.69 389.36 751.694 388.294Q752.698 387.228 753.728 386.187Q754.759 385.146 755.815 384.132Q756.871 383.117 757.952 382.129Q759.033 381.141 760.138 380.181Q761.244 379.22 762.373 378.288Q763.502 377.355 764.654 376.451Q765.807 375.547 766.981 374.672Q768.155 373.797 769.351 372.952Q770.547 372.107 771.764 371.292Q772.981 370.477 774.217 369.693Q775.454 368.908 776.71 368.155Q777.966 367.402 779.24 366.681Q780.515 365.959 781.807 365.27Q783.099 364.58 784.408 363.924Q785.717 363.267 787.042 362.643Q788.367 362.019 789.707 361.429Q791.047 360.838 792.402 360.282Q793.756 359.725 795.124 359.202Q796.492 358.68 797.873 358.191Q799.253 357.703 800.646 357.249Q802.038 356.796 803.442 356.377Q804.845 355.959 806.259 355.575Q807.672 355.192 809.095 354.844Q810.517 354.497 811.948 354.184Q813.379 353.872 814.817 353.596Q816.255 353.32 817.7 353.08Q819.144 352.84 820.595 352.636Q822.045 352.432 823.5 352.264Q824.954 352.097 826.413 351.966Q827.872 351.835 829.333 351.74Z"/>
	<path fill="#FEFEFE" d="M723.176 437.986L795.648 437.967C794.865 451.162 793.764 463.801 794.203 477.068C794.419 483.587 796.588 493.692 796.139 499.121L795.119 499.445L723.376 499.484C718.209 478.756 718.056 458.76 723.176 437.986Z"/>
	<path fill="#FEFEFE" d="M842.555 437.818Q860.83 437.787 879.104 437.966C879.617 441.149 880.071 444.347 880.847 447.479L881.499 447.929C884.151 448.117 887.426 448.647 889.978 447.931L890.273 446.607C889.934 443.744 889.489 440.846 889.33 437.97C909.292 438.004 929.27 438.156 949.231 437.909C954.634 458.443 955.117 478.828 950.28 499.544L842.526 499.522L842.555 437.818Z"/>
	<path fill="#26B1A9" d="M890.273 446.607C890.665 448.365 890.706 448.552 892.217 449.46C897.917 452.883 903.2 456.058 905.242 462.917C906.744 467.96 906.155 474.201 903.633 478.828C901.093 483.488 896.543 486.67 891.458 488C885.612 489.53 879.518 488.754 874.353 485.573C869.946 482.857 866.45 478.556 865.256 473.466C864.004 468.128 865.346 461.608 868.372 457.061C871.709 452.046 879.324 449.713 880.847 447.479L881.499 447.929C884.151 448.117 887.426 448.647 889.978 447.931L890.273 446.607Z"/>
	<path fill="#90D7DA" d="M120.733 547.67C119.415 542.254 120.031 525.882 120.026 519.502C119.982 459.887 133.087 405.977 159.091 352.452C193.314 282.011 251.655 222.301 320.017 184.447C344.769 170.741 370.216 160.193 396.897 150.96C397.736 185.691 413.615 217.221 441.37 238.268C450.234 244.99 463.042 250.3 467.061 261.231C479.785 272.336 488.412 286.606 489.614 303.803C490.204 312.243 487.92 319.856 484.161 327.339C486.074 328.78 488.155 330.16 489.922 331.771C489.726 331.765 489.527 331.785 489.333 331.754C483.512 330.809 475.739 317.315 470.274 319.809C469.814 321.293 470.028 322.192 470.771 323.564C472.279 326.346 475.829 328.32 478.034 330.614C480.717 333.405 484.506 335.234 487.483 337.793C487.463 338.111 487.52 338.459 487.378 338.745C492.99 343.764 499.855 349.1 506.428 352.761Q506.122 378.856 506.164 404.953C499.08 405.002 491.976 405.093 484.915 405.724C477.469 406.742 469.921 407.642 462.589 409.307C423.814 418.113 391.18 438.926 363.714 467.176C345.93 485.379 334.111 506.781 323.588 529.701Q316.908 524.741 310.458 519.485Q277.727 547.23 243.727 573.405C236.214 579.185 228.86 585.529 221.148 590.989C220.75 574.853 221.086 558.657 221.287 542.519L206.22 542.723L201.638 536.549C190.123 523.538 179.575 509.538 167.695 496.881C153.913 512.517 140.691 528.952 126.351 544.043C124.49 543.985 122.645 543.565 121.055 544.58C120.823 545.643 120.744 546.582 120.733 547.67Z"/>
	<path fill="#FEFEFE" d="M381.744 284.953C388.436 306.496 398.177 325.766 419.092 336.737C433.735 344.418 450.557 346.22 466.356 341.136C471.382 339.519 476.537 337.028 480.695 333.745C482.903 335.416 485.089 337.191 487.378 338.745C492.99 343.764 499.855 349.1 506.428 352.761Q506.122 378.856 506.164 404.953C499.08 405.002 491.976 405.093 484.915 405.724C483.523 400.356 484.513 369.91 484.536 361.955L473.683 355.147C463.805 358.304 453.738 359.601 443.409 358.228C424.767 355.748 407.49 344.306 396.315 329.399C388.963 319.592 379.983 297.355 381.744 284.953Z"/>
	<path fill="#074B64" d="M221.148 306.042L357.395 306.024Q357.133 320.901 357.24 335.78Q350.015 335.893 342.789 335.821L279.247 335.872C264.936 335.851 250.555 335.444 236.253 335.857L221.143 335.973L221.148 306.042Z"/>
	<path fill="#026324" d="M377.002 241.659C410.452 241.626 437.654 242.729 467.061 261.231C479.785 272.336 488.412 286.606 489.614 303.803C490.204 312.243 487.92 319.856 484.161 327.339C486.074 328.78 488.155 330.16 489.922 331.771C489.726 331.765 489.527 331.785 489.333 331.754C483.512 330.809 475.739 317.315 470.274 319.809C469.814 321.293 470.028 322.192 470.771 323.564C472.279 326.346 475.829 328.32 478.034 330.614C480.717 333.405 484.506 335.234 487.483 337.793C487.463 338.111 487.52 338.459 487.378 338.745C485.089 337.191 482.903 335.416 480.695 333.745C476.537 337.028 471.382 339.519 466.356 341.136C450.557 346.22 433.735 344.418 419.092 336.737C398.177 325.766 388.436 306.496 381.744 284.953C378.252 270.892 377.761 256.078 377.002 241.659Z"/>
	<path fill="#A6D349" d="M391.419 250.166C404.431 249.044 431.318 258.094 443.94 263.401C443.187 267.646 442.717 271.783 442.558 276.092C442.443 279.209 442.736 282.925 442.101 285.949C441.935 286.74 441.384 287.083 440.843 287.649C426.927 274.851 407.23 260.549 391.419 250.166Z"/>
	<path fill="#73C650" d="M443.94 263.401C457.087 269.698 468.225 278.145 473.234 292.38C476.376 301.311 476.333 310.694 475.823 320.033C464.008 309.487 451.951 298.94 440.843 287.649C441.384 287.083 441.935 286.74 442.101 285.949C442.736 282.925 442.443 279.209 442.558 276.092C442.717 271.783 443.187 267.646 443.94 263.401Z"/>
	<path fill="#4FAD56" d="M388.743 251.481C403.302 262.729 417.861 273.728 430.757 286.908L407.203 287.041L407.12 293.999L437.106 293.77Q444.552 300.951 452.39 307.701Q438.479 307.965 424.566 307.966L424.571 315.018Q441.88 314.418 459.199 314.523C463.987 318.934 469.024 323.235 473.605 327.853C466.908 330.221 459.917 331.983 452.812 332.459C438.887 333.39 424.85 328.167 414.441 318.985C394.543 301.431 390.355 276.714 388.743 251.481Z"/>
	<path fill="#209160" d="M377.002 241.659C410.452 241.626 437.654 242.729 467.061 261.231C479.785 272.336 488.412 286.606 489.614 303.803C490.204 312.243 487.92 319.856 484.161 327.339C481.321 324.974 478.436 322.653 475.823 320.033C476.333 310.694 476.376 301.311 473.234 292.38C468.225 278.145 457.087 269.698 443.94 263.401C431.318 258.094 404.431 249.044 391.419 250.166C388.134 248.616 385.014 246.724 381.696 245.257C384.119 247.254 386.577 249.199 388.743 251.481C390.355 276.714 394.543 301.431 414.441 318.985C424.85 328.167 438.887 333.39 452.812 332.459C459.917 331.983 466.908 330.221 473.605 327.853C475.893 329.826 478.199 332.05 480.695 333.745C476.537 337.028 471.382 339.519 466.356 341.136C450.557 346.22 433.735 344.418 419.092 336.737C398.177 325.766 388.436 306.496 381.744 284.953C378.252 270.892 377.761 256.078 377.002 241.659Z"/>
	<defs>
		<linearGradient id="gradient_1" gradientUnits="userSpaceOnUse" x1="208.01364" y1="457.15659" x2="361.9082" y2="468.27109">
			<stop offset="0" stop-color="#369C3F"/>
			<stop offset="1" stop-color="#6CBC54"/>
		</linearGradient>
	</defs>
	<path fill="url(#gradient_1)" d="M236.253 335.857C250.555 335.444 264.936 335.851 279.247 335.872L342.789 335.821Q350.645 381.53 357.76 427.36C359.808 440.549 361.078 454.12 363.714 467.176C345.93 485.379 334.111 506.781 323.588 529.701Q316.908 524.741 310.458 519.485Q277.727 547.23 243.727 573.405C236.214 579.185 228.86 585.529 221.148 590.989C220.75 574.853 221.086 558.657 221.287 542.519L206.22 542.723L201.638 536.549C204.726 511.146 210.052 485.718 214.556 460.521L236.253 335.857Z"/>
	<path fill="#FEFEFE" d="M270.479 352.628L310.044 352.58L310.069 381.023Q290.246 380.905 270.422 381.008Q270.364 366.818 270.479 352.628Z"/>
	<path fill="#FEFEFE" d="M270.451 393.688L310.02 393.898C310.041 397.976 310.951 420.096 309.442 422.105Q289.787 421.926 270.134 422.282Q270.087 407.983 270.451 393.688Z"/>
	<path fill="#FEFEFE" d="M270.205 476.58L310.293 476.67L310.319 504.923Q290.225 504.615 270.128 504.542C269.973 495.229 270.155 485.894 270.205 476.58Z"/>
	<path fill="#FEFEFE" d="M270.024 435.516L310.041 435.515L310.039 464.026Q290.024 463.817 270.008 463.946L270.024 435.516Z"/>
	<path fill="#074B64" d="M506.668 307.884C507.918 305.534 507.019 268.42 507.178 262.667C509.6 262.937 512.041 262.956 514.475 263.028L514.352 344.939C519.179 341.701 524.168 337.066 529.204 334.392C529.439 334.371 529.676 334.36 529.91 334.329C535.606 333.565 550.62 312.881 556.101 313.713C555.963 314.678 555.818 315.639 555.644 316.599L556.485 318.435C552.955 325.012 531.643 338.089 530.22 342.365C525.86 346.565 519.804 350.357 514.376 353.069L514.175 405.177C520.369 405.526 526.514 405.888 532.66 406.786C560.864 410.541 586.42 420.922 610.509 435.85C616.428 439.712 622.077 444.062 627.585 448.488C639.905 459.093 650.338 470.203 660.552 482.832C666.212 490.839 670.933 499.206 676.111 507.498C684.195 523.97 691.269 540.638 695.366 558.615C699.848 577.742 700.583 596.367 700.455 615.929C699.138 635.796 696.523 655.528 689.266 674.227C685.034 676.586 682.389 679.313 681.098 684.09C679.09 691.518 680.55 704.633 680.522 712.697C672.352 712.629 664.157 712.433 655.991 712.701C656.051 707.111 656.543 700.404 652.152 696.166C650.779 694.841 648.802 693.612 646.905 693.253C640.174 691.982 631.747 692.877 624.862 692.873C613.315 692.867 601.545 692.408 590.022 692.969C586.078 693.161 582.372 694.306 579.602 697.257C574.549 702.642 576.623 725.866 576.638 733.774Q576.457 756.534 576.583 779.294C565.692 783.697 554.772 787.634 543.241 790.06C507.232 797.637 466.007 791.761 431.32 780.327C419.02 776.273 406.971 771.003 395.036 765.978L394.903 645.234C395.423 634.422 395.004 623.412 394.412 612.612Q407.126 622.28 419.492 632.391C419.509 624.029 418.574 612.32 419.987 604.355C406.925 594.501 394.241 584.165 381.268 574.196Q352.179 552.271 323.588 529.701C334.111 506.781 345.93 485.379 363.714 467.176C391.18 438.926 423.814 418.113 462.589 409.307C469.921 407.642 477.469 406.742 484.915 405.724C491.976 405.093 499.08 405.002 506.164 404.953Q506.123 378.856 506.428 352.761C499.855 349.1 492.99 343.764 487.378 338.745C487.52 338.459 487.463 338.111 487.483 337.793C484.506 335.234 480.717 333.405 478.034 330.614C475.829 328.32 472.279 326.346 470.771 323.564C470.028 322.192 469.814 321.293 470.274 319.809C475.739 317.315 483.512 330.809 489.333 331.754C489.527 331.785 489.726 331.765 489.922 331.771C494.486 333.666 502.189 341.046 506.498 344.486L506.668 307.884Z"/>
	<path fill="#73C650" d="M508.026 631.076C515.892 601.424 538.242 577.139 564.342 561.932C581.498 551.938 600.628 544.872 619.664 539.414C607.145 576.589 590.236 619.227 552.852 637.612C541.263 643.311 529.207 645.667 516.444 646.864L516.396 704.913C516.388 714.332 516.831 723.992 516.338 733.381C516.586 750.233 516.498 767.101 516.553 783.955C511.991 783.913 507.419 783.687 502.859 783.539L503.097 647.466C500.374 646.19 492.62 646.22 489.09 645.651Q485.587 645.083 482.139 644.243Q478.691 643.402 475.319 642.293Q471.948 641.185 468.674 639.815Q465.4 638.445 462.244 636.822C431.921 621.582 414.749 587.92 404.496 556.882C402.41 551.802 400.536 546.699 398.761 541.503C436.506 552.306 478.618 571.588 498.384 607.355C502.544 614.883 505.557 622.855 508.026 631.076Z"/>
	<path fill="#4FAD56" d="M404.496 556.882C408.257 559.41 418.385 576.25 422.442 581.02Q425.532 584.632 428.774 588.107Q432.017 591.583 435.406 594.915Q438.796 598.247 442.326 601.43Q445.856 604.613 449.521 607.641Q453.185 610.668 456.976 613.535Q460.768 616.402 464.679 619.102Q468.591 621.803 472.616 624.332Q476.64 626.861 480.77 629.214C487.311 632.912 494.203 635.907 500.829 639.432C505.455 641.893 507.791 645.462 513.169 646.927C509.852 647.517 506.461 647.636 503.097 647.466C500.374 646.19 492.62 646.22 489.09 645.651Q485.587 645.083 482.139 644.243Q478.691 643.402 475.319 642.293Q471.948 641.185 468.674 639.815Q465.4 638.445 462.244 636.822C431.921 621.582 414.749 587.92 404.496 556.882Z"/>
	<path fill="#E79D26" d="M419.899 532.243Q419.998 530.246 420.194 528.256Q420.39 526.266 420.683 524.289Q420.976 522.311 421.364 520.349Q421.753 518.388 422.236 516.448Q422.719 514.508 423.296 512.594Q423.873 510.679 424.543 508.795Q425.212 506.911 425.973 505.062Q426.733 503.213 427.582 501.403Q428.431 499.592 429.368 497.826Q430.304 496.059 431.325 494.34Q432.346 492.621 433.449 490.954Q434.552 489.286 435.736 487.674Q436.919 486.062 438.179 484.51Q439.439 482.958 440.773 481.468Q442.107 479.979 443.512 478.556Q444.917 477.134 446.389 475.781Q447.208 475.041 448.045 474.321Q448.882 473.601 449.737 472.902Q450.591 472.203 451.463 471.525Q452.334 470.847 453.222 470.19Q454.109 469.534 455.013 468.9Q455.917 468.265 456.835 467.653Q457.754 467.041 458.688 466.452Q459.622 465.863 460.569 465.296Q461.517 464.73 462.478 464.187Q463.44 463.644 464.414 463.125Q465.389 462.606 466.376 462.111Q467.362 461.616 468.361 461.146Q469.36 460.675 470.37 460.229Q471.38 459.783 472.4 459.362Q473.421 458.941 474.451 458.545Q475.482 458.149 476.522 457.778Q477.562 457.408 478.611 457.063Q479.66 456.718 480.717 456.399Q481.774 456.08 482.838 455.787Q483.902 455.494 484.974 455.227Q486.045 454.96 487.123 454.72Q488.2 454.479 489.283 454.265Q490.366 454.051 491.454 453.864Q492.542 453.677 493.635 453.516Q494.727 453.355 495.823 453.222Q496.919 453.088 498.018 452.981Q499.117 452.874 500.218 452.795Q501.319 452.715 502.422 452.662Q503.524 452.609 504.628 452.584Q505.732 452.558 506.836 452.559Q507.94 452.561 509.044 452.589Q510.147 452.617 511.25 452.673C534.529 453.872 556.397 463.707 572 481.196C584.007 494.656 593.049 513.918 593.701 532.117C580.035 537.304 567.067 542.848 554.066 549.522C535.382 560.806 520.509 573.896 507.702 591.717C493.902 572.895 479.372 560.629 459.493 548.732C446.591 542.328 433.606 536.715 419.899 532.243Z"/>
	<path fill="#FBD11A" d="M459.493 548.732C459.236 532.17 460.388 518.398 472.599 505.806Q473.428 504.966 474.298 504.168Q475.167 503.369 476.075 502.615Q476.983 501.86 477.926 501.15Q478.87 500.441 479.847 499.779Q480.824 499.117 481.832 498.503Q482.841 497.889 483.878 497.326Q484.915 496.763 485.979 496.251Q487.043 495.739 488.13 495.28Q489.218 494.821 490.326 494.416Q491.435 494.01 492.562 493.66Q493.69 493.31 494.833 493.015Q495.976 492.72 497.132 492.482Q498.288 492.244 499.454 492.062Q500.621 491.881 501.795 491.757Q502.969 491.633 504.147 491.567Q505.326 491.5 506.506 491.492Q507.643 491.48 508.78 491.525Q509.917 491.57 511.049 491.672Q512.182 491.773 513.309 491.93Q514.436 492.087 515.553 492.3Q516.67 492.513 517.776 492.782Q518.881 493.05 519.972 493.372Q521.063 493.695 522.136 494.072Q523.209 494.448 524.263 494.877Q525.316 495.306 526.347 495.787Q527.378 496.268 528.384 496.799Q529.389 497.331 530.367 497.911Q531.345 498.492 532.294 499.12Q533.242 499.749 534.157 500.423Q535.073 501.098 535.954 501.817Q536.836 502.537 537.68 503.299Q538.524 504.061 539.33 504.864C553.756 519.304 553.06 530.837 554.066 549.522C535.382 560.806 520.509 573.896 507.702 591.717C493.902 572.895 479.372 560.629 459.493 548.732Z"/>
	<path fill="#E79D26" d="M501.363 519.135C505.186 518.569 509.29 518.697 512.936 520.071C517.376 521.743 520.724 525.09 522.519 529.468C524.443 534.161 524.421 539.636 522.275 544.25C519.735 549.711 515.281 552.409 509.859 554.392C505.388 555.062 501.509 554.784 497.428 552.626C493.104 550.339 489.602 546.317 488.198 541.606C486.823 536.993 487.513 531.669 489.847 527.476C492.48 522.747 496.333 520.528 501.363 519.135Z"/>
</svg>
