<?xml version="1.0" encoding="utf-8" ?>
<svg xmlns="http://www.w3.org/2000/svg" xmlns:xlink="http://www.w3.org/1999/xlink" width="1024" height="1024">
	<path fill="#FEFEFE" d="M0 0L1024 0L1024 1024L0 1024L0 0Z"/>
	<path fill="#0B496A" d="M370.699 155.501L371.115 155.634L371.413 157.044L371.911 157.157L371.442 157.612C371.741 167.518 371.492 177.529 371.503 187.444C362.615 190.622 353.92 194.758 345.43 198.867Q340.818 201.147 336.268 203.548Q331.718 205.95 327.233 208.471Q322.748 210.992 318.332 213.632Q313.916 216.271 309.571 219.027Q305.226 221.783 300.956 224.653Q296.686 227.523 292.494 230.505Q288.302 233.488 284.19 236.58Q280.078 239.673 276.05 242.873Q272.022 246.074 268.08 249.381Q264.139 252.687 260.286 256.097Q256.433 259.507 252.673 263.018Q248.912 266.529 245.246 270.138Q241.579 273.748 238.01 277.453Q234.441 281.159 230.972 284.958Q227.502 288.757 224.135 292.647Q220.767 296.536 217.504 300.514C208.299 311.583 200.142 323.575 191.834 335.323C187.639 331.659 183.463 328.198 178.96 324.921C175.295 322.509 171.698 320.217 167.81 318.177C177.329 302.716 188.9 287.86 200.662 274.037C247.678 218.784 303.371 181.733 370.699 155.501Z"/>
	<path fill="#0B496A" d="M433.377 110.919C433.278 100.237 432.75 90.1481 438.135 80.4964C443.201 71.4139 452.07 65.2336 461.991 62.4836Q462.897 62.2287 463.815 62.0193Q464.732 61.81 465.659 61.6468Q466.586 61.4835 467.52 61.3668Q468.454 61.2501 469.392 61.1803Q470.331 61.1104 471.272 61.0875Q472.212 61.0646 473.153 61.0887Q474.094 61.1129 475.033 61.184Q475.971 61.2552 476.905 61.3731Q477.839 61.4911 478.765 61.6555Q479.692 61.82 480.609 62.0306Q481.526 62.2411 482.432 62.4973Q483.338 62.7534 484.229 63.0545Q485.121 63.3556 485.997 63.7009Q486.872 64.0461 487.729 64.4347Q488.586 64.8233 489.423 65.2542Q490.26 65.6852 491.074 66.1574C503.543 73.3469 506.761 82.3237 510.199 95.4211C511.287 96.3286 511.515 96.2438 512.953 96.3493C514.102 94.7803 513.972 92.0387 514.459 90.131Q514.766 88.9285 515.151 87.7487Q515.536 86.569 515.997 85.4171Q516.459 84.2652 516.996 83.1461Q517.532 82.027 518.141 80.9456Q518.75 79.8642 519.428 78.8251Q520.107 77.786 520.852 76.7937Q521.597 75.8015 522.406 74.8603Q523.215 73.9192 524.084 73.0332Q524.746 72.3397 525.442 71.6801Q526.139 71.0206 526.867 70.3966Q527.595 69.7726 528.353 69.1857Q529.112 68.5989 529.899 68.0506Q530.685 67.5023 531.499 66.994Q532.312 66.4857 533.149 66.0186Q533.987 65.5515 534.847 65.1268Q535.706 64.7021 536.586 64.3208Q537.466 63.9395 538.364 63.6027Q539.262 63.2658 540.176 62.9742Q541.089 62.6825 542.016 62.4369Q542.943 62.1912 543.881 61.9921Q544.819 61.793 545.766 61.641Q546.713 61.489 547.666 61.3844Q548.619 61.2798 549.577 61.223Q550.534 61.1661 551.493 61.1571Q552.448 61.1573 553.402 61.2043Q554.356 61.2514 555.307 61.3451Q556.258 61.4388 557.203 61.5791Q558.147 61.7193 559.084 61.9057Q560.021 62.0921 560.948 62.3242Q561.875 62.5563 562.789 62.8336Q563.703 63.1108 564.602 63.4326Q565.502 63.7543 566.384 64.1197Q567.267 64.4852 568.13 64.8935Q568.994 65.3017 569.837 65.7519Q570.679 66.202 571.499 66.6929Q572.318 67.1838 573.112 67.7142Q573.907 68.2447 574.674 68.8135Q575.442 69.3823 576.18 69.988Q576.919 70.5937 577.627 71.2349Q578.335 71.8761 579.011 72.5513C590.033 83.5425 590.287 95.934 590.278 110.558L615.921 110.417C620.783 110.395 625.878 110.053 630.7 110.675C632.696 110.933 634.853 111.433 636.39 112.815C637.877 114.153 638.777 116.064 639.017 118.03C639.583 122.663 639.235 127.573 639.186 132.241Q639.022 143.624 639.022 155.009Q639.177 193.24 639.879 231.464C649.173 234.89 658.139 239.94 666.947 244.469Q670.064 246.094 673.146 247.783Q676.229 249.471 679.276 251.223Q682.323 252.975 685.334 254.789Q688.344 256.603 691.317 258.478Q694.29 260.354 697.223 262.29Q700.157 264.227 703.05 266.223Q705.943 268.219 708.794 270.274Q711.645 272.329 714.454 274.443Q717.262 276.556 720.027 278.727Q722.791 280.897 725.51 283.125Q728.23 285.352 730.903 287.634Q733.575 289.917 736.201 292.254Q738.826 294.591 741.403 296.981Q743.98 299.372 746.507 301.815Q749.034 304.258 751.51 306.752Q753.986 309.246 756.411 311.791Q758.835 314.336 761.207 316.93Q763.579 319.524 765.897 322.166Q768.214 324.809 770.478 327.498Q772.741 330.187 774.948 332.923Q777.155 335.658 779.306 338.438Q781.456 341.218 783.549 344.042Q785.642 346.866 787.676 349.732Q789.711 352.598 791.686 355.506Q793.661 358.413 795.576 361.361Q797.491 364.308 799.344 367.294Q801.198 370.281 802.99 373.304Q804.783 376.328 806.512 379.388Q808.242 382.448 809.908 385.542Q811.574 388.637 813.176 391.766Q814.779 394.894 816.316 398.055Q817.854 401.215 819.326 404.407C828.817 424.948 835.545 445.971 841.189 467.835Q817.866 467.617 794.543 467.781Q794.441 482.592 794.577 497.403C804.315 497.222 814.124 496.213 823.162 500.596Q823.629 500.828 824.089 501.073Q824.548 501.319 825 501.579Q825.452 501.838 825.896 502.111Q826.34 502.384 826.776 502.671Q827.211 502.957 827.638 503.257Q828.064 503.556 828.482 503.868Q828.899 504.181 829.307 504.505Q829.714 504.83 830.112 505.167Q830.509 505.504 830.897 505.853Q831.284 506.202 831.66 506.562Q832.037 506.923 832.402 507.294Q832.768 507.666 833.122 508.048Q833.476 508.431 833.818 508.824Q834.16 509.217 834.49 509.621Q834.82 510.024 835.138 510.437Q835.456 510.85 835.761 511.273Q836.066 511.695 836.358 512.127Q836.651 512.559 836.93 512.999Q837.209 513.439 837.474 513.888Q837.74 514.336 837.991 514.792Q838.243 515.249 838.481 515.713Q838.719 516.176 838.943 516.647Q839.166 517.118 839.375 517.595Q839.585 518.073 839.779 518.556Q839.974 519.04 840.154 519.529Q840.334 520.018 840.499 520.512Q840.665 521.006 840.815 521.506Q840.965 522.005 841.1 522.508Q841.234 523.012 841.354 523.519Q841.474 524.026 841.578 524.537Q841.682 525.048 841.77 525.561Q841.859 526.075 841.932 526.591C842.655 531.691 842.392 536.941 842.365 542.081L842.229 561.772C842.205 565.491 841.617 570.611 842.822 574.063C845.673 573.668 846.151 566.588 848.882 564.354C850.581 562.964 853.123 562.294 855.294 562.614C858.51 563.087 860.664 565.599 862.463 568.073L862.51 575.249C873.631 576.962 882.819 581.396 892.86 586.192C897.924 525.022 891.299 465.382 868.949 407.93Q867.467 404.096 865.905 400.295Q864.343 396.494 862.7 392.726Q861.058 388.958 859.337 385.226Q857.615 381.494 855.816 377.799Q854.016 374.104 852.138 370.448Q850.261 366.792 848.307 363.176Q846.353 359.561 844.323 355.987Q842.293 352.413 840.188 348.883Q838.083 345.354 835.904 341.869Q833.725 338.384 831.473 334.946Q829.221 331.508 826.896 328.118Q824.572 324.729 822.177 321.389Q819.782 318.049 817.317 314.76Q814.852 311.472 812.318 308.236Q809.784 305 807.182 301.818Q804.58 298.637 801.912 295.511Q799.244 292.385 796.51 289.316Q793.776 286.247 790.978 283.236Q788.18 280.226 785.32 277.275Q782.459 274.324 779.536 271.434Q776.614 268.544 773.631 265.717Q770.648 262.889 767.607 260.125Q764.565 257.362 761.465 254.663Q758.366 251.963 755.21 249.33Q752.054 246.697 748.844 244.131Q745.633 241.566 742.369 239.068Q739.105 236.571 735.789 234.142Q732.473 231.714 729.106 229.357Q725.74 226.999 722.324 224.713Q718.909 222.427 715.445 220.214Q711.982 218.001 708.473 215.861Q704.964 213.721 701.411 211.656C686.204 202.76 670.204 195.149 654.084 188.071C653.927 177.088 654.002 166.09 653.967 155.106Q660.19 157.497 666.335 160.082Q672.48 162.667 678.541 165.443Q684.602 168.219 690.573 171.183Q696.545 174.147 702.42 177.297Q708.296 180.447 714.07 183.778Q719.845 187.11 725.512 190.621Q731.179 194.132 736.733 197.819Q742.288 201.505 747.724 205.364Q753.161 209.222 758.474 213.249Q763.787 217.276 768.971 221.467Q774.156 225.658 779.206 230.009Q784.257 234.36 789.169 238.867Q794.081 243.374 798.85 248.033Q803.619 252.691 808.239 257.497Q812.86 262.302 817.328 267.25Q821.796 272.198 826.107 277.283Q828.973 280.665 831.767 284.108Q834.561 287.55 837.281 291.051Q840.002 294.552 842.647 298.11Q845.292 301.668 847.861 305.282Q850.431 308.895 852.922 312.562Q855.414 316.229 857.828 319.948Q860.241 323.667 862.575 327.437Q864.909 331.206 867.163 335.024Q869.416 338.843 871.588 342.708Q873.76 346.573 875.85 350.483Q877.939 354.394 879.945 358.347Q881.951 362.301 883.872 366.297Q885.794 370.292 887.63 374.328Q889.467 378.363 891.217 382.437Q892.967 386.51 894.631 390.62Q896.294 394.73 897.87 398.874Q899.446 403.018 900.933 407.194Q902.421 411.371 903.819 415.578Q905.217 419.786 906.526 424.022Q907.835 428.258 909.054 432.52Q910.273 436.783 911.401 441.071Q912.528 445.359 913.565 449.669Q914.602 453.98 915.547 458.312Q916.492 462.643 917.344 466.994Q918.197 471.345 918.957 475.713Q919.717 480.081 920.385 484.464Q921.052 488.847 921.626 493.243Q922.2 497.64 922.681 502.047Q923.162 506.454 923.549 510.871Q923.936 515.288 924.229 519.712Q924.522 524.135 924.722 528.565Q924.921 532.994 925.026 537.426Q925.266 561.803 922.989 586.074C922.218 593.769 920.861 601.384 920.224 609.095C935.597 627.823 945.249 653.048 945.542 677.252C948.704 677.197 951.861 677.407 955.017 677.565L954.94 691.503L945.62 691.484L945.881 736.841C945.893 744.912 946.107 753.07 945.492 761.122C943.468 787.605 928.677 808.725 909.125 825.539L963.561 825.589L963.492 855.262L788.238 855.222C782.899 859.328 777.877 863.925 772.595 868.125Q757.738 879.784 742.076 890.336Q739.041 892.38 735.969 894.369Q732.898 896.359 729.792 898.293Q726.686 900.228 723.546 902.107Q720.406 903.985 717.233 905.808Q714.061 907.631 710.856 909.397Q707.651 911.163 704.415 912.872Q701.18 914.581 697.914 916.232Q694.649 917.883 691.354 919.476Q688.06 921.069 684.738 922.603Q681.416 924.137 678.067 925.611Q674.718 927.086 671.343 928.501Q667.969 929.916 664.569 931.27Q661.17 932.625 657.747 933.919Q654.325 935.213 650.879 936.446Q647.434 937.679 643.967 938.85Q640.501 940.022 637.014 941.131Q633.527 942.241 630.021 943.288Q626.515 944.336 622.991 945.321Q619.466 946.306 615.925 947.228Q612.384 948.15 608.827 949.009Q605.27 949.868 601.699 950.664Q598.127 951.46 594.542 952.192Q590.957 952.924 587.359 953.592Q583.761 954.26 580.152 954.864Q576.543 955.468 572.924 956.008Q569.305 956.548 565.677 957.023Q562.049 957.499 558.412 957.909Q554.776 958.32 551.134 958.666Q547.491 959.012 543.842 959.294Q540.194 959.575 536.541 959.791Q532.888 960.008 529.232 960.159Q525.576 960.311 521.918 960.397Q517.839 960.481 513.759 960.487Q509.679 960.493 505.599 960.42Q501.52 960.346 497.443 960.194Q493.365 960.042 489.292 959.811Q485.218 959.58 481.15 959.27Q477.082 958.961 473.02 958.572Q468.959 958.184 464.905 957.717Q460.852 957.251 456.808 956.706Q452.765 956.161 448.733 955.537Q444.701 954.914 440.681 954.213Q436.662 953.512 432.657 952.734Q428.651 951.955 424.662 951.099Q420.673 950.244 416.701 949.311Q412.729 948.378 408.776 947.369Q404.822 946.359 400.889 945.273Q396.956 944.188 393.045 943.026Q389.134 941.865 385.246 940.628Q381.358 939.391 377.494 938.079Q373.631 936.767 369.794 935.38Q365.956 933.994 362.147 932.534Q358.337 931.073 354.556 929.54Q350.775 928.006 347.025 926.399Q343.274 924.793 339.556 923.114Q335.837 921.435 332.151 919.685Q328.466 917.935 324.815 916.113Q321.164 914.292 317.549 912.401Q313.933 910.509 310.356 908.548Q306.778 906.587 303.238 904.557Q299.699 902.527 296.2 900.429Q292.7 898.331 289.242 896.166Q285.784 894.001 282.368 891.769Q278.953 889.537 275.581 887.24C260.895 877.385 246.161 867.4 233.335 855.143C177.054 856.025 120.692 855.363 64.3989 855.495L64.3781 826.466L98.1804 826.501Q97.3635 755.805 97.7371 685.106L97.4705 513.448L104.014 513.535Q104.778 502.861 106.079 492.24Q107.38 481.618 109.216 471.076Q111.052 460.534 113.417 450.098Q115.783 439.661 118.672 429.358C107.335 420.86 97.0147 407.103 89.7659 395.044C67.4976 358 66.1451 320.352 76.2065 279.427C99.0147 321.522 114.957 314.312 153.534 329.93C180.866 340.996 201.169 363.115 212.598 389.953C215.94 385.409 218.367 379.678 221.14 374.727Q227.696 363.091 235.424 352.198C267.328 307.24 308.031 270.125 357.144 244.7C366.435 239.891 376.086 236.172 385.611 231.896L385.983 152.716C385.986 141.909 384.794 128.893 385.875 118.38C386.088 116.308 386.536 114.854 388.047 113.348C389.507 111.894 391.314 111.471 393.294 111.163C397.885 110.45 402.913 110.839 407.571 110.846L433.377 110.919Z"/>
	<path fill="#FEFEFE" d="M765.534 428.807C768.036 432.304 770.01 436.178 772.036 439.963L765.51 439.985L765.534 428.807Z"/>
	<path fill="#7EC557" d="M204.379 417.474C205.604 425.829 205.975 433.984 206.056 442.414C203.67 436.544 201.264 430.675 198.369 425.034C200.533 423.359 203.501 420.095 204.379 417.474Z"/>
	<path fill="#F5C043" d="M633.043 747.198C637.755 751.206 642.027 761.087 645.036 766.791L637.125 766.757L625.386 766.615C628.63 760.261 630.962 753.993 633.043 747.198Z"/>
	<path fill="#F2DA63" d="M717.466 715.346C724.95 714.656 736.905 715.227 744.548 715.819C744.539 717.613 744.737 719.382 744.906 721.166C742.053 724.301 740.072 727.473 738.176 731.238C731.642 725.022 725.611 719.423 717.466 715.346Z"/>
	<path fill="#7EC557" d="M670.373 714.821C679.67 711.89 692.896 711.447 702.055 715.289C695.093 718.551 691.471 722.768 688.15 729.581C682.915 723.724 676.739 719.334 670.373 714.821Z"/>
	<path fill="#F5C043" d="M674.481 767.451C668.132 767.472 660.491 768.677 655.555 763.88C652.075 760.497 650.543 755.197 650.528 750.448C650.509 743.855 653.344 738.722 657.94 734.266C662.68 744.669 671.543 756.606 674.481 767.451Z"/>
	<path fill="#F5C043" d="M796.412 737.266C799.718 735.018 803.091 733.584 806.822 732.218C811.192 744.189 815.335 756.794 822.086 767.666C814.217 767.502 806.324 767.633 798.452 767.641C801.423 756.646 801.654 747.633 796.412 737.266Z"/>
	<path fill="#F5C043" d="M710.026 732.851C716.15 743.263 722.653 755.593 725.926 767.222C722.262 767.326 718.299 767.701 714.678 767.17C710.932 766.62 707.554 764.23 705.335 761.229C702.052 756.79 700.728 750.653 701.734 745.241C702.722 739.922 705.608 735.865 710.026 732.851Z"/>
	<path fill="#F5C043" d="M760.409 733.165C764.249 738.661 766.222 745.191 768.944 751.271C771.429 756.82 774.233 762.259 776.867 767.741C772.258 767.588 767.384 768.114 762.823 767.467C759.299 766.967 756.151 764.484 754.203 761.586C751.098 756.97 750.051 750.339 751.287 744.946C752.56 739.388 755.729 736.055 760.409 733.165Z"/>
	<path fill="#FEFEFE" d="M765.487 453.883L780.588 453.874L780.561 497.464L765.445 497.4L765.487 453.883Z"/>
	<path fill="#F2DA63" d="M717.01 730.149C726.705 732.671 731.92 738.762 736.812 747.174C740.475 753.473 743.333 760.198 745.961 766.982C739.289 767.056 732.593 767.01 725.926 767.222C722.653 755.593 716.15 743.263 710.026 732.851C712.225 731.485 714.528 730.806 717.01 730.149Z"/>
	<path fill="#F2DA63" d="M760.409 733.165C765.525 730.914 770.587 730.601 775.883 732.598C781.915 734.874 786.834 739.919 789.389 745.79C791.615 750.906 791.581 756.312 789.476 761.465C788.547 763.739 787.3 765.745 785.863 767.725C782.866 767.778 779.862 767.889 776.867 767.741C774.233 762.259 771.429 756.82 768.944 751.271C766.222 745.191 764.249 738.661 760.409 733.165Z"/>
	<path fill="#FEFEFE" d="M704.442 453.523L720.557 453.545L720.614 497.271L704.674 497.276L704.442 453.523Z"/>
	<path fill="#F2DA63" d="M806.822 732.218C814.097 730.856 821.195 731.168 827.477 735.643C832.445 739.183 836.175 745.075 836.971 751.156C837.798 757.476 834.783 762.862 831.536 768.007C828.418 767.923 825.181 768.006 822.086 767.666C815.335 756.794 811.192 744.189 806.822 732.218Z"/>
	<path fill="#F2DA63" d="M668.898 729.355C678.884 732.503 685.408 742.239 690.06 751.109C692.773 756.282 694.974 761.739 696.97 767.224C689.477 767.508 681.979 767.456 674.481 767.451C671.543 756.606 662.68 744.669 657.94 734.266C661.505 731.924 664.713 730.358 668.898 729.355Z"/>
	<path fill="#FEFEFE" d="M735.002 412.72C740.432 412.618 745.887 412.729 751.32 412.748L751.412 467.116C751.429 477.183 751.763 487.366 751.308 497.414L734.516 497.382Q734.243 455.047 735.002 412.72Z"/>
	<path fill="#B5D256" d="M613.299 785.381C616.149 788.614 618.455 793.165 620.893 796.781C628.144 807.538 636.403 818.547 646.561 826.687L603.75 826.499L570.506 826.517L570.443 820.412C588.347 811.712 601.091 800.993 613.299 785.381Z"/>
	<path fill="#F2DA63" d="M327.309 418.373L325.364 423.345C322.354 424.816 318.645 432.929 316.339 435.895C313.588 439.434 310.166 442.861 306.434 445.364C287.29 458.206 263.232 455.426 244.091 467.646C236.589 472.435 231.409 479.182 225.004 485.12C224.314 485.76 223.779 486.234 222.825 486.335C227.731 474.773 234.01 464.194 242.885 455.223C268.777 429.05 300.785 440.6 327.309 418.373Z"/>
	<path fill="#FEFEFE" d="M661.421 694.43C689.161 694.328 716.986 694.684 744.712 694.057Q744.448 704.937 744.548 715.819C736.905 715.227 724.95 714.656 717.466 715.346C712.34 714.135 707.163 713.828 702.055 715.289C692.896 711.447 679.67 711.89 670.373 714.821C667.683 712.811 664.665 711.669 661.489 710.696L661.421 694.43Z"/>
	<path fill="#2A9C45" d="M757.284 691.434L814.628 691.527Q814.666 706.533 814.882 721.537C805.916 721.218 798.025 724.539 791.267 730.289C787.105 727.194 783.186 724.877 778.372 722.926C776.312 719.612 774.204 716.139 771.045 713.747C766.711 710.464 762.235 710.856 757.173 711.444L757.284 691.434Z"/>
	<path fill="#7EC557" d="M752.983 672.878C752.932 674.587 753.2 675.498 752.114 676.86C748.794 677.893 743.545 676.883 741.794 680.505C740.799 682.562 740.589 685.539 741.444 687.674C742.102 689.316 743.376 690.696 744.497 692.037C744.587 692.71 744.712 693.378 744.712 694.057C716.986 694.684 689.161 694.328 661.421 694.43C661.219 687.416 661.363 680.36 661.351 673.342Q707.165 672.582 752.983 672.878Z"/>
	<path fill="#FEFEFE" d="M661.369 651.639L730.741 651.666C736.914 651.673 751.277 650.693 756.364 651.996C754.403 658.936 753.751 665.74 752.983 672.878Q707.165 672.582 661.351 673.342Q661.145 662.49 661.369 651.639Z"/>
	<path fill="#2A9C45" d="M415.394 751.761C418.781 756.598 421.148 764.18 423.84 769.688C432.29 786.983 446.431 801.722 462.524 812.144C467.033 815.065 471.813 818.04 476.684 820.285C480.218 821.914 488.47 824.268 491.247 826.485C491.386 826.597 491.503 826.734 491.632 826.858C466.321 826.237 440.822 826.402 415.507 826.748L415.394 751.761Z"/>
	<path fill="#7EC557" d="M661.492 630.6L764.497 630.503C761.352 637.262 758.014 644.675 756.364 651.996C751.277 650.693 736.914 651.673 730.741 651.666L661.369 651.639C661.724 644.67 661.482 637.583 661.492 630.6Z"/>
	<path fill="#F2DA63" d="M338.188 587.401Q340.073 582.652 342.414 578.11Q344.756 573.568 347.531 569.278C363.162 544.802 387.642 525.668 417.729 525.69C424.457 525.695 431.223 526.64 437.938 527.067C449.094 527.776 459.737 526.615 470.627 524.208L467.936 529.512L467.151 530.005C461.507 533.608 456.978 538.655 450.778 541.491C427.385 552.19 404.575 541.822 378.509 555.737C367.521 561.603 358.125 569.623 349.158 578.167C346.362 580.831 343.659 583.999 340.694 586.424C339.902 587.072 339.195 587.268 338.188 587.401Z"/>
	<path fill="#FEFEFE" d="M661.474 608.837L740.13 608.832C752.849 608.829 765.635 608.453 778.342 608.763C772.968 615.7 768.29 622.546 764.497 630.503L661.492 630.6L661.474 608.837Z"/>
	<path fill="#7EC557" d="M661.559 587.45L802.155 587.311C793.232 593.897 785.729 600.485 778.342 608.763C765.635 608.453 752.849 608.829 740.13 608.832L661.474 608.837L661.559 587.45Z"/>
	<path fill="#7EC557" d="M222.825 486.335C223.779 486.234 224.314 485.76 225.004 485.12C231.409 479.182 236.589 472.435 244.091 467.646C263.232 455.426 287.29 458.206 306.434 445.364C310.166 442.861 313.588 439.434 316.339 435.895C318.645 432.929 322.354 424.816 325.364 423.345C318.186 448.886 302.967 475.33 279.297 488.634C265.579 496.345 250.142 498.358 235.548 503.616C227.866 506.384 221.088 510.381 214.18 514.652C215.191 505.02 218.548 494.997 222.825 486.335Z"/>
	<path fill="#7EC557" d="M338.188 587.401C339.195 587.268 339.902 587.072 340.694 586.424C343.659 583.999 346.362 580.831 349.158 578.167C358.125 569.623 367.521 561.603 378.509 555.737C404.575 541.822 427.385 552.19 450.778 541.491C456.978 538.655 461.507 533.608 467.151 530.005L467.936 529.512C459.939 549.638 446.171 568.039 425.765 576.783C415.082 581.361 404.426 582 392.966 582.117C366.841 582.381 350.024 590.15 330.892 608.181C332.608 602.329 334.732 592.297 338.188 587.401Z"/>
	<path fill="#F2DA63" d="M89.1843 320.624C107.516 333.213 118.521 333.978 138.474 340.656C165.139 349.582 187.082 368.387 197.856 394.661C200.893 402.069 202.729 409.673 204.379 417.474C203.501 420.095 200.533 423.359 198.369 425.034C190.408 409.424 177.915 394.19 161.852 386.431C157.5 384.329 153.791 383.358 149.165 384.964C140.493 381.617 125.441 369.241 118.095 362.723C109.298 354.918 89.9037 332.43 89.1843 320.624Z"/>
	<path fill="#FEFEFE" d="M145.104 446.894C163.197 454.877 184.426 461.909 199.989 474.445C199.653 484.977 197.471 503.576 194.538 513.634C193.164 514.405 192.182 514.204 190.625 514.204Q162.476 513.91 134.326 513.996C134.873 491.808 139.506 468.317 145.104 446.894Z"/>
	<path fill="#FEFEFE" d="M661.557 566.129C717.141 565.803 772.866 565.239 828.441 566.052L828.492 575.892C822.262 577.68 816.728 580.027 810.94 582.938C808.073 584.381 805.141 586.199 802.155 587.311L661.559 587.45L661.557 566.129Z"/>
	<path fill="#7EC557" d="M828.387 534.935C828.71 545.306 828.174 555.689 828.441 566.052C772.866 565.239 717.141 565.803 661.557 566.129L661.526 545.046Q744.864 544.265 828.203 544.838C828.167 541.523 828.204 538.246 828.387 534.935Z"/>
	<defs>
		<linearGradient id="gradient_0" gradientUnits="userSpaceOnUse" x1="762.62488" y1="642.15063" x2="829.79535" y2="633.46863">
			<stop offset="0" stop-color="#E09B18"/>
			<stop offset="1" stop-color="#E9B730"/>
		</linearGradient>
	</defs>
	<path fill="url(#gradient_0)" d="M765.924 677.282C766.623 664.559 769.091 652.541 774.31 640.863C784.317 618.471 802.494 599.9 825.551 591.099L825.396 643.805C825.328 654.804 824.702 666.278 825.756 677.228C805.889 677.862 785.814 677.194 765.924 677.282Z"/>
	<path fill="#FEFEFE" d="M809.122 625.12C811.016 625.161 812.851 625.311 814.549 626.235C816.515 627.305 818.084 629.218 818.68 631.382Q818.797 631.806 818.872 632.239Q818.946 632.673 818.977 633.112Q819.008 633.55 818.995 633.99Q818.982 634.43 818.924 634.866Q818.867 635.302 818.767 635.73Q818.666 636.158 818.524 636.574Q818.381 636.99 818.197 637.39Q818.014 637.79 817.791 638.169C816.234 640.834 813.892 642.122 810.974 642.833C809.413 642.827 807.796 642.823 806.323 642.228C804.274 641.401 802.527 639.372 801.761 637.33C800.858 634.925 801.002 632.098 802.228 629.829C803.767 626.98 806.15 625.965 809.122 625.12Z"/>
	<path fill="#7EC557" d="M85.0507 316.626Q87.1317 318.61 89.1843 320.624C89.9037 332.43 109.298 354.918 118.095 362.723C125.441 369.241 140.493 381.617 149.165 384.964C148.302 385.767 147.765 386.232 147.262 387.33C146.943 388.025 146.923 388.862 147.215 389.594C148.299 392.313 161.871 402.907 165.191 406.158C178.931 419.615 186.768 435.249 194.322 452.607C168.677 437.957 147.252 435.101 124.147 413.3C94.8951 385.699 86.1414 355.482 85.0507 316.626Z"/>
	<path fill="#7EC557" d="M730.085 781.327Q788.146 781.853 846.208 781.6C834.198 802.121 819.445 819.317 795.492 825.547C789.41 827.129 783.402 827.749 777.131 827.537C767.093 823.922 757.778 822.776 749.029 816.017C737.831 807.366 731.808 795.237 730.085 781.327Z"/>
	<path fill="#2A9C45" d="M628.975 781.473C647.379 780.695 665.932 781.05 684.357 781.063C699.547 781.074 714.916 780.64 730.085 781.327C731.808 795.237 737.831 807.366 749.029 816.017C757.778 822.776 767.093 823.922 777.131 827.537C770.093 829.166 748.547 828.096 740.084 828.091C723.015 828.081 705.372 829.026 688.371 827.802Q684.401 827.524 680.493 826.772Q676.585 826.021 672.795 824.808C651.371 817.876 638.811 800.71 628.975 781.473Z"/>
	<path fill="#E08B2F" d="M566.557 805.381Q563.2 807.099 559.717 808.546Q556.235 809.992 552.649 811.16Q549.063 812.327 545.396 813.208Q541.729 814.088 538.004 814.676C511.912 818.675 486.387 812.613 465.192 796.823Q464.202 796.099 463.23 795.351Q462.258 794.602 461.305 793.83Q460.352 793.058 459.418 792.262Q458.485 791.466 457.571 790.647Q456.658 789.829 455.765 788.988Q454.872 788.147 454 787.284Q453.128 786.421 452.278 785.536Q451.428 784.652 450.6 783.746Q449.773 782.841 448.967 781.916Q448.162 780.99 447.381 780.045Q446.599 779.099 445.841 778.135Q445.083 777.171 444.349 776.188Q443.615 775.205 442.905 774.204Q442.196 773.203 441.512 772.185Q440.828 771.167 440.169 770.132Q439.51 769.097 438.878 768.046Q438.245 766.995 437.638 765.929Q437.032 764.863 436.452 763.782Q435.872 762.701 435.32 761.606Q434.767 760.511 434.241 759.402Q433.716 758.294 433.218 757.173Q432.721 756.051 432.251 754.918Q431.781 753.785 431.34 752.64Q430.898 751.496 430.485 750.341Q430.073 749.186 429.689 748.021Q429.305 746.856 428.95 745.681Q428.595 744.507 428.269 743.325Q427.943 742.142 427.647 740.952Q427.351 739.761 427.084 738.564Q426.818 737.366 426.581 736.163Q426.344 734.959 426.137 733.75Q425.931 732.541 425.754 731.327C422.493 707.69 428.035 681.678 442.695 662.501C441.721 668.347 440.381 673.967 440.016 679.921C438.548 703.896 446.818 727.905 460.619 747.347C485.933 783.007 526.147 795.451 566.557 805.381Z"/>
	<path fill="#FEFEFE" d="M326.134 459.869C349.482 470.91 376.831 495.405 395.098 513.612Q392.513 514.421 389.967 515.342C363.299 525.161 343.795 545.496 330.447 570.143C327.317 575.923 324.772 582.06 322.024 588.028C321.347 577.961 321.537 567.796 321.534 557.709L321.557 514.076Q284.382 514.818 247.205 514.178Q252.486 513.268 257.688 511.982C290.353 503.891 308.955 488.513 326.134 459.869Z"/>
	<path fill="#FEFEFE" d="M661.526 545.046C661.278 535.874 659.503 525.014 666.293 517.673C670.376 513.258 675.092 511.552 681.037 511.37C690.607 511.077 700.282 511.398 709.86 511.436L759.845 511.432L791.954 511.324C798.349 511.306 805.093 510.845 811.418 511.802C815.797 512.465 819.659 514.03 822.843 517.199C827.796 522.127 828.497 528.331 828.387 534.935C828.204 538.246 828.167 541.523 828.203 544.838Q744.864 544.265 661.526 545.046Z"/>
	<path fill="#2A9C45" d="M337.824 432.64C387.28 444.634 437.905 474.438 476.005 507.724C464.677 513.43 447.909 513.229 435.608 512.176C429.326 511.638 422.97 510.562 416.664 510.599C409.339 510.642 402.256 512.26 395.098 513.612C376.831 495.405 349.482 470.91 326.134 459.869C327.233 456.464 329.475 452.85 331.026 449.587C333.659 444.048 335.88 438.454 337.824 432.64Z"/>
	<path fill="#B6DBD2" d="M112.566 528.929L164.773 528.892C171.88 537.981 190.154 558.137 199.37 564.195C199.441 566.468 199.499 568.729 199.451 571.004C186.731 568.641 175.347 565.674 163.842 573.553C154.531 579.93 149.362 589.974 147.465 600.921Q147.083 603.155 146.89 605.413Q146.697 607.671 146.693 609.937Q146.689 612.203 146.875 614.461Q147.061 616.72 147.435 618.955C149.656 632.799 157.804 653.402 165.915 664.885C170.053 670.743 174.864 673.961 181.622 676.321C171.197 677.316 160.202 676.645 149.713 676.643C137.399 676.641 124.858 677.143 112.569 676.582C112.888 658.609 112.603 640.598 112.582 622.622L112.566 528.929Z"/>
	<path fill="#F2DA63" d="M825.551 591.099C846.174 585.171 863.294 585.914 882.425 596.39Q883.453 596.953 884.466 597.542Q885.48 598.131 886.479 598.745Q887.477 599.358 888.46 599.997Q889.443 600.635 890.411 601.297Q891.378 601.959 892.328 602.646Q893.278 603.332 894.211 604.041Q895.144 604.75 896.06 605.483Q896.975 606.215 897.872 606.97Q898.768 607.724 899.646 608.501Q900.524 609.278 901.383 610.076Q902.241 610.874 903.079 611.693Q903.917 612.513 904.735 613.352Q905.553 614.192 906.35 615.052Q907.146 615.911 907.922 616.791Q908.697 617.67 909.45 618.568Q910.203 619.466 910.934 620.382Q911.665 621.299 912.373 622.233Q913.08 623.167 913.765 624.119Q914.449 625.07 915.11 626.039Q915.771 627.007 916.407 627.991Q917.044 628.975 917.656 629.975Q918.268 630.975 918.855 631.989Q919.442 633.004 920.004 634.032Q920.565 635.061 921.101 636.103Q921.638 637.146 922.148 638.201Q922.658 639.256 923.142 640.324Q923.625 641.392 924.083 642.471Q924.54 643.55 924.97 644.64Q925.401 645.731 925.804 646.831Q926.207 647.932 926.583 649.042Q926.959 650.152 927.307 651.271Q927.656 652.391 927.976 653.518C930.24 661.325 931.58 669.27 931.681 677.403L825.756 677.228C824.702 666.278 825.328 654.804 825.396 643.805L825.551 591.099Z"/>
	<path fill="#FEFEFE" d="M882.539 618.045C884.636 617.909 886.643 618.058 888.629 618.808Q889.289 619.051 889.92 619.362Q890.55 619.673 891.145 620.048Q891.74 620.423 892.292 620.858Q892.845 621.293 893.349 621.784Q893.853 622.275 894.302 622.815Q894.752 623.356 895.143 623.94Q895.533 624.525 895.861 625.147Q896.188 625.77 896.449 626.423Q896.721 627.091 896.925 627.784Q897.128 628.476 897.261 629.185Q897.393 629.894 897.454 630.614Q897.514 631.333 897.501 632.054Q897.489 632.776 897.404 633.492Q897.318 634.209 897.161 634.913Q897.004 635.617 896.776 636.302Q896.549 636.987 896.253 637.645C894.302 641.954 890.977 644.081 886.69 645.681C883.656 645.648 880.881 645.524 878.082 644.166C874.608 642.48 871.958 639.535 870.846 635.815C869.761 632.182 870.146 628.103 872.096 624.829C874.465 620.849 878.252 619.172 882.539 618.045Z"/>
	<path fill="#FEFEFE" d="M164.773 528.892Q235.755 528.539 306.737 528.903L307.008 628.17C307.035 644.217 307.821 660.638 307.073 676.647L306.951 676.875C285.03 676.637 263.04 676.229 241.123 676.655C237.581 676.678 232.256 677.284 229.005 675.799C230.949 675.027 232.817 674.17 234.596 673.062C247.926 664.759 258.579 639.078 261.813 624.494C264.87 610.708 263.666 594.658 255.875 582.548C250.786 574.636 244.175 570.821 235.087 568.847C239.707 561.181 241.051 551.624 245.316 543.564C242.087 542.006 238.981 541.01 235.443 540.432C226.435 538.959 216.569 539.808 209.069 545.449C202.579 550.33 200.477 556.522 199.37 564.195C190.154 558.137 171.88 537.981 164.773 528.892Z"/>
	<path fill="#50CE9E" d="M814.628 691.527L931.469 691.517L931.511 731.892C931.534 741.126 932.095 750.694 931.289 759.868C929.772 777.156 921.691 794.45 909.471 806.739C885.087 831.261 858.782 827.93 827.374 828.273C841.718 815.657 851.946 804.341 860.498 787.036C862.274 783.441 864.616 779.102 864.74 775.022C864.797 773.132 864.252 771.31 862.879 769.965C859.008 766.175 848.941 767.96 843.826 767.985C846.734 757.564 848.166 748.234 842.682 738.315C838.389 730.551 831.1 725.358 822.62 723.012C820.076 722.309 817.49 721.913 814.882 721.537Q814.666 706.533 814.628 691.527Z"/>
	<path fill="#FEFEFE" d="M879.704 707.131C881.49 707.284 883.374 707.457 884.957 708.362C887.881 710.034 888.805 712.894 889.729 715.947C889.262 717.845 888.843 719.808 887.802 721.489C886.123 724.201 883.724 725.161 880.737 725.877C878.963 725.67 877.254 725.487 875.666 724.608Q875.239 724.37 874.837 724.091Q874.435 723.812 874.062 723.495Q873.69 723.178 873.35 722.826Q873.011 722.474 872.707 722.09Q872.404 721.706 872.14 721.295Q871.875 720.883 871.653 720.447Q871.43 720.012 871.252 719.556Q871.073 719.101 870.94 718.63Q870.815 718.181 870.738 717.722Q870.661 717.263 870.633 716.798Q870.605 716.333 870.626 715.868Q870.647 715.403 870.717 714.942Q870.787 714.482 870.906 714.031Q871.024 713.581 871.189 713.146Q871.354 712.71 871.565 712.295Q871.775 711.879 872.028 711.488C873.882 708.654 876.51 707.692 879.704 707.131Z"/>
	<path fill="#FEFEFE" d="M899.939 768.601C902.468 768.839 904.7 769.353 906.772 770.912Q907.186 771.219 907.566 771.567Q907.947 771.914 908.291 772.298Q908.635 772.681 908.939 773.098Q909.242 773.514 909.503 773.958Q909.764 774.403 909.978 774.872Q910.193 775.34 910.359 775.828Q910.526 776.315 910.643 776.817Q910.76 777.319 910.826 777.83Q910.891 778.336 910.906 778.845Q910.921 779.355 910.886 779.864Q910.851 780.372 910.766 780.875Q910.682 781.378 910.548 781.87Q910.415 782.362 910.234 782.838Q910.052 783.315 909.826 783.772Q909.599 784.228 909.328 784.66Q909.057 785.092 908.746 785.496C906.642 788.218 904.091 789.322 900.78 789.855C898.514 789.524 896.497 789.152 894.486 788.002C891.975 786.566 889.948 784.217 889.267 781.37Q889.157 780.909 889.094 780.44Q889.03 779.971 889.014 779.498Q888.998 779.025 889.029 778.552Q889.06 778.08 889.138 777.613Q889.216 777.146 889.34 776.689Q889.465 776.232 889.634 775.79Q889.804 775.348 890.016 774.925Q890.229 774.502 890.483 774.102C892.719 770.572 896.017 769.379 899.939 768.601Z"/>
	<path fill="#0B496A" d="M199.37 564.195C200.477 556.522 202.579 550.33 209.069 545.449C216.569 539.808 226.435 538.959 235.443 540.432C238.981 541.01 242.087 542.006 245.316 543.564C241.051 551.624 239.707 561.181 235.087 568.847C244.175 570.821 250.786 574.636 255.875 582.548C263.666 594.658 264.87 610.708 261.813 624.494C258.579 639.078 247.926 664.759 234.596 673.062C232.817 674.17 230.949 675.027 229.005 675.799C223.417 676.803 218.175 676.747 212.518 676.439C203.451 674.596 199.554 676.374 190.982 676.829C187.878 676.993 184.711 676.61 181.622 676.321C174.864 673.961 170.053 670.743 165.915 664.885C157.804 653.402 149.656 632.799 147.435 618.955Q147.061 616.72 146.875 614.461Q146.689 612.203 146.693 609.937Q146.697 607.671 146.89 605.413Q147.083 603.155 147.465 600.921C149.362 589.974 154.531 579.93 163.842 573.553C175.347 565.674 186.731 568.641 199.451 571.004C199.499 568.729 199.441 566.468 199.37 564.195Z"/>
	<path fill="#7EC557" d="M224.074 544.143C227.48 543.961 230.771 544.09 234.171 544.329C231.986 550.287 230.878 557.408 227.415 562.76C224.471 567.31 220.476 569.147 215.403 570.356C211.808 570.899 208.369 571.104 204.732 571.142C204.144 564.635 204.642 557.836 208.662 552.39C212.465 547.237 217.997 545.147 224.074 544.143Z"/>
	<path fill="#EC4643" d="M176.426 582.057C176.841 608.188 191.382 635.194 209.973 653.107C214.541 657.508 219.564 660.719 225.111 663.744C216.924 665.482 210.785 662.929 203.532 659.514Q201.866 660.474 200.133 661.307C194.578 663.96 188.228 665.229 182.313 662.87C174.759 659.856 170.172 646.088 167.263 638.966C161.665 625.256 156.403 609.622 162.615 595.198C165.465 588.579 169.867 584.705 176.426 582.057Z"/>
	<path fill="#E08B2F" d="M176.426 582.057C184.706 579.76 196.835 583.588 205.739 583.756C214.228 583.915 222.44 580.556 230.728 580.922C233.562 581.047 236.107 581.856 238.573 583.244C244.521 586.588 247.578 592.722 249.199 599.095C253.938 617.723 245.084 637.339 235.596 652.989C232.818 657.571 230.051 661.351 225.111 663.744C219.564 660.719 214.541 657.508 209.973 653.107C191.382 635.194 176.841 608.188 176.426 582.057Z"/>
	<path fill="#FEFEFE" d="M239.64 596.355C241.031 596.425 242.243 596.509 243.413 597.339C245.9 599.103 246.969 602.534 247.357 605.414C247.952 609.829 247.684 614.813 244.917 618.451C243.363 618.6 242.182 618.73 240.661 618.225C238.237 616.109 237.736 604.974 237.519 601.556C237.37 599.198 238.102 598.072 239.64 596.355Z"/>
	<path fill="#F5C043" d="M212.518 676.439C218.175 676.747 223.417 676.803 229.005 675.799C232.256 677.284 237.581 676.678 241.123 676.655C263.04 676.229 285.03 676.637 306.951 676.875C306.172 716.955 307.182 757.105 306.641 797.205C306.51 806.956 306.828 816.787 306.362 826.522L287.746 826.534L212.976 826.494Q212.246 751.467 212.518 676.439Z"/>
	<path fill="#FEFEFE" d="M218.846 721.544C226.344 720.979 234.08 721.32 241.611 721.28C248.097 721.245 254.969 720.77 261.407 721.376C263.461 721.569 265.095 722.102 266.359 723.832C267.871 725.901 268.461 728.885 267.956 731.387C267.309 734.593 265.232 736.248 262.606 737.924C255.115 738.342 247.528 738.231 240.026 738.316C234.22 738.382 228.182 738.776 222.393 738.302C219.633 738.076 217.693 737.482 215.915 735.273C214.314 733.282 213.675 730.89 214.058 728.368C214.529 725.276 216.408 723.308 218.846 721.544Z"/>
	<path fill="#FEFEFE" d="M218.959 758.58C225.286 758.223 256.497 757.529 261.76 758.605C263.948 759.053 265.974 760.363 267.108 762.31C268.403 764.531 268.586 767.275 267.805 769.703C266.863 772.63 265.386 774.182 262.708 775.59C255.579 776.134 248.227 775.842 241.065 775.875C234.915 775.903 228.476 776.339 222.372 775.728C219.842 775.475 217.623 775.147 215.973 773.022C214.47 771.086 213.371 767.68 213.823 765.24C214.386 762.205 216.514 760.226 218.959 758.58Z"/>
	<path fill="#F2DA63" d="M241.123 676.655C263.04 676.229 285.03 676.637 306.951 676.875C306.172 716.955 307.182 757.105 306.641 797.205C306.51 806.956 306.828 816.787 306.362 826.522L287.746 826.534C287.232 820.975 287.573 815.118 287.586 809.525L287.535 781.26L287.538 677.151C281.437 677.151 243.337 677.857 241.123 676.655Z"/>
	<path fill="#F5C043" d="M307.073 676.647C312.128 677.707 318.269 677.025 323.473 677.047L403.5 677.155L403.502 686.85L403.487 826.864Q354.926 826.377 306.362 826.522C306.828 816.787 306.51 806.956 306.641 797.205C307.182 757.105 306.172 716.955 306.951 676.875L307.073 676.647Z"/>
	<path fill="#FEFEFE" d="M329.372 721.528C336.189 720.972 343.231 721.309 350.069 721.312C356.751 721.314 363.627 720.998 370.292 721.426C372.823 721.588 375.227 721.859 376.94 723.965C378.517 725.904 379.639 728.773 379.21 731.293C378.722 734.163 376.75 736.033 374.488 737.648C367.534 739.444 344.246 738.54 335.918 738.512C332.915 738.501 329.509 738.634 327.334 736.218C325.536 734.22 325.201 731.256 325.402 728.684C325.659 725.416 326.986 723.65 329.372 721.528Z"/>
	<path fill="#FEFEFE" d="M330.303 758.554C338.067 758.208 366.994 757.39 373.365 758.855C375.236 759.286 376.877 760.399 377.848 762.068C379.115 764.244 379.39 767.422 378.726 769.834C377.956 772.63 376.118 774.286 373.676 775.662C367.75 776.31 338.585 776.787 333.201 775.716C330.491 775.177 327.93 773.993 326.407 771.586C325.054 769.448 324.802 766.648 325.413 764.224C326.117 761.43 327.919 759.952 330.303 758.554Z"/>
	<path fill="#2A9C45" d="M487.341 518.134C510.047 538.6 529.231 561.597 546.335 586.895C551.846 595.045 557.577 603.553 561.958 612.365C529.885 602.293 501.161 602.699 470.867 618.561C443.395 632.946 424.67 657.467 415.659 686.81C414.894 689.301 414.289 691.687 413.897 694.264L413.789 694.931L413.73 695.332L413.313 695.544C413.177 694.626 413.267 694.483 413.449 693.512C413.876 691.233 413.908 688.718 414.117 686.398C410.601 686.507 406.994 686.46 403.502 686.85L403.5 677.155L323.473 677.047C323.564 668.34 322.152 658.549 324.661 650.149C328.13 638.532 335.119 626.731 343.277 617.795C353.845 606.218 368.023 597.813 383.882 596.642C391.095 596.109 398.367 596.608 405.6 596.072C417.11 595.22 428.162 592.159 438.304 586.606C464.744 572.131 479.03 546.064 487.341 518.134Z"/>
	<path fill="#E08B2F" d="M181.622 676.321C184.711 676.61 187.878 676.993 190.982 676.829C199.554 676.374 203.451 674.596 212.518 676.439Q212.246 751.469 212.976 826.494L112.549 826.488L112.569 676.582C124.858 677.143 137.399 676.641 149.713 676.643C160.202 676.645 171.197 677.316 181.622 676.321Z"/>
	<path fill="#FEFEFE" d="M143.887 721.541C150.749 720.882 177.039 720.654 183.303 721.72C185.368 722.071 186.855 722.504 188.054 724.338C189.627 726.743 190.222 729.489 189.46 732.291C188.64 735.304 187.105 736.759 184.497 738.335C177.631 738.752 170.572 738.48 163.688 738.495C157.974 738.508 151.852 738.931 146.182 738.257C143.789 737.972 141.852 737 140.456 734.992C138.954 732.831 138.589 729.989 139.122 727.445C139.71 724.642 141.627 723.067 143.887 721.541Z"/>
	<path fill="#FEFEFE" d="M144.419 758.59C152.748 758.279 176.926 757.643 184.193 759.088C186.323 759.511 187.986 760.348 189.165 762.227C190.557 764.446 190.849 767.451 190.186 769.957C189.372 773.033 187.22 774.78 184.531 776.232C180.028 776.607 175.243 776.094 170.71 776.073C163.014 776.036 151.787 777.121 144.496 775.642C142.579 775.253 141.352 774.197 140.292 772.588C138.823 770.355 138.257 767.675 138.882 765.062C139.631 761.927 141.801 760.208 144.419 758.59Z"/>
	<path fill="#B5D256" d="M212.598 389.953C215.94 385.409 218.367 379.678 221.14 374.727Q227.696 363.091 235.424 352.198C267.328 307.24 308.031 270.125 357.144 244.7C366.435 239.891 376.086 236.172 385.611 231.896Q386.17 296.535 385.855 361.176L385.927 411.335C372.437 409.353 358.846 411.248 345.387 410.336C344.31 410.263 344.469 410.468 343.711 409.603C344.825 403.282 344.549 396.743 344.57 390.348C344.403 382.294 343.565 373.836 341.012 366.16C340.097 375.754 338.358 383.964 333.359 392.35C312.775 427.012 276.025 414.452 246.921 432.759C235.454 439.972 226.211 451.366 218.517 462.343C224.953 438.316 221.449 412.803 212.598 389.953Z"/>
	<path fill="#FEFEFE" d="M385.578 289.657C386.048 313.432 385.719 337.28 385.625 361.061L385.664 389.461C377.987 389.465 370.287 389.39 362.615 389.691C356.665 389.925 350.511 390.575 344.57 390.348C344.403 382.294 343.565 373.836 341.012 366.16C340.097 375.754 338.358 383.964 333.359 392.35C326.834 392.614 320.267 394.096 313.853 395.243C296.646 398.319 280.522 402.288 263.794 407.296C270.924 392.347 280.577 378.36 290.942 365.494C316.9 333.273 348.104 307.474 385.578 289.657Z"/>
	<path fill="#FEFEFE" d="M649.012 855.402C660.418 854.297 672.585 855.067 684.089 855.049C701.893 855.021 719.866 854.514 737.642 855.363C725.638 864.446 712.357 872.388 699.231 879.742C657.206 903.291 613.29 918.966 565.539 925.748Q561.498 926.312 557.446 926.792Q553.394 927.27 549.333 927.664Q545.272 928.057 541.204 928.364Q537.135 928.672 533.061 928.893Q528.987 929.115 524.909 929.25Q520.831 929.385 516.752 929.434Q512.672 929.483 508.592 929.446Q504.512 929.409 500.434 929.286Q496.355 929.163 492.281 928.953Q488.206 928.744 484.137 928.448Q480.067 928.153 476.005 927.772Q471.943 927.39 467.889 926.923Q463.836 926.456 459.794 925.904Q455.751 925.351 451.721 924.713Q447.691 924.075 443.676 923.353Q439.66 922.63 435.661 921.822Q431.661 921.015 427.68 920.123Q423.699 919.231 419.737 918.255Q415.775 917.28 411.835 916.22Q407.895 915.161 403.978 914.019Q400.061 912.877 396.169 911.652Q392.277 910.427 388.412 909.121Q384.546 907.814 380.71 906.426Q376.873 905.038 373.066 903.569Q369.26 902.101 365.485 900.552Q361.71 899.003 357.969 897.375Q354.228 895.747 350.522 894.04Q346.816 892.333 343.147 890.548Q339.478 888.763 335.848 886.901Q332.217 885.04 328.627 883.101Q325.036 881.163 321.488 879.15Q317.939 877.136 314.434 875.048C303.79 868.764 292.892 862.605 283.003 855.161C312.041 855.548 341.348 854.086 370.342 855.415L560.527 855.437L620.71 855.371C629.863 855.35 639.959 854.416 649.012 855.402Z"/>
	<path fill="#B5D256" d="M370.342 855.415L560.527 855.437L620.71 855.371C629.863 855.35 639.959 854.416 649.012 855.402C621.133 868.321 593.093 878.648 562.679 883.641Q557.439 884.553 552.172 885.284Q546.904 886.015 541.614 886.565Q536.324 887.115 531.018 887.483Q525.713 887.851 520.398 888.037Q515.083 888.222 509.764 888.225Q504.446 888.228 499.131 888.048Q493.815 887.869 488.509 887.506Q483.203 887.144 477.913 886.6Q472.622 886.056 467.354 885.33Q462.085 884.605 456.845 883.699Q451.604 882.793 446.397 881.707Q441.191 880.622 436.025 879.358Q430.859 878.094 425.739 876.654Q420.62 875.214 415.553 873.598Q410.486 871.983 405.477 870.195Q400.468 868.406 395.524 866.447C388.526 863.674 376.184 859.607 370.342 855.415Z"/>
	<path fill="#F2DA63" d="M442.695 662.501C454.378 642.649 478.207 628.336 500.013 622.629C524.604 616.192 551.065 620.79 572.845 633.649Q573.913 634.268 574.966 634.913Q576.019 635.558 577.056 636.229Q578.092 636.9 579.112 637.597Q580.132 638.293 581.134 639.015Q582.136 639.736 583.12 640.482Q584.104 641.228 585.069 641.999Q586.034 642.769 586.98 643.562Q587.926 644.356 588.852 645.173Q589.778 645.99 590.684 646.83Q591.589 647.669 592.473 648.531Q593.358 649.393 594.221 650.276Q595.083 651.16 595.924 652.064Q596.765 652.969 597.583 653.894Q598.401 654.818 599.196 655.763Q599.991 656.708 600.762 657.673Q601.534 658.637 602.281 659.62Q603.028 660.603 603.751 661.604Q604.473 662.606 605.171 663.625Q605.869 664.643 606.541 665.679Q607.213 666.715 607.86 667.767Q608.506 668.819 609.126 669.887Q609.747 670.955 610.34 672.037Q610.934 673.12 611.5 674.217Q612.067 675.315 612.606 676.425Q613.146 677.536 613.657 678.66Q614.169 679.784 614.653 680.92Q615.137 682.056 615.592 683.204Q616.048 684.352 616.474 685.51Q616.901 686.669 617.3 687.838Q617.698 689.007 618.067 690.185Q618.436 691.364 618.776 692.551Q619.116 693.738 619.426 694.933C625.762 719.981 620.552 746.825 607.29 768.756C597.914 784.262 583.356 798.217 566.557 805.381C526.147 795.451 485.933 783.007 460.619 747.347C446.818 727.905 438.548 703.896 440.016 679.921C440.381 673.967 441.721 668.347 442.695 662.501Z"/>
	<path fill="#0B496A" d="M513.827 656.664C526.467 655.316 549.091 658.715 559.257 666.646C560.177 667.364 561.301 668.441 561.333 669.679C561.443 673.883 556.315 681.746 553.166 684.549C551.921 685.658 550.668 685.504 549.131 685.171C546.079 684.509 543.193 683.039 540.328 681.838C534.067 679.212 527.596 677.504 520.773 677.492C514.902 677.482 508.581 678.72 504.393 683.242C502.716 685.052 502.12 687.293 502.197 689.72C502.684 705.129 524.622 702.549 535.146 704.524C543.687 706.127 552.36 709.409 558.845 715.358Q559.435 715.888 559.998 716.447Q560.561 717.006 561.095 717.592Q561.63 718.178 562.135 718.789Q562.64 719.401 563.115 720.036Q563.589 720.672 564.032 721.33Q564.474 721.989 564.883 722.668Q565.293 723.347 565.668 724.046Q566.044 724.745 566.384 725.461Q566.724 726.178 567.029 726.91Q567.334 727.642 567.602 728.389Q567.87 729.135 568.101 729.894Q568.332 730.653 568.525 731.422Q568.719 732.191 568.874 732.969Q569.029 733.747 569.145 734.532Q569.262 735.316 569.34 736.106Q569.417 736.895 569.456 737.687Q569.491 738.468 569.487 739.25Q569.483 740.032 569.439 740.813Q569.395 741.594 569.312 742.371Q569.228 743.149 569.105 743.921Q568.983 744.694 568.821 745.459Q568.659 746.224 568.458 746.98Q568.258 747.736 568.02 748.48Q567.781 749.225 567.505 749.957Q567.229 750.689 566.916 751.405Q566.604 752.122 566.255 752.822Q565.906 753.522 565.522 754.203Q565.139 754.885 564.721 755.546Q564.303 756.207 563.852 756.846Q563.401 757.485 562.919 758.1Q562.436 758.716 561.923 759.306Q561.409 759.896 560.867 760.459C552.302 769.482 539.823 773.237 527.672 773.588C524.41 773.612 521.143 773.543 517.899 773.191C509.499 772.28 486.703 767.284 481.605 760.541C480.704 759.349 480.367 758.287 480.607 756.805C481.484 751.396 486.694 744.527 490.899 741.204C493.873 742.675 496.619 744.725 499.575 746.291Q501.317 747.21 503.125 747.993Q504.933 748.776 506.795 749.418Q508.658 750.06 510.564 750.557Q512.47 751.054 514.409 751.404Q516.347 751.754 518.307 751.954Q520.267 752.155 522.236 752.204Q524.206 752.253 526.173 752.152Q528.14 752.05 530.094 751.798C535.244 751.177 540.896 749.448 544.096 745.081C545.699 742.893 546.297 740.378 545.85 737.707C543.506 723.7 516.432 726.19 506.148 724.189C501.16 723.218 496.334 721.368 492.165 718.431C485.51 713.742 481.662 706.8 480.409 698.879C478.901 689.345 480.205 678.874 486.081 671C492.753 662.059 503.166 658.283 513.827 656.664Z"/>
	<path fill="#B5D256" d="M341.247 421.4C342.291 417.527 342.794 413.513 343.711 409.603C344.469 410.468 344.31 410.263 345.387 410.336C358.846 411.248 372.437 409.353 385.927 411.335C390.303 412.638 395.81 412.11 400.351 412.097C401.041 412.843 401.454 413.161 402.466 413.432C408.609 415.074 415.305 415.58 421.585 416.744Q439.16 420.152 456.499 424.608Q475.833 429.828 494.72 436.484Q513.607 443.141 531.941 451.197C543.618 456.462 554.921 462.481 566.402 468.147Q577.26 474.111 587.791 480.636Q598.322 487.161 608.496 494.229Q618.671 501.296 628.461 508.887Q638.252 516.478 647.631 524.571C647.127 534.266 647.42 544.043 647.434 553.751L647.488 602.921C647.486 609.527 648.455 622.635 647.13 628.494C647.726 637.333 647.385 646.357 647.409 655.223L647.458 704.046Q641.525 704.409 635.582 704.558C634.74 699.991 633.859 695.406 632.753 690.894C625.545 661.478 606.267 636.913 580.439 621.391C574.864 618.04 567.475 615.879 562.548 612.75C562.349 612.624 562.155 612.493 561.958 612.365C557.577 603.553 551.846 595.045 546.335 586.895C529.231 561.597 510.047 538.6 487.341 518.134C489.069 511.829 490.365 505.395 492.045 499.07C486.745 502.108 481.592 505.225 476.005 507.724C437.905 474.438 387.28 444.634 337.824 432.64C339.358 429.162 340.348 425.102 341.247 421.4Z"/>
	<path fill="#2A9C45" d="M341.247 421.4C342.291 417.527 342.794 413.513 343.711 409.603C344.469 410.468 344.31 410.263 345.387 410.336C358.846 411.248 372.437 409.353 385.927 411.335C390.303 412.638 395.81 412.11 400.351 412.097C401.041 412.843 401.454 413.161 402.466 413.432C408.609 415.074 415.305 415.58 421.585 416.744Q439.16 420.152 456.499 424.608Q475.833 429.828 494.72 436.484Q513.607 443.141 531.941 451.197C543.618 456.462 554.921 462.481 566.402 468.147Q577.26 474.111 587.791 480.636Q598.322 487.161 608.496 494.229Q618.671 501.296 628.461 508.887Q638.252 516.478 647.631 524.571C647.127 534.266 647.42 544.043 647.434 553.751L647.488 602.921C647.486 609.527 648.455 622.635 647.13 628.494C642.189 621.819 637.927 614.463 633.149 607.632Q618.199 586.034 600.936 566.236Q598.413 563.32 595.84 560.448Q593.266 557.576 590.643 554.75Q588.02 551.924 585.347 549.144Q582.674 546.364 579.953 543.632Q577.232 540.9 574.463 538.216Q571.695 535.531 568.879 532.896Q566.064 530.261 563.203 527.676Q560.341 525.091 557.435 522.556Q554.529 520.022 551.579 517.539Q548.629 515.055 545.635 512.624Q542.642 510.193 539.606 507.815Q536.571 505.437 533.494 503.113Q530.417 500.789 527.3 498.518Q524.183 496.248 521.026 494.034Q517.87 491.819 514.675 489.659Q511.48 487.5 508.247 485.398Q505.015 483.295 501.746 481.249Q498.477 479.204 495.173 477.216Q491.869 475.228 488.53 473.298Q485.191 471.369 481.819 469.498Q478.447 467.627 475.043 465.816Q471.639 464.005 468.203 462.254Q464.767 460.503 461.302 458.812Q457.836 457.122 454.341 455.492Q450.846 453.863 447.323 452.295Q443.8 450.727 440.25 449.221Q436.7 447.716 433.124 446.273Q429.548 444.83 425.947 443.449Q422.346 442.069 418.722 440.753Q415.097 439.436 411.45 438.183Q407.804 436.93 404.135 435.742Q400.467 434.553 396.778 433.429C379.033 428.04 359.818 422.712 341.247 421.4Z"/>
	<path fill="#B5D256" d="M639.879 231.464C649.173 234.89 658.139 239.94 666.947 244.469Q670.064 246.094 673.146 247.783Q676.229 249.471 679.276 251.223Q682.323 252.975 685.334 254.789Q688.344 256.603 691.317 258.478Q694.29 260.354 697.223 262.29Q700.157 264.227 703.05 266.223Q705.943 268.219 708.794 270.274Q711.645 272.329 714.454 274.443Q717.262 276.556 720.027 278.727Q722.791 280.897 725.51 283.125Q728.23 285.352 730.903 287.634Q733.575 289.917 736.201 292.254Q738.826 294.591 741.403 296.981Q743.98 299.372 746.507 301.815Q749.034 304.258 751.51 306.752Q753.986 309.246 756.411 311.791Q758.835 314.336 761.207 316.93Q763.579 319.524 765.897 322.166Q768.214 324.809 770.478 327.498Q772.741 330.187 774.948 332.923Q777.155 335.658 779.306 338.438Q781.456 341.218 783.549 344.042Q785.642 346.866 787.676 349.732Q789.711 352.598 791.686 355.506Q793.661 358.413 795.576 361.361Q797.491 364.308 799.344 367.294Q801.198 370.281 802.99 373.304Q804.783 376.328 806.512 379.388Q808.242 382.448 809.908 385.542Q811.574 388.637 813.176 391.766Q814.779 394.894 816.316 398.055Q817.854 401.215 819.326 404.407C828.817 424.948 835.545 445.971 841.189 467.835Q817.866 467.617 794.543 467.781Q794.81 453.945 794.939 440.108L772.036 439.963C770.01 436.178 768.036 432.304 765.534 428.807Q765.335 413.65 765.484 398.492Q743.263 398.614 721.041 398.51L721.115 440.383L690.137 440.184Q690.15 453.895 690.352 467.605Q690.48 482.57 690.364 497.535C677.609 497.406 666.747 497.406 657.086 506.951Q656.18 507.84 655.344 508.796Q654.507 509.751 653.746 510.767Q652.984 511.782 652.301 512.852Q651.618 513.923 651.017 515.041Q650.417 516.16 649.903 517.321Q649.389 518.482 648.964 519.678Q648.538 520.874 648.205 522.099Q647.871 523.324 647.631 524.571Q638.252 516.478 628.461 508.887Q618.671 501.296 608.496 494.229Q598.322 487.161 587.791 480.636Q577.26 474.111 566.402 468.147C554.921 462.481 543.618 456.462 531.941 451.197Q513.607 443.141 494.72 436.484Q475.833 429.828 456.499 424.608Q439.16 420.152 421.585 416.744C415.305 415.58 408.609 415.074 402.466 413.432C401.454 413.161 401.041 412.843 400.351 412.097C410.242 411.494 420.36 411.85 430.272 411.858L483.459 411.911L639.947 411.891Q639.849 400.381 639.945 388.871L639.867 388.288C639.125 383.766 639.606 378.414 639.613 373.798L639.643 345.045L639.879 231.464Z"/>
	<path fill="#FEFEFE" d="M566.402 468.147C572.161 466.801 591.585 467.778 598.557 467.738C629.12 467.563 659.802 466.944 690.352 467.605Q690.48 482.57 690.364 497.535C677.609 497.406 666.747 497.406 657.086 506.951Q656.18 507.84 655.344 508.796Q654.507 509.751 653.746 510.767Q652.984 511.782 652.301 512.852Q651.618 513.923 651.017 515.041Q650.417 516.16 649.903 517.321Q649.389 518.482 648.964 519.678Q648.538 520.874 648.205 522.099Q647.871 523.324 647.631 524.571Q638.252 516.478 628.461 508.887Q618.671 501.296 608.496 494.229Q598.322 487.161 587.791 480.636Q577.26 474.111 566.402 468.147Z"/>
	<path fill="#FEFEFE" d="M639.89 290.732C674.367 310.169 705.252 333.649 730.581 364.318C737.162 372.286 742.739 380.885 749.029 389.051L639.945 388.871L639.867 388.288C640.333 355.796 639.02 323.203 639.89 290.732Z"/>
	<path fill="#0B496A" d="M433.377 110.919C433.278 100.237 432.75 90.1481 438.135 80.4964C443.201 71.4139 452.07 65.2336 461.991 62.4836Q462.897 62.2287 463.815 62.0193Q464.732 61.81 465.659 61.6468Q466.586 61.4835 467.52 61.3668Q468.454 61.2501 469.392 61.1803Q470.331 61.1104 471.272 61.0875Q472.212 61.0646 473.153 61.0887Q474.094 61.1129 475.033 61.184Q475.971 61.2552 476.905 61.3731Q477.839 61.4911 478.765 61.6555Q479.692 61.82 480.609 62.0306Q481.526 62.2411 482.432 62.4973Q483.338 62.7534 484.229 63.0545Q485.121 63.3556 485.997 63.7009Q486.872 64.0461 487.729 64.4347Q488.586 64.8233 489.423 65.2542Q490.26 65.6852 491.074 66.1574C503.543 73.3469 506.761 82.3237 510.199 95.4211C511.287 96.3286 511.515 96.2438 512.953 96.3493C514.102 94.7803 513.972 92.0387 514.459 90.131Q514.766 88.9285 515.151 87.7487Q515.536 86.569 515.997 85.4171Q516.459 84.2652 516.996 83.1461Q517.532 82.027 518.141 80.9456Q518.75 79.8642 519.428 78.8251Q520.107 77.786 520.852 76.7937Q521.597 75.8015 522.406 74.8603Q523.215 73.9192 524.084 73.0332Q524.746 72.3397 525.442 71.6801Q526.139 71.0206 526.867 70.3966Q527.595 69.7726 528.353 69.1857Q529.112 68.5989 529.899 68.0506Q530.685 67.5023 531.499 66.994Q532.312 66.4857 533.149 66.0186Q533.987 65.5515 534.847 65.1268Q535.706 64.7021 536.586 64.3208Q537.466 63.9395 538.364 63.6027Q539.262 63.2658 540.176 62.9742Q541.089 62.6825 542.016 62.4369Q542.943 62.1912 543.881 61.9921Q544.819 61.793 545.766 61.641Q546.713 61.489 547.666 61.3844Q548.619 61.2798 549.577 61.223Q550.534 61.1661 551.493 61.1571Q552.448 61.1573 553.402 61.2043Q554.356 61.2514 555.307 61.3451Q556.258 61.4388 557.203 61.5791Q558.147 61.7193 559.084 61.9057Q560.021 62.0921 560.948 62.3242Q561.875 62.5563 562.789 62.8336Q563.703 63.1108 564.602 63.4326Q565.502 63.7543 566.384 64.1197Q567.267 64.4852 568.13 64.8935Q568.994 65.3017 569.837 65.7519Q570.679 66.202 571.499 66.6929Q572.318 67.1838 573.112 67.7142Q573.907 68.2447 574.674 68.8135Q575.442 69.3823 576.18 69.988Q576.919 70.5937 577.627 71.2349Q578.335 71.8761 579.011 72.5513C590.033 83.5425 590.287 95.934 590.278 110.558L615.921 110.417C620.783 110.395 625.878 110.053 630.7 110.675C632.696 110.933 634.853 111.433 636.39 112.815C637.877 114.153 638.777 116.064 639.017 118.03C639.583 122.663 639.235 127.573 639.186 132.241Q639.022 143.624 639.022 155.009Q639.177 193.24 639.879 231.464L639.643 345.045L639.613 373.798C639.606 378.414 639.125 383.766 639.867 388.288L639.945 388.871Q639.849 400.381 639.947 411.891L483.459 411.911L430.272 411.858C420.36 411.85 410.242 411.494 400.351 412.097C395.81 412.11 390.303 412.638 385.927 411.335L385.855 361.176Q386.17 296.535 385.611 231.896L385.983 152.716C385.986 141.909 384.794 128.893 385.875 118.38C386.088 116.308 386.536 114.854 388.047 113.348C389.507 111.894 391.314 111.471 393.294 111.163C397.885 110.45 402.913 110.839 407.571 110.846L433.377 110.919Z"/>
	<defs>
		<linearGradient id="gradient_1" gradientUnits="userSpaceOnUse" x1="369.46298" y1="340.77103" x2="651.15454" y2="171.75803">
			<stop offset="0" stop-color="#299D58"/>
			<stop offset="1" stop-color="#68C169"/>
		</linearGradient>
	</defs>
	<path fill="url(#gradient_1)" d="M467.395 75.5549Q469.252 75.3822 471.117 75.3831C477.701 75.3398 484.288 77.5911 488.937 82.3531C498.73 92.3831 496.07 112.194 496.046 125.264C506.559 125.578 517.163 125.364 527.686 125.402L527.675 122.052C527.635 109.248 525.147 91.8685 535.189 82.1822C539.796 77.7388 546.14 75.4513 552.508 75.5762C558.758 75.6987 565.222 78.1589 569.578 82.7169C578.463 92.0132 575.874 113.336 575.828 125.574L625.019 125.524L625.343 318.027C625.302 344.312 625.837 370.7 625.18 396.972L608.812 396.841L401.115 396.698C401.745 359.006 401.089 321.18 400.983 283.476L400.974 125.849Q424.49 125.583 448.007 125.716C447.932 114.982 445.983 96.1599 451.29 86.782C454.869 80.4581 460.623 77.3676 467.395 75.5549Z"/>
	<path fill="#FEFEFE" d="M420.912 168.557C433.885 168.038 447.023 168.451 460.012 168.444L540.893 168.524L582.432 168.461C588.877 168.45 596.345 167.739 602.665 168.763C604.767 169.103 606.564 170.341 607.674 172.159C608.924 174.205 609.052 177.863 609.133 180.261C609.989 205.557 609.043 231.153 609.091 256.488L609.181 285.926C609.216 292.081 609.98 299.379 608.626 305.347C608.307 306.751 607.825 308.558 606.784 309.613C603.586 312.855 595.801 316.31 591.695 318.71Q581.374 324.728 571.257 331.084L536.948 351.313C529.01 356.079 520.662 362.49 511.807 365.297C509.859 364.666 508.051 363.935 506.246 362.971C498.222 358.686 490.459 353.693 482.618 349.072L444.905 327.075C436.937 322.38 423.511 315.977 416.942 310.287C416.328 307.765 416.082 305.25 415.977 302.661C415.592 293.171 415.886 283.56 415.869 274.059L415.779 220.243L415.789 189.813C415.805 184.881 415.389 179.43 416.135 174.563C416.574 171.7 418.68 170.095 420.912 168.557Z"/>
	<path fill="#F5C043" d="M584.546 179.538L589.934 183.905Q589.912 194.253 590.087 204.6C580.02 209.403 570.379 215.72 560.748 221.377C549.247 228.131 537.557 234.494 526.268 241.607L522.227 243.881C521.985 234.254 522.129 224.589 522.098 214.957C541.912 201.742 563.943 191.498 584.546 179.538Z"/>
	<path fill="#F5C043" d="M440.519 180.469C454.236 188.225 468.283 195.429 482.041 203.131C489.03 207.043 496.168 210.827 502.692 215.492C502.532 224.703 502.948 233.938 502.711 243.145C501.281 243.256 500.452 242.493 499.221 241.815L434.886 206.032L434.861 184.618C436.783 183.286 438.644 181.866 440.519 180.469Z"/>
	<path fill="#0B496A" d="M589.247 270.978L589.984 271.442C591.154 279.107 590.092 291.946 590.005 300.151C582.494 304.519 575.196 309.279 567.752 313.764L522.7 340.542L522.454 340.314C521.104 336.84 522.108 315.675 522.261 310.582C535.043 302.524 548.039 295.116 561.05 287.466C570.427 281.952 579.686 276.168 589.247 270.978Z"/>
	<path fill="#0B496A" d="M434.561 271.825C443.155 275.749 451.523 281.018 459.737 285.716L502.537 310.369Q502.677 325.475 502.547 340.581C494.316 336.54 486.516 331.419 478.573 326.836L434.565 301.564Q434.409 286.694 434.561 271.825Z"/>
	<path fill="#0B496A" d="M588.978 222.405L589.481 222.509C590.861 224.871 589.97 247.275 589.962 251.644C584.033 256.152 577.049 259.791 570.646 263.598C554.79 273.025 538.354 281.872 522.909 291.934C521.943 290.896 522.19 265.102 522.153 261.487L588.978 222.405Z"/>
	<path fill="#0B496A" d="M434.394 223.579C443.774 227.506 452.577 233.129 461.414 238.126Q482.108 249.671 502.604 261.566C502.228 271.709 502.576 281.934 502.414 292.091C479.743 279.239 456.468 266.909 434.542 252.836L434.394 223.579Z"/>
</svg>
